<svg version="1.1" id="Layer_1" xmlns="http://www.w3.org/2000/svg" xmlns:xlink="http://www.w3.org/1999/xlink" x="0px" y="0px"
	 width="100%" viewBox="0 0 392 390" enable-background="new 0 0 392 390" xml:space="preserve">
<path fill="#000000" opacity="1.000000" stroke="none" 
	d="
M387.000000,391.000000 
	C260.644043,391.000000 134.288055,391.000000 7.156802,390.743134 
	C6.632465,390.016541 6.883409,389.546844 7.593710,389.050354 
	C106.338211,389.015717 204.623367,389.001770 302.908508,389.003876 
	C330.894226,389.004456 358.879913,389.051575 387.043030,389.434052 
	C387.146973,390.193817 387.073486,390.596893 387.000000,391.000000 
z"/>
<path fill="#000000" opacity="1.000000" stroke="none" 
	d="
M7.000000,1.000000 
	C133.355972,1.000000 259.711945,1.000000 386.842896,1.256921 
	C387.366882,1.983231 387.115875,2.452618 386.405823,2.949145 
	C288.327942,2.984189 190.709122,2.998310 93.090309,2.996148 
	C64.438255,2.995513 35.786198,2.948672 6.956738,2.566257 
	C6.852890,1.806337 6.926445,1.403169 7.000000,1.000000 
z"/>
<path fill="#000000" opacity="1.000000" stroke="none" 
	d="
M393.000000,7.000000 
	C393.000000,132.689316 393.000000,258.378632 392.743774,384.842957 
	C392.018524,385.367462 391.549469,385.116943 391.053009,384.407288 
	C391.017792,297.987854 391.001495,212.027542 391.005890,126.067223 
	C391.007935,86.419350 391.050476,46.771481 391.433105,6.950421 
	C392.194366,6.851487 392.597198,6.925744 393.000000,7.000000 
z"/>
<path fill="#000000" opacity="1.000000" stroke="none" 
	d="
M0.999999,385.000000 
	C1.000000,259.310699 1.000000,133.621384 1.256245,7.156771 
	C1.982730,6.630253 2.452970,6.879049 2.950076,7.587604 
	C2.984628,110.332153 2.997443,212.616943 2.996119,314.901733 
	C2.995816,338.223389 2.946681,361.545013 2.563797,385.043701 
	C1.805047,385.147156 1.402522,385.073578 0.999999,385.000000 
z"/>
<path fill="#CCCCCC" opacity="1.000000" stroke="none" 
	d="
M391.080414,384.866455 
	C391.549469,385.116943 392.018524,385.367462 392.743774,385.308960 
	C393.000000,386.913239 393.000000,388.826447 393.000000,391.000000 
	C391.336578,391.000000 389.667755,391.000000 387.499481,391.000000 
	C387.073486,390.596893 387.146973,390.193817 387.099243,389.076630 
	C386.940277,387.883087 386.902557,387.403595 386.989380,386.652893 
	C387.716248,385.876373 388.318573,385.371063 389.279419,384.920502 
	C390.118774,384.938995 390.599579,384.902710 391.080414,384.866455 
z"/>
<path fill="#CCCCCC" opacity="1.000000" stroke="none" 
	d="
M0.999999,385.499481 
	C1.402522,385.073578 1.805047,385.147156 2.922096,385.098877 
	C4.117156,384.940247 4.597691,384.903534 5.349293,384.991486 
	C6.125064,385.718719 6.629768,386.321289 7.077996,387.281250 
	C7.059133,388.118134 7.096746,388.597626 7.134356,389.077118 
	C6.883409,389.546844 6.632465,390.016541 6.690761,390.743134 
	C5.086776,391.000000 3.173552,391.000000 1.000000,391.000000 
	C1.000000,389.336578 1.000000,387.667755 0.999999,385.499481 
z"/>
<path fill="#CCCCCC" opacity="1.000000" stroke="none" 
	d="
M393.000000,6.500529 
	C392.597198,6.925744 392.194366,6.851487 391.076355,6.886428 
	C389.881287,7.041775 389.401398,7.087923 388.650482,7.009177 
	C387.877686,6.280277 387.375946,5.676271 386.938965,4.716052 
	C386.957458,3.880562 386.911163,3.401285 386.864868,2.922007 
	C387.115875,2.452618 387.366882,1.983231 387.308960,1.256921 
	C388.913239,1.000000 390.826447,1.000000 393.000000,1.000000 
	C393.000000,2.663430 393.000000,4.332244 393.000000,6.500529 
z"/>
<path fill="#CCCCCC" opacity="1.000000" stroke="none" 
	d="
M2.923210,7.127845 
	C2.452970,6.879049 1.982730,6.630253 1.256245,6.690729 
	C1.000000,5.086773 1.000000,3.173546 1.000000,1.000000 
	C2.663430,1.000000 4.332244,1.000000 6.500528,1.000000 
	C6.926445,1.403169 6.852890,1.806337 6.891814,2.922346 
	C7.041569,4.112502 7.078845,4.589818 6.999704,5.341767 
	C6.280002,6.118394 5.676715,6.620388 4.717305,7.054904 
	C3.881858,7.034233 3.402534,7.081039 2.923210,7.127845 
z"/>
<path fill="#4D4D4D" opacity="1.000000" stroke="none" 
	d="
M7.593712,389.050354 
	C7.096746,388.597626 7.059133,388.118134 7.537144,387.307739 
	C103.006050,386.984558 197.959335,386.999023 292.912628,386.996155 
	C324.230011,386.995209 355.547424,386.949432 386.864807,386.924133 
	C386.902557,387.403595 386.940277,387.883087 386.921814,388.719971 
	C358.879913,389.051575 330.894226,389.004456 302.908508,389.003876 
	C204.623367,389.001770 106.338211,389.015717 7.593712,389.050354 
z"/>
<path fill="#4D4D4D" opacity="1.000000" stroke="none" 
	d="
M7.116120,5.067135 
	C7.078845,4.589818 7.041569,4.112502 7.069217,3.279096 
	C35.786198,2.948672 64.438255,2.995513 93.090309,2.996148 
	C190.709122,2.998310 288.327942,2.984189 386.405823,2.949146 
	C386.911163,3.401285 386.957458,3.880562 386.479187,4.690919 
	C312.652313,5.014667 239.349991,4.997020 166.047668,5.003457 
	C113.070488,5.008109 60.093304,5.044757 7.116120,5.067135 
z"/>
<path fill="#505050" opacity="1.000000" stroke="none" 
	d="
M388.921509,7.134071 
	C389.401398,7.087923 389.881287,7.041775 390.717896,7.059619 
	C391.050476,46.771481 391.007935,86.419350 391.005890,126.067223 
	C391.001495,212.027542 391.017792,297.987854 391.053009,384.407318 
	C390.599579,384.902710 390.118774,384.938995 389.306335,384.461365 
	C388.982422,289.327240 388.996918,194.707016 388.994019,100.086777 
	C388.993073,69.102539 388.946960,38.118305 388.921509,7.134071 
z"/>
<path fill="#505050" opacity="1.000000" stroke="none" 
	d="
M2.950076,7.587604 
	C3.402534,7.081039 3.881858,7.034233 4.691565,7.514862 
	C5.014631,106.663506 5.001419,205.284714 5.003860,303.905914 
	C5.004528,330.892883 5.052149,357.879822 5.078224,384.866821 
	C4.597691,384.903534 4.117156,384.940247 3.278321,384.921814 
	C2.946681,361.545013 2.995816,338.223389 2.996119,314.901733 
	C2.997443,212.616943 2.984628,110.332153 2.950076,7.587604 
z"/>
<path fill="#000000" opacity="1.000000" stroke="none" 
	d="
M5.349292,384.991455 
	C5.052149,357.879822 5.004528,330.892883 5.003860,303.905914 
	C5.001419,205.284714 5.014631,106.663506 5.047688,7.582340 
	C5.676715,6.620388 6.280002,6.118394 6.999704,5.341767 
	C60.093304,5.044757 113.070488,5.008109 166.047668,5.003457 
	C239.349991,4.997020 312.652313,5.014667 386.414429,5.047133 
	C387.375946,5.676271 387.877686,6.280277 388.650482,7.009177 
	C388.946960,38.118305 388.993073,69.102539 388.994019,100.086777 
	C388.996918,194.707016 388.982422,289.327240 388.947815,384.406616 
	C388.318573,385.371063 387.716248,385.876373 386.989380,386.652893 
	C355.547424,386.949432 324.230011,386.995209 292.912628,386.996155 
	C197.959335,386.999023 103.006050,386.984558 7.593619,386.950317 
	C6.629768,386.321289 6.125064,385.718719 5.349292,384.991455 
M68.046440,84.817947 
	C66.226425,84.039101 64.406410,83.260246 62.605518,82.489586 
	C51.577080,99.086723 54.717503,124.685272 66.240585,138.566437 
	C80.134888,155.304077 96.702576,159.496307 113.340714,155.921112 
	C113.226181,154.642365 113.110245,153.347900 113.842934,152.007874 
	C134.393433,150.121704 151.853638,132.560364 153.953766,108.995010 
	C159.514053,108.665108 165.074356,108.335205 170.449371,108.016296 
	C170.731018,106.712502 170.967880,106.218048 170.919617,105.753204 
	C168.311111,80.633461 156.681091,61.196686 134.373642,48.818336 
	C127.231369,44.855103 119.498421,42.380554 111.025871,42.918755 
	C108.076302,43.106121 106.835022,43.852352 106.954071,46.951839 
	C107.145729,51.941959 107.005753,56.944817 106.161514,61.991634 
	C103.000519,62.580372 99.797569,63.002697 96.685921,63.787170 
	C84.402229,66.883995 75.107544,74.007065 68.046440,84.817947 
M224.042557,231.138428 
	C222.363968,230.434921 220.645935,229.812088 219.013428,229.014297 
	C210.808853,225.004837 208.201599,226.463791 207.987350,235.520172 
	C201.223282,236.205673 203.194214,242.140350 202.548325,246.023804 
	C202.283890,247.613876 205.638184,249.930206 207.537369,251.712494 
	C208.829361,252.925003 210.520493,253.699692 211.917099,254.815445 
	C217.435669,259.224121 222.401062,264.652466 228.530472,267.883911 
	C235.704910,271.666351 243.878586,273.553497 251.804230,276.327728 
	C251.955948,277.775940 251.627380,279.861359 252.418442,281.353119 
	C258.036438,291.947235 264.758942,301.474365 277.118225,305.161957 
	C279.311096,305.816254 281.604279,306.663727 283.402649,308.017700 
	C290.651093,313.475006 298.811951,316.250824 307.654785,314.724457 
	C312.029083,313.969391 314.947357,315.023560 317.933655,317.527344 
	C321.324463,320.370331 325.279388,321.111877 329.045074,319.114838 
	C332.869965,317.086395 333.387543,313.058777 332.942871,309.049011 
	C332.762085,307.419220 332.214630,305.833344 331.937622,304.209808 
	C331.754242,303.134949 331.307831,301.780396 331.752106,300.980164 
	C333.508240,297.816772 335.569397,294.822723 337.630798,291.588013 
	C341.659485,293.073120 346.214111,294.652496 349.425842,290.600403 
	C352.775238,286.374603 350.867554,281.655762 348.604553,277.491943 
	C347.215179,274.935425 345.173950,272.733154 343.232117,270.110779 
	C349.536652,265.809448 348.183899,259.339203 347.607727,253.443024 
	C347.465546,251.988007 343.858337,249.819839 341.866364,249.843765 
	C338.877136,249.879654 335.846313,251.408463 332.940582,252.570877 
	C321.365387,257.201385 315.113464,255.941132 308.456726,247.428650 
	C308.683075,246.844528 308.798340,246.136642 309.178802,245.626633 
	C315.245239,237.494766 314.726959,229.461060 309.003967,221.397522 
	C308.383179,220.522842 308.365173,219.239731 307.968872,218.183105 
	C305.613556,211.903137 304.260895,204.959702 300.677307,199.477188 
	C284.477844,174.693665 248.535019,175.048431 231.677551,199.451782 
	C224.926361,209.224991 224.642670,219.895111 224.930191,231.062027 
	C224.930191,231.062027 224.779678,231.186386 224.042557,231.138428 
M308.480072,37.000648 
	C307.647095,37.000648 306.814087,37.000652 305.981110,37.000652 
	C275.660126,37.000671 245.339127,36.992771 215.018127,37.007504 
	C209.086853,37.010384 205.030960,40.203129 205.024765,45.086758 
	C204.979874,80.405663 204.977173,115.724670 205.027771,151.043549 
	C205.034775,155.939651 208.116165,158.969452 213.036194,158.975586 
	C248.355087,159.019669 283.674103,159.020569 318.993011,158.974976 
	C323.901581,158.968643 326.966583,155.921982 326.973358,151.013306 
	C327.022125,115.694412 327.080475,80.374809 326.810547,45.057903 
	C326.793121,42.775654 324.511261,39.182487 322.514404,38.521996 
	C318.443848,37.175587 313.848816,37.414730 308.480072,37.000648 
M175.001633,213.532959 
	C175.001602,211.533234 175.002197,209.533508 175.001450,207.533783 
	C174.998672,200.238388 173.748062,199.001114 166.366989,199.000992 
	C131.872421,199.000443 97.377853,198.999176 62.883282,199.002304 
	C56.534218,199.002869 55.003227,200.515717 55.002693,206.805954 
	C54.999004,250.299103 54.998589,293.792267 55.002903,337.285400 
	C55.003586,344.192261 56.808311,345.996033 63.718922,345.997040 
	C97.880203,346.002045 132.041489,345.999542 166.202774,345.999237 
	C173.524948,345.999176 174.999268,344.500549 174.999878,337.002838 
	C175.003250,296.175934 175.001572,255.349030 175.001633,213.532959 
z"/>
<path fill="#393939" opacity="1.000000" stroke="none" 
	d="
M225.080109,230.936951 
	C224.642670,219.895111 224.926361,209.224991 231.677551,199.451782 
	C248.535019,175.048431 284.477844,174.693665 300.677307,199.477188 
	C304.260895,204.959702 305.613556,211.903137 307.968872,218.183105 
	C308.365173,219.239731 308.383179,220.522842 309.003967,221.397522 
	C314.726959,229.461060 315.245239,237.494766 309.178802,245.626633 
	C308.798340,246.136642 308.683075,246.844528 308.456726,247.428650 
	C315.113464,255.941132 321.365387,257.201385 332.940582,252.570877 
	C335.846313,251.408463 338.877136,249.879654 341.866364,249.843765 
	C343.858337,249.819839 347.465546,251.988007 347.607727,253.443024 
	C348.183899,259.339203 349.536652,265.809448 343.232117,270.110779 
	C345.173950,272.733154 347.215179,274.935425 348.604553,277.491943 
	C350.867554,281.655762 352.775238,286.374603 349.425842,290.600403 
	C346.214111,294.652496 341.659485,293.073120 337.630798,291.588013 
	C335.569397,294.822723 333.508240,297.816772 331.752106,300.980164 
	C331.307831,301.780396 331.754242,303.134949 331.937622,304.209808 
	C332.214630,305.833344 332.762085,307.419220 332.942871,309.049011 
	C333.387543,313.058777 332.869965,317.086395 329.045074,319.114838 
	C325.279388,321.111877 321.324463,320.370331 317.933655,317.527344 
	C314.947357,315.023560 312.029083,313.969391 307.654785,314.724457 
	C298.811951,316.250824 290.651093,313.475006 283.402649,308.017700 
	C281.604279,306.663727 279.311096,305.816254 277.118225,305.161957 
	C264.758942,301.474365 258.036438,291.947235 252.418442,281.353119 
	C251.627380,279.861359 251.955948,277.775940 251.804230,276.327728 
	C243.878586,273.553497 235.704910,271.666351 228.530472,267.883911 
	C222.401062,264.652466 217.435669,259.224121 211.917099,254.815445 
	C210.520493,253.699692 208.829361,252.925003 207.537369,251.712494 
	C205.638184,249.930206 202.283890,247.613876 202.548325,246.023804 
	C203.194214,242.140350 201.223282,236.205673 207.987350,235.520172 
	C208.201599,226.463791 210.808853,225.004837 219.013428,229.014297 
	C220.645935,229.812088 222.363968,230.434921 224.451111,231.392914 
	C225.043625,231.887619 225.227600,232.127808 225.411591,232.367996 
	C225.301086,231.890976 225.190598,231.413971 225.080109,230.936951 
M295.984070,246.899292 
	C296.247772,246.842499 296.511444,246.785706 296.775146,246.728897 
	C296.619781,246.384247 296.464417,246.039597 296.083618,244.927521 
	C295.609680,241.906570 295.135773,238.885620 294.904755,235.144409 
	C296.295166,233.097305 297.685547,231.050217 299.152832,229.770416 
	C298.505798,232.484192 297.858765,235.197968 296.871643,238.672470 
	C296.831726,242.170074 297.443298,246.087097 301.391327,246.196899 
	C303.836487,246.264893 306.736816,243.791489 308.718750,241.761673 
	C310.009735,240.439529 310.017975,237.864883 310.827515,235.063156 
	C309.782227,232.168625 309.500214,227.969177 307.459900,226.775711 
	C305.699127,225.745743 301.937653,228.136093 298.221130,228.648132 
	C300.727417,226.607422 303.233734,224.566727 305.543152,222.686325 
	C298.735657,219.452591 290.889496,226.261627 291.025940,236.699051 
	C290.849457,240.757416 291.809601,244.300995 295.984070,246.899292 
M236.592392,267.242645 
	C236.498184,267.827118 236.268494,268.908783 236.329071,268.925323 
	C241.029526,270.206360 245.752762,271.403839 251.393173,272.842010 
	C250.932907,270.096466 250.673508,268.549225 250.479477,266.164215 
	C249.760727,260.504395 247.221481,258.035126 241.321976,257.976196 
	C240.900635,257.942902 240.479309,257.909637 240.005310,257.136597 
	C239.882126,256.327728 240.013367,255.343842 239.596100,254.737274 
	C235.758911,249.159164 232.059357,243.460297 227.837265,238.182541 
	C225.188950,234.872025 221.357025,233.163925 216.249466,233.880249 
	C221.659149,236.240829 221.033875,240.551544 220.392258,244.516144 
	C220.003296,244.329865 219.614319,244.143585 219.047272,243.233780 
	C216.994339,241.751724 215.060867,240.043671 212.843933,238.871902 
	C211.503204,238.163254 209.698761,238.007294 208.149368,238.141663 
	C207.240921,238.220444 205.857040,239.265289 205.731323,240.044144 
	C205.613876,240.771835 206.705887,242.143951 207.564499,242.489349 
	C209.538300,243.283386 211.693954,243.625290 214.105392,244.675613 
	C214.343399,245.398621 214.581406,246.121613 214.073105,246.819702 
	C211.183777,246.054520 208.294464,245.289352 205.405136,244.524170 
	C205.097488,245.216370 204.789841,245.908554 204.482193,246.600754 
	C206.783035,247.909271 209.083862,249.217804 211.797684,251.055023 
	C216.485931,255.085129 221.174194,259.115234 225.992538,262.998779 
	C225.992538,262.998779 225.869034,263.149658 226.123138,263.772125 
	C228.420578,264.731598 230.718033,265.691071 233.785660,266.527313 
	C234.522156,266.271332 235.258652,266.015350 236.573654,265.997955 
	C236.774094,266.337311 236.974533,266.676697 236.592392,267.242645 
M336.679810,270.820221 
	C339.143768,269.417603 341.607727,268.014984 344.500854,266.368073 
	C342.860809,265.438538 342.057434,264.983215 342.063171,264.986481 
	C343.452332,263.328674 344.839233,261.673645 346.226105,260.018585 
	C345.820496,259.666931 345.414886,259.315247 345.009277,258.963593 
	C340.990967,260.668304 336.972656,262.372986 332.252167,263.504272 
	C331.728790,257.795990 339.152161,260.798706 340.500763,255.774460 
	C331.939789,256.290649 323.971497,256.771088 315.489258,257.106049 
	C315.313782,257.136292 315.138306,257.166565 314.203491,257.013916 
	C310.136169,256.004913 306.068817,254.995880 301.480835,253.485138 
	C299.324127,253.001999 297.167389,252.518845 294.363800,251.429367 
	C295.849915,247.693878 293.468536,247.813904 290.378937,247.513748 
	C290.455139,246.518127 290.531372,245.522507 290.607605,244.526886 
	C280.738190,256.105225 268.125580,259.849823 253.684204,259.626465 
	C258.377960,260.393646 263.120514,261.199036 267.442383,260.194489 
	C273.141144,258.869904 278.509644,256.124634 284.632477,254.546036 
	C282.996429,255.954514 281.360413,257.363007 279.724365,258.771484 
	C279.923920,259.124756 280.123474,259.478027 280.323029,259.831299 
	C283.909821,257.701202 287.465149,255.515076 291.101227,253.472702 
	C292.302185,252.798111 293.711517,252.494446 294.975433,252.714172 
	C282.653900,264.026886 268.301361,266.631165 252.059250,262.225830 
	C252.346008,263.458801 252.523331,264.221161 252.637329,265.835388 
	C253.215393,269.171478 253.793472,272.507568 254.348404,275.710144 
	C262.911285,274.957642 270.776886,274.020782 278.664215,273.771088 
	C280.333313,273.718262 282.070709,276.193054 283.797729,277.474884 
	C285.055420,278.408356 286.687317,280.324280 287.568909,280.033508 
	C292.793396,278.310089 297.847534,276.070251 304.003876,274.395721 
	C302.788788,275.764832 301.827881,277.785065 300.309662,278.377686 
	C296.193848,279.984375 291.815979,280.906311 287.598969,282.275299 
	C286.357300,282.678345 285.305756,283.666962 284.167084,284.387238 
	C285.139862,285.401306 285.926544,286.847351 287.115509,287.359680 
	C295.126251,290.811523 307.824493,284.091553 310.078033,275.084351 
	C308.825928,274.788818 307.588043,274.415161 306.322601,274.222565 
	C305.220001,274.054779 304.086304,274.091339 303.487915,273.433563 
	C302.302734,272.276276 301.117554,271.118958 300.673309,269.595154 
	C304.548431,270.765625 308.423553,271.936096 311.524963,272.872894 
	C312.201416,271.484619 312.601135,270.664368 313.533966,270.033844 
	C313.942078,270.416199 314.350189,270.798553 314.915619,271.971008 
	C315.598816,272.633667 316.241028,273.820068 316.971588,273.877167 
	C323.520020,274.389313 330.136963,275.035095 336.679810,270.820221 
M302.034454,309.682922 
	C300.823669,310.355347 299.612885,311.027740 298.402100,311.700165 
	C301.856812,312.617737 305.495056,313.170593 308.471436,312.016510 
	C312.653351,310.394958 315.078766,311.238708 318.084320,314.388641 
	C322.546021,319.064636 325.643707,318.949066 329.792328,314.728271 
	C329.792328,311.168091 329.792328,307.607880 329.792328,304.460144 
	C324.755157,306.061432 320.741882,307.337250 316.020081,308.379059 
	C312.015106,308.262024 308.010162,308.144989 303.587708,307.380157 
	C302.374390,306.616486 301.128479,305.158234 299.953583,305.213348 
	C295.625946,305.416351 291.321808,306.120667 286.503601,306.696869 
	C291.474945,310.961243 296.753448,309.872223 302.034454,309.682922 
M263.126617,284.452698 
	C263.773010,285.006439 264.419373,285.560211 265.618530,286.817322 
	C265.832031,288.564178 266.045563,290.311005 265.546295,292.114288 
	C265.384369,292.734039 265.222443,293.353790 265.060516,293.973541 
	C267.463440,294.267853 269.866333,294.562195 272.269257,294.856537 
	C272.225891,294.226318 272.182495,293.596100 272.139282,292.325592 
	C272.065857,291.907196 271.992401,291.488770 272.266144,290.811249 
	C272.266144,290.811249 272.614655,290.553955 272.939178,290.942291 
	C273.256500,291.319763 273.573853,291.697266 274.126801,292.797150 
	C277.135010,297.016235 280.404175,294.622498 284.293182,293.478760 
	C282.717316,291.300232 281.503143,289.621704 280.107086,287.242249 
	C278.260681,284.923553 276.635162,280.886200 274.525574,280.615082 
	C268.677887,279.863434 262.628387,280.674438 256.659424,280.891022 
	C256.222046,280.906891 255.791351,281.107666 255.099380,281.290833 
	C256.019806,282.583099 256.818665,283.704712 257.012909,283.977417 
	C259.712769,283.977417 261.576019,283.977417 263.126617,284.452698 
M273.654755,190.664780 
	C263.394531,187.334122 253.199814,185.707794 243.131256,191.820648 
	C270.110168,185.018799 287.510620,195.235199 296.586975,221.228149 
	C296.935089,219.586746 297.192932,217.912201 296.607056,216.620255 
	C294.565887,212.119339 292.181091,207.775650 290.037079,203.319183 
	C289.240143,201.662674 288.747101,199.859970 288.868835,198.921738 
	C292.888214,205.590515 296.907593,212.259293 301.220215,219.414612 
	C301.798676,219.414612 303.682129,219.414612 305.562622,219.414612 
	C304.501709,200.316879 285.033997,179.114319 259.616150,184.909302 
	C260.829041,185.526810 262.163788,185.628387 263.395203,186.039429 
	C266.994904,187.241013 270.553436,188.565994 273.654755,190.664780 
M327.024231,295.748749 
	C327.121643,297.122345 327.219086,298.495911 327.328217,300.034515 
	C331.996765,297.844513 335.429321,291.858826 335.928925,285.153778 
	C336.352509,283.863831 336.776093,282.573853 337.636688,279.952942 
	C338.091003,283.039459 337.965332,284.828918 338.658569,286.206116 
	C339.470459,287.819031 340.831177,289.992340 342.253204,290.246368 
	C343.970764,290.553131 347.201111,289.573822 347.691864,288.329163 
	C349.884430,282.767975 346.245270,278.625488 343.339417,274.330109 
	C340.826569,270.615692 338.364288,272.602386 335.655182,273.857697 
	C333.859955,274.689514 331.905212,275.556580 329.981567,275.660278 
	C324.332123,275.964874 322.553864,279.074310 322.340240,283.928955 
	C320.523163,278.732025 314.585510,282.516052 312.037506,278.582581 
	C307.347046,285.838867 301.075165,289.622986 292.945618,290.257874 
	C292.327454,290.306183 291.398895,290.421753 291.171295,290.822357 
	C287.750519,296.843018 281.759094,296.626099 275.229187,296.997101 
	C273.043915,297.110046 270.858643,297.223022 267.487244,297.397308 
	C274.357819,302.314789 280.846222,304.347473 287.964905,304.104584 
	C295.644135,303.842529 303.294586,302.647614 310.791748,305.828186 
	C312.921356,306.731659 315.699097,306.271393 318.169128,306.172852 
	C322.788971,305.988495 325.644379,303.854523 325.783447,298.052307 
	C325.201080,294.733124 324.618683,291.413910 324.804718,288.014557 
	C325.589966,290.320923 326.375244,292.627289 327.024231,295.748749 
M243.528702,208.991013 
	C250.461212,202.718933 258.788940,200.061646 268.257812,199.796310 
	C261.115814,194.411331 248.615112,195.052658 240.628372,200.966400 
	C233.769409,206.045090 230.379822,214.793427 232.653381,221.355042 
	C236.085724,217.425095 239.552216,213.456024 243.528702,208.991013 
M283.911682,229.661880 
	C284.959229,228.640427 286.769684,227.702759 286.893005,226.579803 
	C287.138306,224.346069 287.013458,221.682922 285.935669,219.846008 
	C285.338623,218.828415 281.621765,218.241943 280.862518,219.004944 
	C279.188843,220.686829 277.407257,223.529007 277.743927,225.552582 
	C278.026031,227.247879 281.250427,228.453598 283.911682,229.661880 
M262.764160,276.997284 
	C261.057739,277.362030 259.351349,277.726776 257.644928,278.091522 
	C261.480988,279.084198 265.203125,279.513306 268.783844,278.984650 
	C274.294281,278.171143 279.291260,277.754913 281.387756,285.070831 
	C283.960236,278.527161 281.850220,275.411285 276.087402,275.886017 
	C271.938751,276.227753 267.793091,276.606323 262.764160,276.997284 
M210.653290,232.076324 
	C211.614838,233.626678 212.576370,235.177017 213.836182,237.208282 
	C214.725632,234.283630 215.342575,232.255005 215.959518,230.226364 
	C215.728531,229.779434 215.497528,229.332489 215.266541,228.885559 
	C213.682358,229.721786 212.098190,230.558014 210.653290,232.076324 
M302.191254,251.634644 
	C304.364044,252.211853 306.536804,252.789078 309.128906,253.477692 
	C306.022278,247.226059 305.236298,247.036285 299.625610,250.688904 
	C300.270935,250.907516 300.892700,251.118134 302.191254,251.634644 
z"/>
<path fill="#343434" opacity="1.000000" stroke="none" 
	d="
M107.005890,61.942295 
	C107.005753,56.944817 107.145729,51.941959 106.954071,46.951839 
	C106.835022,43.852352 108.076302,43.106121 111.025871,42.918755 
	C119.498421,42.380554 127.231369,44.855103 134.373642,48.818336 
	C156.681091,61.196686 168.311111,80.633461 170.919617,105.753204 
	C170.967880,106.218048 170.731018,106.712502 170.449371,108.016296 
	C165.074356,108.335205 159.514053,108.665108 153.086853,108.869751 
	C150.590546,108.649086 148.961151,108.553680 147.207260,108.450989 
	C143.494705,86.048195 131.982727,71.369194 108.361298,68.322609 
	C107.944954,66.362747 107.475418,64.152519 107.005890,61.942295 
z"/>
<path fill="#333333" opacity="1.000000" stroke="none" 
	d="
M112.994308,152.053452 
	C113.110245,153.347900 113.226181,154.642365 113.340714,155.921112 
	C96.702576,159.496307 80.134888,155.304077 66.240585,138.566437 
	C54.717503,124.685272 51.577080,99.086723 62.605518,82.489586 
	C64.406410,83.260246 66.226425,84.039101 68.409851,85.236015 
	C72.511101,88.134186 76.248940,90.614281 80.021423,93.496529 
	C79.646614,95.660172 79.247650,97.424179 78.825836,99.182709 
	C77.173370,106.071686 77.174797,112.822075 80.179039,119.425659 
	C86.252831,132.776413 97.055763,138.198456 111.190186,138.539795 
	C111.788040,143.317871 112.391174,147.685669 112.994308,152.053452 
z"/>
<path fill="#CCCCCC" opacity="1.000000" stroke="none" 
	d="
M79.986778,93.094376 
	C76.248940,90.614281 72.511101,88.134186 68.738815,85.288864 
	C75.107544,74.007065 84.402229,66.883995 96.685921,63.787170 
	C99.797569,63.002697 103.000519,62.580372 106.583702,61.966965 
	C107.475418,64.152519 107.944954,66.362747 108.361298,68.322609 
	C131.982727,71.369194 143.494705,86.048195 147.207260,108.450989 
	C148.961151,108.553680 150.590546,108.649086 152.626556,108.870071 
	C151.853638,132.560364 134.393433,150.121704 113.418625,152.030670 
	C112.391174,147.685669 111.788040,143.317871 111.516548,138.336151 
	C129.018433,134.594269 138.602463,120.545219 138.093826,107.077454 
	C137.639130,95.037514 132.322815,86.155052 121.979599,80.607635 
	C111.589630,75.035133 100.954811,75.506546 91.252960,82.419899 
	C87.080666,85.393005 83.717529,89.501640 79.986778,93.094376 
z"/>
<path fill="#D7D7D7" opacity="1.000000" stroke="none" 
	d="
M308.974976,37.000648 
	C313.848816,37.414730 318.443848,37.175587 322.514404,38.521996 
	C324.511261,39.182487 326.793121,42.775654 326.810547,45.057903 
	C327.080475,80.374809 327.022125,115.694412 326.973358,151.013306 
	C326.966583,155.921982 323.901581,158.968643 318.993011,158.974976 
	C283.674103,159.020569 248.355087,159.019669 213.036194,158.975586 
	C208.116165,158.969452 205.034775,155.939651 205.027771,151.043549 
	C204.977173,115.724670 204.979874,80.405663 205.024765,45.086758 
	C205.030960,40.203129 209.086853,37.010384 215.018127,37.007504 
	C245.339127,36.992771 275.660126,37.000671 305.981110,37.000652 
	C306.814087,37.000652 307.647095,37.000648 308.974976,37.000648 
M325.000610,118.500000 
	C325.000671,94.678345 325.010010,70.856682 324.993927,47.035034 
	C324.990112,41.376591 323.108368,39.039379 318.105560,39.030930 
	C283.622589,38.972694 249.139389,38.968624 214.656433,39.036816 
	C209.959518,39.046104 207.029663,41.773388 207.024506,45.897022 
	C206.980927,80.713226 206.982239,115.529533 207.022614,150.345734 
	C207.027649,154.687088 209.473724,156.977097 213.769547,156.981277 
	C248.585770,157.015137 283.402100,157.027817 318.218231,156.967667 
	C322.953339,156.959488 324.985107,154.685150 324.994293,149.985031 
	C325.014160,139.823395 325.000549,129.661682 325.000610,118.500000 
z"/>
<path fill="#D7D7D7" opacity="1.000000" stroke="none" 
	d="
M175.001633,214.027542 
	C175.001572,255.349030 175.003250,296.175934 174.999878,337.002838 
	C174.999268,344.500549 173.524948,345.999176 166.202774,345.999237 
	C132.041489,345.999542 97.880203,346.002045 63.718922,345.997040 
	C56.808311,345.996033 55.003586,344.192261 55.002903,337.285400 
	C54.998589,293.792267 54.999004,250.299103 55.002693,206.805954 
	C55.003227,200.515717 56.534218,199.002869 62.883282,199.002304 
	C97.377853,198.999176 131.872421,199.000443 166.366989,199.000992 
	C173.748062,199.001114 174.998672,200.238388 175.001450,207.533783 
	C175.002197,209.533508 175.001602,211.533234 175.001633,214.027542 
M172.998367,318.499969 
	C172.998367,281.690857 172.999100,244.881760 172.997665,208.072647 
	C172.997421,201.792007 171.212540,200.011276 164.787247,200.005127 
	C147.298767,199.988358 129.810257,199.999390 112.321770,199.999374 
	C96.498848,199.999374 80.675896,199.981262 64.853020,200.009064 
	C59.233738,200.018936 57.007595,201.997971 57.006241,206.940308 
	C56.994255,250.744827 57.016621,294.549377 56.966816,338.353821 
	C56.962769,341.913727 57.952042,344.031433 61.968094,344.026398 
	C97.278137,343.982208 132.588272,343.986145 167.898331,344.023193 
	C171.410736,344.026886 173.071274,342.576202 173.023636,338.986786 
	C172.937485,332.492218 172.998703,325.995667 172.998367,318.499969 
z"/>
<path fill="#FAFAFA" opacity="1.000000" stroke="none" 
	d="
M302.001495,253.986847 
	C306.068817,254.995880 310.136169,256.004913 314.350067,257.344330 
	C313.660828,259.167175 312.824982,260.659607 311.989166,262.152039 
	C312.712219,262.457672 313.435272,262.763275 314.158325,263.068909 
	C314.773315,261.129791 315.388275,259.190643 316.003235,257.251526 
	C323.971497,256.771088 331.939789,256.290649 340.500763,255.774460 
	C339.152161,260.798706 331.728790,257.795990 332.634979,263.768127 
	C333.017792,264.031982 332.985657,263.959930 332.775574,263.681396 
	C332.357239,263.984924 332.149017,264.566986 331.751923,265.421906 
	C326.586029,269.436615 321.036224,271.424011 314.758270,271.180939 
	C314.350189,270.798553 313.942078,270.416199 313.266754,269.560852 
	C312.832825,267.938995 312.666138,266.790131 312.412079,265.039215 
	C309.628204,269.490295 309.113190,269.521118 304.132721,268.268066 
	C302.519531,267.862213 300.196106,265.246460 299.018402,269.266907 
	C299.385681,269.742706 299.718567,269.903595 300.028534,270.030823 
	C300.005585,269.997223 299.932373,269.961670 299.932373,269.961670 
	C301.117554,271.118958 302.302734,272.276276 303.240967,273.733276 
	C302.993988,274.033020 302.958923,274.004059 302.958923,274.004059 
	C297.847534,276.070251 292.793396,278.310089 287.568909,280.033508 
	C286.687317,280.324280 285.055420,278.408356 283.797729,277.474884 
	C282.070709,276.193054 280.333313,273.718262 278.664215,273.771088 
	C270.776886,274.020782 262.911285,274.957642 254.348404,275.710144 
	C253.793472,272.507568 253.215393,269.171478 253.039520,265.510315 
	C272.808289,272.444214 290.535126,268.356232 302.001495,253.986847 
z"/>
<path fill="#FCFCFC" opacity="1.000000" stroke="none" 
	d="
M324.036285,288.094727 
	C324.618683,291.413910 325.201080,294.733124 325.317322,298.507751 
	C317.971466,303.632141 310.764954,302.426605 303.409821,300.349762 
	C300.933136,299.650452 298.259338,299.388397 295.675446,299.387573 
	C291.232697,299.386108 286.771271,300.069550 282.354980,299.815887 
	C280.217072,299.693085 278.163818,298.096832 276.072235,297.167694 
	C281.759094,296.626099 287.750519,296.843018 291.171295,290.822357 
	C291.398895,290.421753 292.327454,290.306183 292.945618,290.257874 
	C301.075165,289.622986 307.347046,285.838867 312.037506,278.582581 
	C314.585510,282.516052 320.523163,278.732025 322.845459,284.374878 
	C323.579193,285.912140 323.807739,287.003418 324.036285,288.094727 
z"/>
<path fill="#FAFAFA" opacity="1.000000" stroke="none" 
	d="
M241.948837,257.868622 
	C247.221481,258.035126 249.760727,260.504395 249.964996,266.606873 
	C246.303223,267.002106 243.155930,266.954681 240.013992,266.553711 
	C240.152023,264.903229 240.284698,263.606293 240.417389,262.309357 
	C239.982162,262.080597 239.546951,261.851807 239.111740,261.623016 
	C238.072876,263.001801 237.034027,264.380615 235.995178,265.759399 
	C235.258652,266.015350 234.522156,266.271332 233.296326,266.222290 
	C230.494339,264.994751 228.181686,264.072205 225.869034,263.149658 
	C225.869034,263.149658 225.992538,262.998779 225.979858,262.717072 
	C221.812225,257.801575 217.940552,253.085007 220.796646,246.202484 
	C220.971725,245.780624 220.805801,245.217285 220.798523,244.719772 
	C221.033875,240.551544 221.659149,236.240829 216.249466,233.880249 
	C221.357025,233.163925 225.188950,234.872025 227.837265,238.182541 
	C232.059357,243.460297 235.758911,249.159164 239.596100,254.737274 
	C240.013367,255.343842 239.882126,256.327728 239.902191,257.814087 
	C239.983307,259.247040 240.167526,260.002502 240.351746,260.757935 
	C240.884109,259.794830 241.416473,258.831726 241.948837,257.868622 
z"/>
<path fill="#F6F6F6" opacity="1.000000" stroke="none" 
	d="
M324.420502,288.054626 
	C323.807739,287.003418 323.579193,285.912140 323.213196,284.511444 
	C322.553864,279.074310 324.332123,275.964874 329.981567,275.660278 
	C331.905212,275.556580 333.859955,274.689514 335.655182,273.857697 
	C338.364288,272.602386 340.826569,270.615692 343.339417,274.330109 
	C346.245270,278.625488 349.884430,282.767975 347.691864,288.329163 
	C347.201111,289.573822 343.970764,290.553131 342.253204,290.246368 
	C340.831177,289.992340 339.470459,287.819031 338.658569,286.206116 
	C337.965332,284.828918 338.091003,283.039459 337.636688,279.952942 
	C336.776093,282.573853 336.352509,283.863831 335.500305,285.558289 
	C333.987213,287.377289 332.980927,288.861450 331.798401,290.188538 
	C330.328583,291.838074 328.713074,293.357849 327.160492,294.933655 
	C326.375244,292.627289 325.589966,290.320923 324.420502,288.054626 
z"/>
<path fill="#F4F4F4" opacity="1.000000" stroke="none" 
	d="
M274.128082,189.842636 
	C270.553436,188.565994 266.994904,187.241013 263.395203,186.039429 
	C262.163788,185.628387 260.829041,185.526810 259.616150,184.909302 
	C285.033997,179.114319 304.501709,200.316879 305.562622,219.414612 
	C303.682129,219.414612 301.798676,219.414612 301.220215,219.414612 
	C296.907593,212.259293 292.888214,205.590515 288.471375,198.533768 
	C286.887177,197.406815 285.700439,196.667847 284.560913,195.550385 
	C281.087585,193.428864 277.567078,191.685867 274.078247,189.927002 
	C274.109955,189.911133 274.128082,189.842636 274.128082,189.842636 
z"/>
<path fill="#BDBDBD" opacity="1.000000" stroke="none" 
	d="
M301.741150,253.735992 
	C290.535126,268.356232 272.808289,272.444214 253.071167,265.084351 
	C252.523331,264.221161 252.346008,263.458801 252.059250,262.225830 
	C268.301361,266.631165 282.653900,264.026886 294.983032,252.355225 
	C294.990662,251.996277 295.010681,252.035690 295.010681,252.035690 
	C297.167389,252.518845 299.324127,253.001999 301.741150,253.735992 
z"/>
<path fill="#949494" opacity="1.000000" stroke="none" 
	d="
M243.273712,209.238983 
	C239.552216,213.456024 236.085724,217.425095 232.653381,221.355042 
	C230.379822,214.793427 233.769409,206.045090 240.628372,200.966400 
	C248.615112,195.052658 261.115814,194.411331 268.257812,199.796310 
	C258.788940,200.061646 250.461212,202.718933 243.273712,209.238983 
z"/>
<path fill="#BFBFBF" opacity="1.000000" stroke="none" 
	d="
M275.650696,297.082397 
	C278.163818,298.096832 280.217072,299.693085 282.354980,299.815887 
	C286.771271,300.069550 291.232697,299.386108 295.675446,299.387573 
	C298.259338,299.388397 300.933136,299.650452 303.409821,300.349762 
	C310.764954,302.426605 317.971466,303.632141 325.195190,298.899963 
	C325.644379,303.854523 322.788971,305.988495 318.169128,306.172852 
	C315.699097,306.271393 312.921356,306.731659 310.791748,305.828186 
	C303.294586,302.647614 295.644135,303.842529 287.964905,304.104584 
	C280.846222,304.347473 274.357819,302.314789 267.487244,297.397308 
	C270.858643,297.223022 273.043915,297.110046 275.650696,297.082397 
z"/>
<path fill="#E4E4E4" opacity="1.000000" stroke="none" 
	d="
M303.481384,274.199890 
	C302.958923,274.004059 302.993988,274.033020 302.980164,274.035309 
	C304.086304,274.091339 305.220001,274.054779 306.322601,274.222565 
	C307.588043,274.415161 308.825928,274.788818 310.078033,275.084351 
	C307.824493,284.091553 295.126251,290.811523 287.115509,287.359680 
	C285.926544,286.847351 285.139862,285.401306 284.167084,284.387238 
	C285.305756,283.666962 286.357300,282.678345 287.598969,282.275299 
	C291.815979,280.906311 296.193848,279.984375 300.309662,278.377686 
	C301.827881,277.785065 302.788788,275.764832 303.481384,274.199890 
z"/>
<path fill="#E4E4E4" opacity="1.000000" stroke="none" 
	d="
M284.513733,195.928879 
	C285.700439,196.667847 286.887177,197.406815 288.094696,198.134857 
	C288.747101,199.859970 289.240143,201.662674 290.037079,203.319183 
	C292.181091,207.775650 294.565887,212.119339 296.607056,216.620255 
	C297.192932,217.912201 296.935089,219.586746 296.586975,221.228149 
	C287.510620,195.235199 270.110168,185.018799 243.131256,191.820648 
	C253.199814,185.707794 263.394531,187.334122 273.891418,190.253708 
	C274.128082,189.842636 274.109955,189.911133 273.872131,190.269928 
	C277.260803,192.395447 280.887268,194.162170 284.513733,195.928879 
z"/>
<path fill="#EFEFEF" opacity="1.000000" stroke="none" 
	d="
M271.918976,291.070374 
	C271.992401,291.488770 272.065857,291.907196 271.756897,292.648346 
	C269.669373,292.666687 267.964233,292.362274 266.259094,292.057861 
	C266.045563,290.311005 265.832031,288.564178 265.328369,286.210815 
	C264.505219,285.061981 263.972260,284.519714 263.439270,283.977417 
	C261.576019,283.977417 259.712769,283.977417 257.012909,283.977417 
	C256.818665,283.704712 256.019806,282.583099 255.099380,281.290833 
	C255.791351,281.107666 256.222046,280.906891 256.659424,280.891022 
	C262.628387,280.674438 268.677887,279.863434 274.525574,280.615082 
	C276.635162,280.886200 278.260681,284.923553 279.888123,287.762085 
	C277.743195,289.546204 275.817169,290.810486 273.891174,292.074738 
	C273.573853,291.697266 273.256500,291.319763 272.668243,290.445618 
	C271.917145,289.820068 271.436951,289.691193 270.956787,289.562347 
	C271.277527,290.065033 271.598236,290.567688 271.918976,291.070374 
M272.566772,283.540680 
	C272.065094,283.680756 271.563446,283.820831 271.061768,283.960876 
	C271.850616,285.311371 272.639496,286.661865 273.428345,288.012329 
	C273.688660,287.872498 273.948944,287.732635 274.209259,287.592773 
	C273.788055,286.402466 273.366821,285.212189 272.566772,283.540680 
z"/>
<path fill="#FAFAFA" opacity="1.000000" stroke="none" 
	d="
M297.211731,237.911758 
	C297.858765,235.197968 298.505798,232.484192 299.086365,229.371246 
	C299.019897,228.972061 299.060669,229.014359 299.060669,229.014359 
	C301.937653,228.136093 305.699127,225.745743 307.459900,226.775711 
	C309.500214,227.969177 309.782227,232.168625 310.371765,235.523697 
	C306.111206,239.460403 301.848297,239.917328 297.211731,237.911758 
z"/>
<path fill="#F8F8F8" opacity="1.000000" stroke="none" 
	d="
M316.728607,308.613037 
	C320.741882,307.337250 324.755157,306.061432 329.792328,304.460144 
	C329.792328,307.607880 329.792328,311.168091 329.081116,314.940979 
	C323.020569,315.587860 318.385834,314.750214 316.728607,308.613037 
z"/>
<path fill="#B6B6B6" opacity="1.000000" stroke="none" 
	d="
M316.374329,308.496033 
	C318.385834,314.750214 323.020569,315.587860 328.820557,315.195679 
	C325.643707,318.949066 322.546021,319.064636 318.084320,314.388641 
	C315.078766,311.238708 312.653351,310.394958 308.471436,312.016510 
	C305.495056,313.170593 301.856812,312.617737 298.402100,311.700165 
	C299.612885,311.027740 300.823669,310.355347 301.995514,309.332336 
	C301.956573,308.981750 301.964996,309.034454 302.288605,309.206085 
	C303.089966,308.918823 303.567749,308.459961 304.024536,307.992554 
	C304.003510,307.984009 304.005188,308.027954 304.005188,308.027954 
	C308.010162,308.144989 312.015106,308.262024 316.374329,308.496033 
z"/>
<path fill="#949494" opacity="1.000000" stroke="none" 
	d="
M283.541870,229.768982 
	C281.250427,228.453598 278.026031,227.247879 277.743927,225.552582 
	C277.407257,223.529007 279.188843,220.686829 280.862518,219.004944 
	C281.621765,218.241943 285.338623,218.828415 285.935669,219.846008 
	C287.013458,221.682922 287.138306,224.346069 286.893005,226.579803 
	C286.769684,227.702759 284.959229,228.640427 283.541870,229.768982 
z"/>
<path fill="#AFAFAF" opacity="1.000000" stroke="none" 
	d="
M284.020142,253.990128 
	C278.509644,256.124634 273.141144,258.869904 267.442383,260.194489 
	C263.120514,261.199036 258.377960,260.393646 253.684204,259.626465 
	C268.125580,259.849823 280.738190,256.105225 290.607605,244.526886 
	C290.531372,245.522507 290.455139,246.518127 290.686646,247.755508 
	C290.994354,247.997269 291.032471,248.018173 290.757477,247.724731 
	C288.319305,249.633011 286.156097,251.834717 283.987549,254.017136 
	C283.982178,253.997849 284.020142,253.990128 284.020142,253.990128 
z"/>
<path fill="#BFBFBF" opacity="1.000000" stroke="none" 
	d="
M220.595398,244.617950 
	C220.805801,245.217285 220.971725,245.780624 220.796646,246.202484 
	C217.940552,253.085007 221.812225,257.801575 225.914795,262.790344 
	C221.174194,259.115234 216.485931,255.085129 211.979492,250.664825 
	C213.757324,249.681488 216.817719,250.223190 214.819412,246.844620 
	C214.581406,246.121613 214.343399,245.398621 214.392273,244.362701 
	C216.194550,244.018967 217.709946,243.988129 219.225342,243.957306 
	C219.614319,244.143585 220.003296,244.329865 220.595398,244.617950 
z"/>
<path fill="#BFBFBF" opacity="1.000000" stroke="none" 
	d="
M314.836945,271.575989 
	C321.036224,271.424011 326.586029,269.436615 332.014038,265.362061 
	C332.644043,265.020813 332.823059,265.012268 332.984253,265.374695 
	C333.971863,267.473267 334.977264,269.200897 335.982697,270.928497 
	C330.136963,275.035095 323.520020,274.389313 316.971588,273.877167 
	C316.241028,273.820068 315.598816,272.633667 314.836945,271.575989 
z"/>
<path fill="#BDBDBD" opacity="1.000000" stroke="none" 
	d="
M297.041687,238.292114 
	C301.848297,239.917328 306.111206,239.460403 310.258423,235.917786 
	C310.017975,237.864883 310.009735,240.439529 308.718750,241.761673 
	C306.736816,243.791489 303.836487,246.264893 301.391327,246.196899 
	C297.443298,246.087097 296.831726,242.170074 297.041687,238.292114 
z"/>
<path fill="#F4F4F4" opacity="1.000000" stroke="none" 
	d="
M336.331238,270.874359 
	C334.977264,269.200897 333.971863,267.473267 333.138184,265.111267 
	C333.201813,264.304535 333.093719,264.132233 332.985657,263.959930 
	C332.985657,263.959930 333.017792,264.031982 332.986084,264.054840 
	C336.972656,262.372986 340.990967,260.668304 345.009277,258.963593 
	C345.414886,259.315247 345.820496,259.666931 346.226105,260.018585 
	C344.839233,261.673645 343.452332,263.328674 342.063171,264.986481 
	C342.057434,264.983215 342.860809,265.438538 344.500854,266.368073 
	C341.607727,268.014984 339.143768,269.417603 336.331238,270.874359 
z"/>
<path fill="#EFEFEF" opacity="1.000000" stroke="none" 
	d="
M299.047913,228.987579 
	C297.685547,231.050217 296.295166,233.097305 294.442017,235.502045 
	C293.071198,235.871994 292.163086,235.884338 291.255005,235.896667 
	C290.889496,226.261627 298.735657,219.452591 305.543152,222.686325 
	C303.233734,224.566727 300.727417,226.607422 298.640900,228.831238 
	C299.060669,229.014359 299.019897,228.972061 299.047913,228.987579 
z"/>
<path fill="#EFEFEF" opacity="1.000000" stroke="none" 
	d="
M263.205139,276.982880 
	C267.793091,276.606323 271.938751,276.227753 276.087402,275.886017 
	C281.850220,275.411285 283.960236,278.527161 281.387756,285.070831 
	C279.291260,277.754913 274.294281,278.171143 268.783844,278.984650 
	C265.203125,279.513306 261.480988,279.084198 257.644928,278.091522 
	C259.351349,277.726776 261.057739,277.362030 263.205139,276.982880 
z"/>
<path fill="#BDBDBD" opacity="1.000000" stroke="none" 
	d="
M240.008636,266.907288 
	C243.155930,266.954681 246.303223,267.002106 249.932312,267.025757 
	C250.673508,268.549225 250.932907,270.096466 251.393173,272.842010 
	C245.752762,271.403839 241.029526,270.206360 236.329071,268.925323 
	C236.268494,268.908783 236.498184,267.827118 237.236084,267.084290 
	C238.589401,266.919678 239.299026,266.913483 240.008636,266.907288 
z"/>
<path fill="#AFAFAF" opacity="1.000000" stroke="none" 
	d="
M301.980774,308.970947 
	C296.753448,309.872223 291.474945,310.961243 286.503601,306.696869 
	C291.321808,306.120667 295.625946,305.416351 299.953583,305.213348 
	C301.128479,305.158234 302.374390,306.616486 303.796448,307.704041 
	C304.005188,308.027954 304.003510,307.984009 303.708557,307.811127 
	C302.930756,308.103668 302.447876,308.569061 301.964996,309.034454 
	C301.964996,309.034454 301.956573,308.981750 301.980774,308.970947 
z"/>
<path fill="#E5E5E5" opacity="1.000000" stroke="none" 
	d="
M219.136307,243.595535 
	C217.709946,243.988129 216.194550,244.018967 214.227478,244.100250 
	C211.693954,243.625290 209.538300,243.283386 207.564499,242.489349 
	C206.705887,242.143951 205.613876,240.771835 205.731323,240.044144 
	C205.857040,239.265289 207.240921,238.220444 208.149368,238.141663 
	C209.698761,238.007294 211.503204,238.163254 212.843933,238.871902 
	C215.060867,240.043671 216.994339,241.751724 219.136307,243.595535 
z"/>
<path fill="#BDBDBD" opacity="1.000000" stroke="none" 
	d="
M327.092346,295.341187 
	C328.713074,293.357849 330.328583,291.838074 331.798401,290.188538 
	C332.980927,288.861450 333.987213,287.377289 335.413361,285.932739 
	C335.429321,291.858826 331.996765,297.844513 327.328217,300.034515 
	C327.219086,298.495911 327.121643,297.122345 327.092346,295.341187 
z"/>
<path fill="#B6B6B6" opacity="1.000000" stroke="none" 
	d="
M295.008118,252.008728 
	C293.711517,252.494446 292.302185,252.798111 291.101227,253.472702 
	C287.465149,255.515076 283.909821,257.701202 280.323029,259.831299 
	C280.123474,259.478027 279.923920,259.124756 279.724365,258.771484 
	C281.360413,257.363007 282.996429,255.954514 284.326294,254.268082 
	C284.020142,253.990128 283.982178,253.997849 284.249268,254.344025 
	C286.688385,252.466202 288.860413,250.242188 291.032471,248.018173 
	C291.032471,248.018173 290.994354,247.997269 290.988586,248.017593 
	C293.468536,247.813904 295.849915,247.693878 294.687256,251.732529 
	C295.010681,252.035690 294.990662,251.996277 295.008118,252.008728 
z"/>
<path fill="#F8F8F8" opacity="1.000000" stroke="none" 
	d="
M298.984009,268.952026 
	C300.196106,265.246460 302.519531,267.862213 304.132721,268.268066 
	C309.113190,269.521118 309.628204,269.490295 312.412079,265.039215 
	C312.666138,266.790131 312.832825,267.938995 313.000183,269.466003 
	C312.601135,270.664368 312.201416,271.484619 311.524963,272.872894 
	C308.423553,271.936096 304.548431,270.765625 300.302856,269.778412 
	C299.932373,269.961670 300.005585,269.997223 300.093567,269.704712 
	C299.782379,269.258820 299.383179,269.105438 298.984009,268.952026 
z"/>
<path fill="#BDBDBD" opacity="1.000000" stroke="none" 
	d="
M274.008972,292.435944 
	C275.817169,290.810486 277.743195,289.546204 279.979095,288.112579 
	C281.503143,289.621704 282.717316,291.300232 284.293182,293.478760 
	C280.404175,294.622498 277.135010,297.016235 274.008972,292.435944 
z"/>
<path fill="#EFEFEF" opacity="1.000000" stroke="none" 
	d="
M214.446259,246.832153 
	C216.817719,250.223190 213.757324,249.681488 211.773010,250.400467 
	C209.083862,249.217804 206.783035,247.909271 204.482193,246.600754 
	C204.789841,245.908554 205.097488,245.216370 205.405136,244.524170 
	C208.294464,245.289352 211.183777,246.054520 214.446259,246.832153 
z"/>
<path fill="#B6B6B6" opacity="1.000000" stroke="none" 
	d="
M291.140472,236.297852 
	C292.163086,235.884338 293.071198,235.871994 294.320557,235.862167 
	C295.135773,238.885620 295.609680,241.906570 295.989197,245.531509 
	C295.766968,246.291321 295.639099,246.447159 295.511261,246.603012 
	C291.809601,244.300995 290.849457,240.757416 291.140472,236.297852 
z"/>
<path fill="#E4E4E4" opacity="1.000000" stroke="none" 
	d="
M210.583649,231.735291 
	C212.098190,230.558014 213.682358,229.721786 215.266541,228.885559 
	C215.497528,229.332489 215.728531,229.779434 215.959518,230.226364 
	C215.342575,232.255005 214.725632,234.283630 213.836182,237.208282 
	C212.576370,235.177017 211.614838,233.626678 210.583649,231.735291 
z"/>
<path fill="#E4E4E4" opacity="1.000000" stroke="none" 
	d="
M301.852844,251.481705 
	C300.892700,251.118134 300.270935,250.907516 299.625610,250.688904 
	C305.236298,247.036285 306.022278,247.226059 309.128906,253.477692 
	C306.536804,252.789078 304.364044,252.211853 301.852844,251.481705 
z"/>
<path fill="#E5E5E5" opacity="1.000000" stroke="none" 
	d="
M265.902710,292.086060 
	C267.964233,292.362274 269.669373,292.666687 271.756805,292.968506 
	C272.182495,293.596100 272.225891,294.226318 272.269257,294.856537 
	C269.866333,294.562195 267.463440,294.267853 265.060516,293.973541 
	C265.222443,293.353790 265.384369,292.734039 265.902710,292.086060 
z"/>
<path fill="#F6F6F6" opacity="1.000000" stroke="none" 
	d="
M240.013992,266.553711 
	C239.299026,266.913483 238.589401,266.919678 237.527374,266.970978 
	C236.974533,266.676697 236.774094,266.337311 236.284424,265.878662 
	C237.034027,264.380615 238.072876,263.001801 239.111740,261.623016 
	C239.546951,261.851807 239.982162,262.080597 240.417389,262.309357 
	C240.284698,263.606293 240.152023,264.903229 240.013992,266.553711 
z"/>
<path fill="#F8F8F8" opacity="1.000000" stroke="none" 
	d="
M315.746277,257.178772 
	C315.388275,259.190643 314.773315,261.129791 314.158325,263.068909 
	C313.435272,262.763275 312.712219,262.457672 311.989166,262.152039 
	C312.824982,260.659607 313.660828,259.167175 314.729736,257.435791 
	C315.138306,257.166565 315.313782,257.136292 315.746277,257.178772 
z"/>
<path fill="#BFBFBF" opacity="1.000000" stroke="none" 
	d="
M225.996094,263.460876 
	C228.181686,264.072205 230.494339,264.994751 232.911240,266.283905 
	C230.718033,265.691071 228.420578,264.731598 225.996094,263.460876 
z"/>
<path fill="#F6F6F6" opacity="1.000000" stroke="none" 
	d="
M241.635406,257.922424 
	C241.416473,258.831726 240.884109,259.794830 240.351746,260.757935 
	C240.167526,260.002502 239.983307,259.247040 239.928528,258.183960 
	C240.479309,257.909637 240.900635,257.942902 241.635406,257.922424 
z"/>
<path fill="#E5E5E5" opacity="1.000000" stroke="none" 
	d="
M263.282959,284.215057 
	C263.972260,284.519714 264.505219,285.061981 265.052002,285.859131 
	C264.419373,285.560211 263.773010,285.006439 263.282959,284.215057 
z"/>
<path fill="#000000" opacity="1.000000" stroke="none" 
	d="
M225.005142,230.999481 
	C225.190598,231.413971 225.301086,231.890976 225.411591,232.367996 
	C225.227600,232.127808 225.043625,231.887619 224.819672,231.416901 
	C224.779678,231.186386 224.930191,231.062027 225.005142,230.999481 
z"/>
<path fill="#B6B6B6" opacity="1.000000" stroke="none" 
	d="
M296.101929,245.915222 
	C296.464417,246.039597 296.619781,246.384247 296.775146,246.728897 
	C296.511444,246.785706 296.247772,246.842499 295.747681,246.751160 
	C295.639099,246.447159 295.766968,246.291321 296.101929,245.915222 
z"/>
<path fill="#000000" opacity="1.000000" stroke="none" 
	d="
M80.021423,93.496529 
	C83.717529,89.501640 87.080666,85.393005 91.252960,82.419899 
	C100.954811,75.506546 111.589630,75.035133 121.979599,80.607635 
	C132.322815,86.155052 137.639130,95.037514 138.093826,107.077454 
	C138.602463,120.545219 129.018433,134.594269 111.521820,137.925873 
	C97.055763,138.198456 86.252831,132.776413 80.179039,119.425659 
	C77.174797,112.822075 77.173370,106.071686 78.825836,99.182709 
	C79.247650,97.424179 79.646614,95.660172 80.021423,93.496529 
z"/>
<path fill="#000000" opacity="1.000000" stroke="none" 
	d="
M325.000610,119.000000 
	C325.000549,129.661682 325.014160,139.823395 324.994293,149.985031 
	C324.985107,154.685150 322.953339,156.959488 318.218231,156.967667 
	C283.402100,157.027817 248.585770,157.015137 213.769547,156.981277 
	C209.473724,156.977097 207.027649,154.687088 207.022614,150.345734 
	C206.982239,115.529533 206.980927,80.713226 207.024506,45.897022 
	C207.029663,41.773388 209.959518,39.046104 214.656433,39.036816 
	C249.139389,38.968624 283.622589,38.972694 318.105560,39.030930 
	C323.108368,39.039379 324.990112,41.376591 324.993927,47.035034 
	C325.010010,70.856682 325.000671,94.678345 325.000610,119.000000 
M298.989136,130.015427 
	C300.486603,130.010849 301.984039,130.003494 303.481506,130.002213 
	C309.998596,129.996643 310.000916,129.997284 310.001282,123.458847 
	C310.002441,102.826981 309.823608,82.192642 310.110809,61.564777 
	C310.196381,55.420334 308.718628,53.958282 302.328491,53.977386 
	C282.528748,54.036587 262.728699,53.998703 242.928772,53.999180 
	C234.364777,53.999382 233.025192,55.347530 232.071381,64.001785 
	C231.240204,64.002052 230.409012,64.002457 229.577835,64.002563 
	C221.004929,64.003685 221.002335,64.003670 221.001724,72.392014 
	C221.000229,93.005409 220.991791,113.618820 221.007034,134.232208 
	C221.011841,140.739883 222.287720,141.991974 228.890610,141.996750 
	C247.841629,142.010483 266.792664,142.001648 285.743683,142.001663 
	C297.756805,142.001663 297.756805,142.001663 298.989136,130.015427 
z"/>
<path fill="#000000" opacity="1.000000" stroke="none" 
	d="
M172.998367,318.999939 
	C172.998703,325.995667 172.937485,332.492218 173.023636,338.986786 
	C173.071274,342.576202 171.410736,344.026886 167.898331,344.023193 
	C132.588272,343.986145 97.278137,343.982208 61.968094,344.026398 
	C57.952042,344.031433 56.962769,341.913727 56.966816,338.353821 
	C57.016621,294.549377 56.994255,250.744827 57.006241,206.940308 
	C57.007595,201.997971 59.233738,200.018936 64.853020,200.009064 
	C80.675896,199.981262 96.498848,199.999374 112.321770,199.999374 
	C129.810257,199.999390 147.298767,199.988358 164.787247,200.005127 
	C171.212540,200.011276 172.997421,201.792007 172.997665,208.072647 
	C172.999100,244.881760 172.998367,281.690857 172.998367,318.999939 
M166.002167,318.487061 
	C166.002167,284.832642 165.976227,251.178162 166.025742,217.523804 
	C166.034790,211.370865 164.440506,209.838226 158.802246,209.884995 
	C129.314987,210.129532 99.824295,210.068649 70.335678,209.928192 
	C65.626747,209.905762 63.909599,211.500671 63.926075,216.273972 
	C64.055466,253.759918 64.055679,291.246704 63.925892,328.732635 
	C63.909344,333.512268 65.637978,335.097809 70.341484,335.072083 
	C97.164268,334.925232 123.988274,335.000824 150.811859,335.000824 
	C166.002167,335.000824 166.002167,335.000793 166.002167,318.487061 
z"/>
<path fill="#393939" opacity="1.000000" stroke="none" 
	d="
M332.775574,263.681396 
	C333.093719,264.132233 333.201813,264.304535 333.156006,264.740295 
	C332.823059,265.012268 332.644043,265.020813 332.202881,265.089233 
	C332.149017,264.566986 332.357239,263.984924 332.775574,263.681396 
z"/>
<path fill="#393939" opacity="1.000000" stroke="none" 
	d="
M299.018402,269.266907 
	C299.383179,269.105438 299.782379,269.258820 300.116516,269.738342 
	C299.718567,269.903595 299.385681,269.742706 299.018402,269.266907 
z"/>
<path fill="#4D4D4D" opacity="1.000000" stroke="none" 
	d="
M284.560913,195.550385 
	C280.887268,194.162170 277.260803,192.395447 273.840454,190.285797 
	C277.567078,191.685867 281.087585,193.428864 284.560913,195.550385 
z"/>
<path fill="#E5E5E5" opacity="1.000000" stroke="none" 
	d="
M272.756195,283.781281 
	C273.366821,285.212189 273.788055,286.402466 274.209259,287.592773 
	C273.948944,287.732635 273.688660,287.872498 273.428345,288.012329 
	C272.639496,286.661865 271.850616,285.311371 271.061768,283.960876 
	C271.563446,283.820831 272.065094,283.680756 272.756195,283.781281 
z"/>
<path fill="#393939" opacity="1.000000" stroke="none" 
	d="
M272.092560,290.940796 
	C271.598236,290.567688 271.277527,290.065033 270.956787,289.562347 
	C271.436951,289.691193 271.917145,289.820068 272.505981,290.251434 
	C272.614655,290.553955 272.266144,290.811249 272.092560,290.940796 
z"/>
<path fill="#393939" opacity="1.000000" stroke="none" 
	d="
M302.288605,309.206085 
	C302.447876,308.569061 302.930756,308.103668 303.729584,307.819672 
	C303.567749,308.459961 303.089966,308.918823 302.288605,309.206085 
z"/>
<path fill="#393939" opacity="1.000000" stroke="none" 
	d="
M290.757477,247.724731 
	C288.860413,250.242188 286.688385,252.466202 284.254639,254.363312 
	C286.156097,251.834717 288.319305,249.633011 290.757477,247.724731 
z"/>
<path fill="#BFBFBF" opacity="1.000000" stroke="none" 
	d="
M232.986389,63.999443 
	C233.025192,55.347530 234.364777,53.999382 242.928772,53.999180 
	C262.728699,53.998703 282.528748,54.036587 302.328491,53.977386 
	C308.718628,53.958282 310.196381,55.420334 310.110809,61.564777 
	C309.823608,82.192642 310.002441,102.826981 310.001282,123.458847 
	C310.000916,129.997284 309.998596,129.996643 303.481506,130.002213 
	C301.984039,130.003494 300.486603,130.010849 298.069641,129.985748 
	C278.374603,129.925385 259.599030,129.902985 240.823547,129.859299 
	C234.653534,129.844940 233.952972,129.149460 233.946838,122.953117 
	C233.929047,105.007507 233.966034,87.061783 233.898682,69.116409 
	C233.892273,67.409637 233.304352,65.705048 232.986389,63.999443 
M254.245895,98.253036 
	C254.245895,104.451172 254.245895,110.649315 254.245895,117.083679 
	C256.453857,117.083679 258.015747,117.083679 259.972107,117.083679 
	C259.972107,110.232239 259.972107,103.678848 259.986084,96.172485 
	C259.994751,87.718460 260.141296,79.260338 259.890503,70.814018 
	C259.842896,69.210938 258.411163,66.478729 257.289276,66.296997 
	C253.910736,65.749710 254.036041,68.657616 254.039932,71.019928 
	C254.054413,79.805229 254.084793,88.590515 254.245895,98.253036 
M274.947754,83.618851 
	C274.953400,79.006989 275.172516,74.379074 274.827759,69.793571 
	C274.730988,68.506699 272.976074,67.344498 271.981720,66.125099 
	C270.992523,67.350464 269.234558,68.525467 269.150421,69.810112 
	C268.828247,74.729218 269.043884,79.683563 269.040924,85.483559 
	C269.040924,95.911102 269.040924,106.338654 269.040924,116.988647 
	C271.245880,116.988647 272.941681,116.988647 274.933807,116.988647 
	C274.933807,105.914177 274.933807,95.281792 274.947754,83.618851 
M289.419739,73.524208 
	C289.591064,72.224640 290.248840,70.723007 289.813660,69.675415 
	C289.237885,68.289474 287.806732,67.258888 286.743225,66.075562 
	C285.821960,67.297447 284.541901,68.399345 284.081696,69.775436 
	C283.633728,71.115044 284.025177,72.735359 283.977905,75.138695 
	C283.977905,89.044075 283.977905,102.949448 283.977905,116.731346 
	C288.414185,118.397003 289.801910,117.060181 289.713104,112.870918 
	C289.508820,103.231400 289.712952,93.583908 289.612732,83.941101 
	C289.578583,80.659035 289.129456,77.381279 289.419739,73.524208 
z"/>
<path fill="#565656" opacity="1.000000" stroke="none" 
	d="
M232.528900,64.000610 
	C233.304352,65.705048 233.892273,67.409637 233.898682,69.116409 
	C233.966034,87.061783 233.929047,105.007507 233.946838,122.953117 
	C233.952972,129.149460 234.653534,129.844940 240.823547,129.859299 
	C259.599030,129.902985 278.374603,129.925385 297.618469,130.038544 
	C297.756805,142.001663 297.756805,142.001663 285.743683,142.001663 
	C266.792664,142.001648 247.841629,142.010483 228.890610,141.996750 
	C222.287720,141.991974 221.011841,140.739883 221.007034,134.232208 
	C220.991791,113.618820 221.000229,93.005409 221.001724,72.392014 
	C221.002335,64.003670 221.004929,64.003685 229.577835,64.002563 
	C230.409012,64.002457 231.240204,64.002052 232.528900,64.000610 
z"/>
<path fill="#E5E5E5" opacity="1.000000" stroke="none" 
	d="
M166.002167,318.983582 
	C166.002167,335.000793 166.002167,335.000824 150.811859,335.000824 
	C123.988274,335.000824 97.164268,334.925232 70.341484,335.072083 
	C65.637978,335.097809 63.909344,333.512268 63.925892,328.732635 
	C64.055679,291.246704 64.055466,253.759918 63.926075,216.273972 
	C63.909599,211.500671 65.626747,209.905762 70.335678,209.928192 
	C99.824295,210.068649 129.314987,210.129532 158.802246,209.884995 
	C164.440506,209.838226 166.034790,211.370865 166.025742,217.523804 
	C165.976227,251.178162 166.002167,284.832642 166.002167,318.983582 
M79.346443,318.700867 
	C80.064354,319.553131 80.782257,320.405396 81.389580,321.126404 
	C85.098183,318.441986 86.804718,315.138977 82.596230,312.353546 
	C80.733452,311.120605 76.398071,311.039948 74.937546,312.366150 
	C72.526848,314.555084 72.655235,318.132690 76.076675,320.879456 
	C76.871292,319.669037 77.478485,318.744110 78.556946,317.994598 
	C78.708977,318.065216 78.861015,318.135803 79.346443,318.700867 
M157.263092,271.657715 
	C157.131104,270.762970 156.999115,269.868256 156.934753,268.041931 
	C156.951859,260.893921 156.740448,253.735321 157.071625,246.601883 
	C157.270691,242.314148 156.092728,240.769104 151.553268,240.891388 
	C139.925003,241.204651 128.282639,240.995682 116.645920,240.995758 
	C103.679291,240.995834 90.711571,240.918121 77.747437,241.098053 
	C76.181206,241.119797 73.268288,242.571960 73.288261,243.297577 
	C73.504524,251.150833 71.207535,259.266144 74.650734,267.331635 
	C74.114433,269.889954 73.578133,272.448273 73.023705,275.906311 
	C73.020424,277.571045 73.064880,279.237518 73.003403,280.900085 
	C72.892929,283.887878 74.360306,284.984650 77.262016,285.050873 
	C87.383987,285.281891 97.503365,285.945557 107.622208,285.916534 
	C121.072426,285.877899 134.520859,285.327087 147.970764,285.027740 
	C157.928986,284.806091 156.992325,286.647766 156.977585,275.200104 
	C156.916214,274.127045 156.854843,273.053955 157.263092,271.657715 
M147.069046,294.215088 
	C146.488144,296.070221 145.907242,297.925323 145.326355,299.780457 
	C147.833740,300.186188 150.345856,300.907562 152.846603,300.870026 
	C154.178986,300.850067 155.491714,299.517761 156.813309,298.777802 
	C155.850357,297.201508 155.233322,294.924377 153.833359,294.233368 
	C152.228241,293.441040 149.928665,294.055603 147.069046,294.215088 
M136.033875,299.473846 
	C138.086929,301.672729 139.647110,300.488129 140.485321,298.463562 
	C140.799225,297.705353 139.721893,296.371185 139.278854,295.299622 
	C138.057281,296.507172 136.835693,297.714722 136.033875,299.473846 
M156.442749,303.488983 
	C156.442749,303.488983 156.516998,303.451324 156.442749,303.488983 
z"/>
<path fill="#3F3F3F" opacity="1.000000" stroke="none" 
	d="
M288.869934,74.101555 
	C289.129456,77.381279 289.578583,80.659035 289.612732,83.941101 
	C289.712952,93.583908 289.508820,103.231400 289.713104,112.870918 
	C289.801910,117.060181 288.414185,118.397003 283.977905,116.731346 
	C283.977905,102.949448 283.977905,89.044075 284.411499,74.626282 
	C286.186707,74.109764 287.528351,74.105659 288.869934,74.101555 
z"/>
<path fill="#3F3F3F" opacity="1.000000" stroke="none" 
	d="
M274.933807,84.649406 
	C274.933807,95.281792 274.933807,105.914177 274.933807,116.988647 
	C272.941681,116.988647 271.245880,116.988647 269.040924,116.988647 
	C269.040924,106.338654 269.040924,95.911102 269.465942,84.966484 
	C271.571899,84.516075 273.252869,84.582741 274.933807,84.649406 
z"/>
<path fill="#E4E4E4" opacity="1.000000" stroke="none" 
	d="
M254.109192,97.375793 
	C254.084793,88.590515 254.054413,79.805229 254.039932,71.019928 
	C254.036041,68.657616 253.910736,65.749710 257.289276,66.296997 
	C258.411163,66.478729 259.842896,69.210938 259.890503,70.814018 
	C260.141296,79.260338 259.994751,87.718460 259.559875,96.587410 
	C257.458832,97.126823 255.784012,97.251305 254.109192,97.375793 
z"/>
<path fill="#393939" opacity="1.000000" stroke="none" 
	d="
M254.177551,97.814415 
	C255.784012,97.251305 257.458832,97.126823 259.552856,97.063904 
	C259.972107,103.678848 259.972107,110.232239 259.972107,117.083679 
	C258.015747,117.083679 256.453857,117.083679 254.245895,117.083679 
	C254.245895,110.649315 254.245895,104.451172 254.177551,97.814415 
z"/>
<path fill="#E5E5E5" opacity="1.000000" stroke="none" 
	d="
M274.940796,84.134125 
	C273.252869,84.582741 271.571899,84.516075 269.474854,84.537079 
	C269.043884,79.683563 268.828247,74.729218 269.150421,69.810112 
	C269.234558,68.525467 270.992523,67.350464 271.981720,66.125107 
	C272.976074,67.344498 274.730988,68.506699 274.827759,69.793571 
	C275.172516,74.379074 274.953400,79.006989 274.940796,84.134125 
z"/>
<path fill="#E4E4E4" opacity="1.000000" stroke="none" 
	d="
M289.144836,73.812881 
	C287.528351,74.105659 286.186707,74.109764 284.446594,74.173149 
	C284.025177,72.735359 283.633728,71.115044 284.081696,69.775436 
	C284.541901,68.399345 285.821960,67.297447 286.743225,66.075569 
	C287.806732,67.258888 289.237885,68.289474 289.813660,69.675415 
	C290.248840,70.723007 289.591064,72.224640 289.144836,73.812881 
z"/>
<path fill="#F8F8F8" opacity="1.000000" stroke="none" 
	d="
M156.950241,276.007507 
	C156.992325,286.647766 157.928986,284.806091 147.970764,285.027740 
	C134.520859,285.327087 121.072426,285.877899 107.622208,285.916534 
	C97.503365,285.945557 87.383987,285.281891 77.262016,285.050873 
	C74.360306,284.984650 72.892929,283.887878 73.003403,280.900085 
	C73.064880,279.237518 73.020424,277.571045 73.496674,275.454651 
	C83.542198,275.136322 93.177551,274.641174 102.668655,275.589630 
	C111.214157,276.443542 112.121284,276.233673 110.030777,268.584320 
	C109.988495,268.429596 110.018524,268.255157 109.990845,267.753662 
	C109.313797,266.944183 108.660728,266.470947 108.003983,265.998871 
	C108.000305,266.000000 108.002861,265.992432 107.992447,265.623688 
	C106.244522,260.499969 101.313141,257.476868 96.903595,256.857849 
	C89.108994,255.763657 85.614761,260.818817 81.550529,265.997070 
	C79.185562,266.261292 77.216476,266.524658 75.247391,266.788025 
	C71.207535,259.266144 73.504524,251.150833 73.288261,243.297577 
	C73.268288,242.571960 76.181206,241.119797 77.747437,241.098053 
	C90.711571,240.918121 103.679291,240.995834 116.645920,240.995758 
	C128.282639,240.995682 139.925003,241.204651 151.553268,240.891388 
	C156.092728,240.769104 157.270691,242.314148 157.071625,246.601883 
	C156.740448,253.735321 156.951859,260.893921 156.701111,268.636993 
	C156.222809,269.445770 156.024643,269.696259 155.636093,269.864746 
	C154.932434,269.497314 154.465637,269.248657 153.864807,268.701569 
	C153.173691,267.258545 152.616638,266.113983 151.872025,264.740723 
	C151.142563,264.294861 150.600647,264.077637 150.048981,263.672241 
	C150.039246,263.484009 150.013275,263.107971 150.019684,262.806763 
	C149.735474,262.002075 149.444839,261.498596 149.007690,260.662018 
	C145.652466,255.628891 142.443726,250.928879 139.715637,246.932892 
	C136.894684,247.702179 135.074646,248.198502 133.120834,248.731323 
	C132.746735,250.767609 132.361053,252.866959 131.986404,254.982178 
	C131.997437,254.998077 131.965744,254.975616 131.627899,254.973434 
	C130.842178,255.647568 130.394318,256.323883 129.733505,257.205750 
	C129.354263,259.254791 129.187973,261.098328 128.990173,262.953979 
	C128.958664,262.966095 128.936859,263.030029 128.616669,263.033478 
	C127.774620,263.652496 127.252762,264.268066 126.517662,265.151031 
	C125.456932,266.952271 124.459923,268.425903 123.810371,270.039398 
	C123.311935,271.277527 123.251640,272.692017 123.208717,274.360291 
	C125.284546,275.128357 127.143188,275.914337 129.012589,275.940826 
	C138.323593,276.072784 147.637405,276.005005 156.950241,276.007507 
z"/>
<path fill="#F6F6F6" opacity="1.000000" stroke="none" 
	d="
M74.949066,267.059814 
	C77.216476,266.524658 79.185562,266.261292 81.833527,266.175842 
	C84.149002,266.265106 85.785057,266.112793 87.422287,266.098938 
	C94.282288,266.040863 101.142639,266.024231 108.002861,265.992432 
	C108.002861,265.992432 108.000305,266.000000 108.024849,266.330139 
	C108.704536,267.136841 109.359680,267.613373 110.014824,268.089905 
	C110.018524,268.255157 109.988495,268.429596 110.030777,268.584320 
	C112.121284,276.233673 111.214157,276.443542 102.668655,275.589630 
	C93.177551,274.641174 83.542198,275.136322 73.505737,275.004791 
	C73.578133,272.448273 74.114433,269.889954 74.949066,267.059814 
z"/>
<path fill="#F6F6F6" opacity="1.000000" stroke="none" 
	d="
M156.963913,275.603821 
	C147.637405,276.005005 138.323593,276.072784 129.012589,275.940826 
	C127.143188,275.914337 125.284546,275.128357 123.272491,274.031708 
	C123.957253,272.177032 124.790482,270.983185 124.986717,270.701996 
	C134.540909,270.701996 143.401215,270.734283 152.259888,270.628967 
	C152.845917,270.621979 153.419479,269.567322 153.998856,269.000000 
	C154.465637,269.248657 154.932434,269.497314 155.686737,270.148926 
	C156.247314,271.028229 156.520401,271.504578 156.793472,271.980896 
	C156.854843,273.053955 156.916214,274.127045 156.963913,275.603821 
z"/>
<path fill="#EFEFEF" opacity="1.000000" stroke="none" 
	d="
M78.085678,317.819183 
	C77.478485,318.744110 76.871292,319.669037 76.076675,320.879456 
	C72.655235,318.132690 72.526848,314.555084 74.937546,312.366150 
	C76.398071,311.039948 80.733452,311.120605 82.596230,312.353546 
	C86.804718,315.138977 85.098183,318.441986 81.389580,321.126404 
	C80.782257,320.405396 80.064354,319.553131 79.465790,318.342041 
	C79.927994,317.481903 80.270866,316.980591 80.767700,316.202057 
	C80.874321,315.338196 80.826973,314.751587 80.779617,314.164948 
	C80.617767,314.161163 80.455910,314.157349 80.294052,314.153534 
	C80.193085,314.765991 80.092117,315.378418 79.651848,316.014648 
	C78.903587,316.632019 78.494637,317.225586 78.085678,317.819183 
z"/>
<path fill="#EFEFEF" opacity="1.000000" stroke="none" 
	d="
M147.499908,294.137024 
	C149.928665,294.055603 152.228241,293.441040 153.833359,294.233368 
	C155.233322,294.924377 155.850357,297.201508 156.813324,298.777802 
	C155.491714,299.517761 154.178986,300.850067 152.846603,300.870026 
	C150.345856,300.907562 147.833740,300.186188 145.326355,299.780457 
	C145.907242,297.925323 146.488144,296.070221 147.499908,294.137024 
M147.480911,299.161041 
	C149.401489,299.393158 151.320740,299.752502 153.243530,299.772430 
	C153.757080,299.777771 154.499115,298.819946 154.724457,298.163055 
	C154.875412,297.722992 154.344391,296.559113 154.042694,296.530914 
	C151.555878,296.298645 148.463303,294.177032 147.480911,299.161041 
z"/>
<path fill="#F8F8F8" opacity="1.000000" stroke="none" 
	d="
M135.823990,299.198059 
	C136.835693,297.714722 138.057281,296.507172 139.278870,295.299622 
	C139.721893,296.371185 140.799225,297.705353 140.485321,298.463562 
	C139.647110,300.488129 138.086929,301.672729 135.823990,299.198059 
z"/>
<path fill="#EFEFEF" opacity="1.000000" stroke="none" 
	d="
M157.028290,271.819305 
	C156.520401,271.504578 156.247314,271.028229 155.923599,270.267700 
	C156.024643,269.696259 156.222809,269.445770 156.667297,269.102783 
	C156.999115,269.868256 157.131104,270.762970 157.028290,271.819305 
z"/>
<path fill="#4D4D4D" opacity="1.000000" stroke="none" 
	d="
M80.613731,316.479279 
	C80.270866,316.980591 79.927994,317.481903 79.299088,318.094788 
	C78.861015,318.135803 78.708977,318.065216 78.321312,317.906891 
	C78.494637,317.225586 78.903587,316.632019 79.795975,316.151459 
	C80.279396,316.264465 80.613731,316.479279 80.613731,316.479279 
z"/>
<path fill="#D7D7D7" opacity="1.000000" stroke="none" 
	d="
M156.479874,303.470154 
	C156.516998,303.451324 156.442749,303.488983 156.479874,303.470154 
z"/>
<path fill="#EFEFEF" opacity="1.000000" stroke="none" 
	d="
M153.864807,268.701569 
	C153.419479,269.567322 152.845917,270.621979 152.259888,270.628967 
	C143.401215,270.734283 134.540909,270.701996 124.986717,270.701996 
	C124.790482,270.983185 123.957253,272.177032 123.060257,273.699463 
	C123.251640,272.692017 123.311935,271.277527 123.810371,270.039398 
	C124.459923,268.425903 125.456932,266.952271 126.870224,265.163330 
	C127.936310,264.282135 128.436584,263.656097 128.936859,263.030029 
	C128.936859,263.030029 128.958664,262.966095 129.409332,262.994690 
	C136.577774,263.051544 143.295517,263.079773 150.013275,263.107971 
	C150.013275,263.107971 150.039246,263.484009 149.896835,263.841156 
	C150.522812,264.455322 151.291199,264.712372 152.059586,264.969391 
	C152.616638,266.113983 153.173691,267.258545 153.864807,268.701569 
z"/>
<path fill="#E4E4E4" opacity="1.000000" stroke="none" 
	d="
M107.992447,265.623688 
	C101.142639,266.024231 94.282288,266.040863 87.422287,266.098938 
	C85.785057,266.112793 84.149002,266.265106 82.229408,266.174988 
	C85.614761,260.818817 89.108994,255.763657 96.903595,256.857849 
	C101.313141,257.476868 106.244522,260.499969 107.992447,265.623688 
z"/>
<path fill="#E4E4E4" opacity="1.000000" stroke="none" 
	d="
M150.019684,262.806763 
	C143.295517,263.079773 136.577774,263.051544 129.440857,262.982574 
	C129.187973,261.098328 129.354263,259.254791 130.078156,257.190308 
	C131.079086,256.304718 131.522415,255.640167 131.965729,254.975616 
	C131.965744,254.975616 131.997437,254.998077 132.447250,254.996185 
	C138.802414,254.821472 144.953827,253.994995 148.204010,260.831238 
	C148.283600,260.998627 148.827087,260.945435 149.154205,260.995148 
	C149.444839,261.498596 149.735474,262.002075 150.019684,262.806763 
z"/>
<path fill="#CCCCCC" opacity="1.000000" stroke="none" 
	d="
M149.007690,260.662018 
	C148.827087,260.945435 148.283600,260.998627 148.204010,260.831238 
	C144.953827,253.994995 138.802414,254.821472 132.436218,254.980301 
	C132.361053,252.866959 132.746735,250.767609 133.120834,248.731323 
	C135.074646,248.198502 136.894684,247.702179 139.715637,246.932892 
	C142.443726,250.928879 145.652466,255.628891 149.007690,260.662018 
z"/>
<path fill="#CCCCCC" opacity="1.000000" stroke="none" 
	d="
M131.627884,254.973434 
	C131.522415,255.640167 131.079086,256.304718 130.291107,256.984741 
	C130.394318,256.323883 130.842178,255.647568 131.627884,254.973434 
z"/>
<path fill="#E4E4E4" opacity="1.000000" stroke="none" 
	d="
M128.616669,263.033478 
	C128.436584,263.656097 127.936310,264.282135 127.083466,264.895935 
	C127.252762,264.268066 127.774620,263.652496 128.616669,263.033478 
z"/>
<path fill="#E4E4E4" opacity="1.000000" stroke="none" 
	d="
M151.872025,264.740723 
	C151.291199,264.712372 150.522812,264.455322 149.906586,264.029358 
	C150.600647,264.077637 151.142563,264.294861 151.872025,264.740723 
z"/>
<path fill="#E4E4E4" opacity="1.000000" stroke="none" 
	d="
M109.990845,267.753662 
	C109.359680,267.613373 108.704536,267.136841 108.028519,266.329041 
	C108.660728,266.470947 109.313797,266.944183 109.990845,267.753662 
z"/>
<path fill="#4D4D4D" opacity="1.000000" stroke="none" 
	d="
M80.135269,316.127686 
	C80.092117,315.378418 80.193085,314.765991 80.294052,314.153534 
	C80.455910,314.157349 80.617767,314.161163 80.779617,314.164948 
	C80.826973,314.751587 80.874321,315.338196 80.767700,316.202057 
	C80.613731,316.479279 80.279396,316.264465 80.135269,316.127686 
z"/>
<path fill="#E5E5E5" opacity="1.000000" stroke="none" 
	d="
M147.333359,298.779114 
	C148.463303,294.177032 151.555878,296.298645 154.042694,296.530914 
	C154.344391,296.559113 154.875412,297.722992 154.724457,298.163055 
	C154.499115,298.819946 153.757080,299.777771 153.243530,299.772430 
	C151.320740,299.752502 149.401489,299.393158 147.333359,298.779114 
z"/>
</svg>