<svg version="1.1" id="Layer_1" xmlns="http://www.w3.org/2000/svg" xmlns:xlink="http://www.w3.org/1999/xlink" x="0px" y="0px"
	 width="100%" viewBox="0 0 548 526" enable-background="new 0 0 548 526" xml:space="preserve">
<path fill="#000000" opacity="1.000000" stroke="none" 
	d="
M549.000000,235.000000 
	C549.000000,332.262695 549.000000,429.525391 549.000000,527.000000 
	C445.645874,527.000000 342.291595,527.000000 238.174408,526.705811 
	C241.394196,523.011169 242.105637,518.669189 242.095673,513.578613 
	C241.955139,441.785339 242.000076,369.991730 242.000275,298.198181 
	C242.000290,290.084198 238.922531,287.000580 230.808136,287.000458 
	C159.347748,286.999542 87.887375,286.998291 16.426991,287.003265 
	C11.076751,287.003662 5.355252,285.837311 1.727998,291.495941 
	C1.485328,291.330627 1.242661,291.165314 0.999997,291.000000 
	C1.000000,194.403610 1.000000,97.807228 1.000000,1.000000 
	C104.687469,1.000000 208.375076,1.000000 312.825623,1.294154 
	C309.606506,4.987945 308.894287,9.328896 308.904388,14.418724 
	C309.045349,85.533875 308.999939,156.649399 308.999939,227.764832 
	C308.999939,235.916885 312.066742,238.999466 320.190521,238.999573 
	C391.305939,239.000534 462.421387,239.001404 533.536804,238.997513 
	C538.899780,238.997223 544.630127,240.164322 548.272644,234.504730 
	C548.515076,234.669800 548.757568,234.834900 549.000000,235.000000 
M391.500000,495.000580 
	C424.489197,495.000580 457.478394,495.000977 490.467590,495.000183 
	C497.547882,495.000000 499.986969,492.487976 499.987091,485.193359 
	C499.987885,435.376312 499.987457,385.559265 499.987427,335.742218 
	C499.987427,323.246307 500.004639,310.750366 499.981110,298.254486 
	C499.966461,290.468903 498.510437,289.000671 490.984070,289.000671 
	C428.171265,289.000641 365.358490,289.000610 302.545685,289.000519 
	C295.837585,289.000519 294.031952,290.567200 294.027069,297.222137 
	C293.980896,360.368134 293.988983,423.514130 294.017700,486.660156 
	C294.020203,492.175934 297.009033,494.996826 302.528778,494.997864 
	C331.852509,495.003448 361.176270,495.000519 391.500000,495.000580 
M53.998634,137.500000 
	C53.998642,173.145599 53.995182,208.791214 54.001698,244.436813 
	C54.002945,251.253067 56.574440,253.963959 63.448944,253.967789 
	C125.745522,254.002472 188.042130,253.999054 250.338730,253.972961 
	C257.387482,253.970016 258.999878,252.262894 258.999908,245.333511 
	C259.000122,182.370636 259.000061,119.407761 259.000000,56.444889 
	C259.000000,48.391308 257.626556,46.999195 249.661072,46.999088 
	C187.531036,46.998226 125.401009,46.998558 63.270977,46.998615 
	C56.601074,46.998623 54.003441,49.656811 54.001572,56.547146 
	C53.994350,83.198097 53.998634,109.849045 53.998634,137.500000 
z"/>
<path fill="#E5E5E5" opacity="1.000000" stroke="none" 
	d="
M549.000000,234.531342 
	C548.757568,234.834900 548.515076,234.669800 548.272644,234.504730 
	C544.630127,240.164322 538.899780,238.997223 533.536804,238.997513 
	C462.421387,239.001404 391.305939,239.000534 320.190521,238.999573 
	C312.066742,238.999466 308.999939,235.916885 308.999939,227.764832 
	C308.999939,156.649399 309.045349,85.533875 308.904388,14.418724 
	C308.894287,9.328896 309.606506,4.987945 313.294250,1.294154 
	C391.593414,1.000000 470.186798,1.000000 549.000000,1.000000 
	C549.000000,78.687424 549.000000,156.375046 549.000000,234.531342 
M349.001221,100.500000 
	C349.001373,131.825897 349.055023,163.151978 348.935699,194.477432 
	C348.920349,198.509750 350.080231,200.075378 354.324951,200.065994 
	C404.146240,199.955978 453.967926,200.011658 503.789368,199.943848 
	C506.086548,199.940735 508.382690,199.183273 509.532440,198.979965 
	C508.925903,195.654907 508.065948,193.124451 508.061523,190.592484 
	C507.980713,144.270248 507.987640,97.947823 508.035431,51.625492 
	C508.038666,48.490639 506.925568,44.885956 510.753540,42.777870 
	C511.033539,42.623665 510.553986,41.090282 510.514343,40.810551 
	C506.616089,41.235977 503.127594,41.943165 499.638031,41.948311 
	C450.816345,42.020317 401.994537,41.993473 353.172760,42.008167 
	C351.424347,42.008694 349.675995,42.188961 349.001221,42.226200 
	C349.001221,61.748985 349.001221,80.624489 349.001221,100.500000 
z"/>
<path fill="#E5E5E5" opacity="1.000000" stroke="none" 
	d="
M0.999997,291.468658 
	C1.242661,291.165314 1.485328,291.330627 1.727998,291.495941 
	C5.355252,285.837311 11.076751,287.003662 16.426991,287.003265 
	C87.887375,286.998291 159.347748,286.999542 230.808136,287.000458 
	C238.922531,287.000580 242.000290,290.084198 242.000275,298.198181 
	C242.000076,369.991730 241.955139,441.785339 242.095673,513.578613 
	C242.105637,518.669189 241.394196,523.011169 237.705750,526.705811 
	C159.073120,527.000000 80.146233,527.000000 1.000000,527.000000 
	C1.000000,448.645905 1.000000,370.291626 0.999997,291.468658 
M204.693542,484.205963 
	C204.462769,482.413788 204.031784,480.621765 204.030411,478.829407 
	C203.993698,431.002289 203.977264,383.175110 204.073242,335.348175 
	C204.077957,332.997101 205.158051,330.654266 205.681824,328.295227 
	C205.901047,327.307800 205.975143,326.288116 206.115219,325.283112 
	C204.828735,325.166229 203.482620,324.752228 202.268463,324.995850 
	C199.918610,325.467316 197.644501,326.904419 195.336533,326.909912 
	C146.676437,327.025787 98.016014,326.997559 49.355648,326.997559 
	C46.768063,326.997559 44.180477,326.997559 41.578568,326.997559 
	C41.578568,381.390900 41.578568,435.578583 41.578568,489.654541 
	C44.610382,488.656708 47.120949,487.115662 49.635967,487.108368 
	C98.629211,486.966187 147.623001,486.986176 196.616486,487.077087 
	C198.221222,487.080078 199.788742,488.328125 201.439377,488.715576 
	C202.625351,488.993958 203.921036,488.804871 205.167801,488.824341 
	C205.124390,487.517365 205.080978,486.210388 204.693542,484.205963 
z"/>
<path fill="#E5E5E5" opacity="1.000000" stroke="none" 
	d="
M391.000000,495.000580 
	C361.176270,495.000519 331.852509,495.003448 302.528778,494.997864 
	C297.009033,494.996826 294.020203,492.175934 294.017700,486.660156 
	C293.988983,423.514130 293.980896,360.368134 294.027069,297.222137 
	C294.031952,290.567200 295.837585,289.000519 302.545685,289.000519 
	C365.358490,289.000610 428.171265,289.000641 490.984070,289.000671 
	C498.510437,289.000671 499.966461,290.468903 499.981110,298.254486 
	C500.004639,310.750366 499.987427,323.246307 499.987427,335.742218 
	C499.987457,385.559265 499.987885,435.376312 499.987091,485.193359 
	C499.986969,492.487976 497.547882,495.000000 490.467590,495.000183 
	C457.478394,495.000977 424.489197,495.000580 391.000000,495.000580 
M331.296478,392.956543 
	C331.022247,393.156677 330.831970,393.417938 330.156281,393.825531 
	C329.729004,394.179016 329.301758,394.532501 328.445251,395.071838 
	C328.466553,395.301575 328.487854,395.531311 328.509155,395.761047 
	C328.752838,395.591156 328.996490,395.421265 329.814972,395.162811 
	C330.245941,394.808044 330.676910,394.453278 331.563507,393.911713 
	C331.858887,393.729980 332.053345,393.472107 332.596924,392.953857 
	C332.876801,392.763916 333.070679,392.508636 333.687592,391.888885 
	C333.985931,391.354553 334.284271,390.820221 334.582642,390.285858 
	C334.356354,390.151520 334.130066,390.017151 333.903778,389.882782 
	C333.481323,390.465057 333.058838,391.047363 332.246429,391.922668 
	C332.005829,392.154419 331.838470,392.430573 331.296478,392.956543 
M343.014618,378.014557 
	C343.014618,378.014557 343.014130,377.966370 342.475922,378.082153 
	C342.305145,378.394287 342.134369,378.706421 342.016998,379.014374 
	C342.016998,379.014374 342.013092,378.960938 341.440857,379.269958 
	C340.583160,380.477264 339.725464,381.684540 338.396271,383.232208 
	C338.215668,383.776520 338.035095,384.320801 337.334259,385.136169 
	C337.094208,385.659058 336.854156,386.181976 336.082458,386.974701 
	C335.833435,387.547180 335.584381,388.119659 335.335358,388.692108 
	C335.573975,388.802521 335.812622,388.912933 336.051239,389.023346 
	C336.404541,388.379395 336.757843,387.735443 337.608551,386.786011 
	C337.808289,386.250366 338.008057,385.714722 338.678131,384.845795 
	C338.897339,384.320984 339.116577,383.796173 339.796417,383.188110 
	C340.068115,383.038055 340.344299,382.896759 341.601562,382.893066 
	C348.086151,382.926849 354.591278,383.284912 361.047760,382.875549 
	C365.068420,382.620605 369.015472,381.205200 373.245117,380.194366 
	C373.245117,380.194366 373.479706,380.050323 373.827881,380.479156 
	C374.057922,380.512329 374.287994,380.545532 374.518066,380.578705 
	C374.370178,380.234589 374.222290,379.890472 373.847656,379.166534 
	C373.616425,378.915161 373.344482,378.858154 373.012360,378.988098 
	C373.012360,378.988098 373.004578,378.968781 373.080048,378.285156 
	C372.722900,377.705963 372.365753,377.126770 371.853027,376.330414 
	C371.735840,376.193481 371.598602,376.081024 370.930786,375.519165 
	C370.292542,375.341248 369.654266,375.163361 369.000000,375.000000 
	C369.000000,375.000000 369.010406,374.981049 368.921295,374.459198 
	C368.620850,374.303101 368.320404,374.146973 368.001068,373.996368 
	C368.001068,373.996368 368.011353,373.978210 367.962921,373.282745 
	C366.978851,372.849091 365.994812,372.415405 365.000000,372.000000 
	C365.000000,372.000000 365.010895,371.983856 364.571198,371.353882 
	C359.937317,369.363525 355.369019,368.766144 351.002808,372.002960 
	C351.002808,372.002960 351.003082,371.978912 350.392548,371.986664 
	C349.922363,372.321594 349.452179,372.656494 349.001221,373.001221 
	C349.001221,373.001221 348.996582,372.980347 348.497253,373.126831 
	C348.327118,373.412933 348.156982,373.699066 348.022736,374.004547 
	C348.022736,374.004547 348.036530,373.966156 347.420166,374.004608 
	C346.930817,374.341461 346.441437,374.678284 346.014648,375.017487 
	C346.014648,375.017487 346.025238,374.955750 345.532196,375.155640 
	C345.343719,375.442932 345.155243,375.730225 345.015991,376.016144 
	C345.015991,376.016144 345.016083,375.966919 344.482544,376.094543 
	C344.310577,376.401581 344.138611,376.708618 344.015320,377.015320 
	C344.015320,377.015320 344.015594,376.966614 343.482422,377.094421 
	C343.310425,377.401245 343.138428,377.708069 343.014618,378.014557 
M395.062683,415.269531 
	C394.846161,415.026459 394.587799,414.842041 394.009613,414.084045 
	C393.086334,412.529907 392.113312,411.002869 391.248535,409.416840 
	C387.872711,403.225189 384.531097,397.014862 380.939423,390.327118 
	C380.724304,390.301880 380.509186,390.276642 380.294067,390.251404 
	C380.418793,390.607880 380.543518,390.964355 380.787598,392.034271 
	C382.905426,396.362274 384.896210,400.758728 387.179962,404.997345 
	C389.122528,408.602692 391.402679,412.026154 393.773285,415.900513 
	C393.962524,416.136658 394.192139,416.323151 394.777405,416.861694 
	C395.081360,417.012054 395.385345,417.162445 396.168579,417.875031 
	C399.579834,419.639862 403.002411,420.985504 407.235382,418.635254 
	C403.128418,417.828156 399.789825,417.172058 396.152588,416.148010 
	C395.907806,415.936646 395.633148,415.776520 395.062683,415.269531 
M411.844177,416.080597 
	C412.335480,415.488098 412.826782,414.895599 413.759033,413.888489 
	C413.742035,413.599915 413.725006,413.311371 413.708008,413.022766 
	C413.336365,413.171234 412.964722,413.319672 412.038422,413.717987 
	C411.523224,414.334106 411.008026,414.950226 410.039551,415.965271 
	C410.061371,416.230774 410.083221,416.496277 410.105042,416.761780 
	C410.505096,416.613159 410.905151,416.464569 411.844177,416.080597 
M462.034851,369.315857 
	C461.364227,368.146179 460.693604,366.976532 459.994965,365.084656 
	C457.661804,361.388275 455.328613,357.691925 453.080231,353.281189 
	C453.577942,352.431671 454.068695,351.578003 454.574463,350.733307 
	C458.126068,344.801788 457.496735,338.665985 452.899384,334.436340 
	C448.683533,330.557739 441.503143,330.250763 436.868408,333.751068 
	C432.004883,337.424194 430.710266,343.904022 433.561829,349.899963 
	C434.180328,351.200470 434.527740,352.629944 434.995300,354.480835 
	C434.995300,354.480835 434.998016,354.961700 434.514771,355.323944 
	C434.339661,355.888794 434.164551,356.453644 433.656952,357.498688 
	C433.119080,358.034393 432.581238,358.570068 432.011047,359.833679 
	C431.997406,360.562561 431.983795,361.291443 432.016296,362.009155 
	C432.016296,362.009155 432.003540,361.963470 431.388885,362.384796 
	C427.140350,378.944824 422.139465,395.244629 414.245209,411.105591 
	C414.273651,411.394775 414.302094,411.683990 414.330536,411.973175 
	C414.694763,411.798035 415.058990,411.622894 415.932220,410.965118 
	C420.598145,398.637909 425.264038,386.310730 430.875885,373.993469 
	C441.233978,373.665619 451.592102,373.337769 462.283051,373.637268 
	C464.334656,378.167786 466.386230,382.698303 468.437836,387.228821 
	C468.923706,387.011841 469.409576,386.794891 469.895447,386.577911 
	C467.261169,381.039886 464.626923,375.501862 461.982819,370.010956 
	C461.982819,370.010956 462.029999,370.020508 462.034851,369.315857 
M325.726227,396.057739 
	C323.713928,396.148621 321.701630,396.239502 319.689331,396.330383 
	C319.793304,396.977661 319.897278,397.624969 320.001251,398.272278 
	C322.140594,397.623810 324.279907,396.975372 325.726227,396.057739 
M378.740570,385.860382 
	C378.740570,386.807251 378.740570,387.754150 378.740570,388.701019 
	C379.123505,388.634674 379.506439,388.568329 379.889374,388.501984 
	C379.620117,387.813477 379.350830,387.124969 378.740570,385.860382 
M376.716492,383.394135 
	C376.341797,383.009949 375.967102,382.625763 375.592407,382.241577 
	C375.494751,382.361481 375.292664,382.559387 375.315155,382.589508 
	C375.639343,383.023529 375.993713,383.434998 376.716492,383.394135 
M408.912994,417.523743 
	C408.708923,417.454193 408.504883,417.384613 408.300812,417.315033 
	C408.363281,417.505585 408.425751,417.696167 408.912994,417.523743 
z"/>
<path fill="#E5E5E5" opacity="1.000000" stroke="none" 
	d="
M53.998634,137.000000 
	C53.998634,109.849045 53.994350,83.198097 54.001572,56.547146 
	C54.003441,49.656811 56.601074,46.998623 63.270977,46.998615 
	C125.401009,46.998558 187.531036,46.998226 249.661072,46.999088 
	C257.626556,46.999195 259.000000,48.391308 259.000000,56.444889 
	C259.000061,119.407761 259.000122,182.370636 258.999908,245.333511 
	C258.999878,252.262894 257.387482,253.970016 250.338730,253.972961 
	C188.042130,253.999054 125.745522,254.002472 63.448944,253.967789 
	C56.574440,253.963959 54.002945,251.253067 54.001698,244.436813 
	C53.995182,208.791214 53.998642,173.145599 53.998634,137.000000 
M105.026413,148.991043 
	C105.026093,163.929672 105.182709,178.870972 104.929840,193.805328 
	C104.853951,198.287262 105.600426,200.218445 110.752769,200.201065 
	C116.052902,200.183182 117.103996,198.221191 117.029152,193.447876 
	C116.792389,178.347565 116.967781,163.240768 116.980400,147.172714 
	C116.980362,133.069824 116.815048,118.963890 117.073914,104.865746 
	C117.159424,100.208611 115.581223,98.845558 111.044777,98.881027 
	C106.658035,98.915306 104.813446,99.959579 104.904900,104.759293 
	C105.179825,119.188805 105.005653,133.626877 105.026413,148.991043 
M206.985382,135.110474 
	C206.983521,124.785744 206.810547,114.456894 207.059250,104.138199 
	C207.167267,99.656738 205.088150,98.859146 201.277100,98.942352 
	C197.629486,99.022003 194.780655,98.971512 194.917313,104.065643 
	C195.203049,114.715721 195.001465,125.378883 195.008759,136.969345 
	C195.008087,156.271362 195.148193,175.575119 194.908340,194.874161 
	C194.847916,199.736801 196.437424,201.136459 201.198196,201.147339 
	C205.965881,201.158218 207.105576,199.406219 207.063690,194.963303 
	C206.878601,175.330368 206.993179,155.694626 206.985382,135.110474 
M135.015869,166.019699 
	C135.012863,175.635406 135.216446,185.257629 134.912415,194.863815 
	C134.777390,199.130188 136.267075,200.336273 140.307846,200.083908 
	C143.931961,199.857559 147.245560,200.422867 147.070969,194.902237 
	C146.756683,184.965149 146.992386,175.010651 146.984955,164.118240 
	C146.983414,144.354446 146.851120,124.589165 147.075729,104.827942 
	C147.129333,100.113335 145.479034,98.875885 140.998062,98.879906 
	C136.533844,98.883904 134.854645,100.086327 134.907837,104.816422 
	C135.133774,124.909851 135.004150,145.007263 135.015869,166.019699 
M165.034256,126.054520 
	C165.031372,149.049744 165.008408,172.045044 165.070450,195.040085 
	C165.074615,196.586426 165.553818,199.395386 166.096649,199.467255 
	C169.171265,199.874207 172.421875,200.022049 175.408279,199.350128 
	C176.265640,199.157227 176.863342,195.954254 176.872253,194.127960 
	C176.984558,171.133514 176.966995,148.138428 176.981583,124.178459 
	C176.980896,117.390312 176.780655,110.594299 177.047546,103.816689 
	C177.234940,99.057709 174.486252,98.950966 171.011139,98.964241 
	C167.575317,98.977371 164.760010,98.984138 164.937576,103.778831 
	C165.200867,110.888496 165.012466,118.014877 165.034256,126.054520 
z"/>
<path fill="#DADADA" opacity="1.000000" stroke="none" 
	d="
M349.001221,100.000000 
	C349.001221,80.624489 349.001221,61.748985 349.001221,42.226200 
	C349.675995,42.188961 351.424347,42.008694 353.172760,42.008167 
	C401.994537,41.993473 450.816345,42.020317 499.638031,41.948311 
	C503.127594,41.943165 506.616089,41.235977 510.514343,40.810551 
	C510.553986,41.090282 511.033539,42.623665 510.753540,42.777870 
	C506.925568,44.885956 508.038666,48.490639 508.035431,51.625492 
	C507.987640,97.947823 507.980713,144.270248 508.061523,190.592484 
	C508.065948,193.124451 508.925903,195.654907 509.532440,198.979965 
	C508.382690,199.183273 506.086548,199.940735 503.789368,199.943848 
	C453.967926,200.011658 404.146240,199.955978 354.324951,200.065994 
	C350.080231,200.075378 348.920349,198.509750 348.935699,194.477432 
	C349.055023,163.151978 349.001373,131.825897 349.001221,100.000000 
M428.500000,43.000305 
	C404.849182,43.000309 381.198334,42.996174 357.547516,43.003036 
	C351.068695,43.004913 351.002502,43.059952 351.001556,49.294823 
	C350.994385,96.763130 351.050690,144.231598 350.913971,191.699509 
	C350.900604,196.347412 352.056519,198.115250 357.042480,198.098206 
	C405.009918,197.934204 452.978302,197.934631 500.945740,198.097778 
	C505.921753,198.114700 507.097595,196.364380 507.084106,191.705688 
	C506.946503,144.237778 507.003174,96.769318 506.996033,49.301006 
	C506.995087,43.061821 506.927246,43.004929 500.452637,43.003044 
	C476.801758,42.996155 453.150879,43.000313 428.500000,43.000305 
z"/>
<path fill="#DADADA" opacity="1.000000" stroke="none" 
	d="
M204.865555,484.554688 
	C205.080978,486.210388 205.124390,487.517365 205.167786,488.824341 
	C203.921036,488.804871 202.625351,488.993958 201.439377,488.715576 
	C199.788742,488.328125 198.221222,487.080078 196.616486,487.077087 
	C147.623001,486.986176 98.629211,486.966187 49.635967,487.108368 
	C47.120949,487.115662 44.610382,488.656708 41.578568,489.654541 
	C41.578568,435.578583 41.578568,381.390900 41.578568,326.997559 
	C44.180477,326.997559 46.768063,326.997559 49.355648,326.997559 
	C98.016014,326.997559 146.676437,327.025787 195.336533,326.909912 
	C197.644501,326.904419 199.918610,325.467316 202.268463,324.995850 
	C203.482620,324.752228 204.828735,325.166229 206.115219,325.283112 
	C205.975143,326.288116 205.901047,327.307800 205.681824,328.295227 
	C205.158051,330.654266 204.077957,332.997101 204.073242,335.348175 
	C203.977264,383.175110 203.993698,431.002289 204.030411,478.829407 
	C204.031784,480.621765 204.462769,482.413788 204.865555,484.554688 
M59.507812,485.997559 
	C104.833809,485.997559 150.159805,485.999817 195.485809,485.995148 
	C202.384857,485.994446 202.994797,485.401825 202.995636,478.642731 
	C203.001556,430.317200 202.927185,381.991425 203.110413,333.666595 
	C203.128571,328.877899 201.559158,327.902740 197.144196,327.915009 
	C148.319138,328.050812 99.493553,327.998291 50.668110,328.002502 
	C44.015163,328.003082 44.001350,328.017700 44.000732,334.680450 
	C43.996483,380.339752 43.998482,425.999023 43.998474,471.658325 
	C43.998470,485.997559 43.998482,485.997559 59.507812,485.997559 
z"/>
<path fill="#DADADA" opacity="1.000000" stroke="none" 
	d="
M452.995453,353.995544 
	C455.328613,357.691925 457.661804,361.388275 459.779419,365.635498 
	C460.385925,367.464386 461.207977,368.742432 462.029999,370.020508 
	C462.029999,370.020508 461.982819,370.010956 461.949036,370.367310 
	C461.926880,371.485748 461.938507,372.247833 461.950195,373.009888 
	C451.592102,373.337769 441.233978,373.665619 430.415100,373.588989 
	C430.637390,369.444183 431.320465,365.703827 432.003540,361.963470 
	C432.003540,361.963470 432.016296,362.009155 432.302765,361.903076 
	C432.407288,360.899902 432.225342,360.002838 432.043396,359.105774 
	C432.581238,358.570068 433.119080,358.034393 434.071686,357.084045 
	C434.656952,356.100159 434.827484,355.530945 434.998016,354.961700 
	C434.998016,354.961700 434.995300,354.480835 435.395935,354.251770 
	C441.533539,356.539703 447.265961,356.186127 452.995453,353.995544 
z"/>
<path fill="#CFCFCF" opacity="1.000000" stroke="none" 
	d="
M453.037842,353.638367 
	C447.265961,356.186127 441.533539,356.539703 435.398315,354.011353 
	C434.527740,352.629944 434.180328,351.200470 433.561829,349.899963 
	C430.710266,343.904022 432.004883,337.424194 436.868408,333.751068 
	C441.503143,330.250763 448.683533,330.557739 452.899384,334.436340 
	C457.496735,338.665985 458.126068,344.801788 454.574463,350.733307 
	C454.068695,351.578003 453.577942,352.431671 453.037842,353.638367 
M439.649536,340.012268 
	C437.379974,342.923126 437.799591,345.950989 440.562378,347.816406 
	C442.258545,348.961700 445.909729,349.639038 447.026154,348.652130 
	C448.742950,347.134583 449.912323,343.939789 449.734375,341.575470 
	C449.440063,337.664764 445.071014,336.862885 439.649536,340.012268 
z"/>
<path fill="#DADADA" opacity="1.000000" stroke="none" 
	d="
M371.441284,375.993103 
	C371.598602,376.081024 371.735840,376.193481 371.881042,376.805847 
	C372.274200,377.843811 372.639374,378.406311 373.004578,378.968781 
	C373.004578,378.968781 373.012360,378.988098 372.985718,379.319885 
	C372.971252,379.871307 372.983429,380.090973 372.995575,380.310638 
	C369.015472,381.205200 365.068420,382.620605 361.047760,382.875549 
	C354.591278,383.284912 348.086151,382.926849 341.242401,382.513092 
	C341.259857,381.075714 341.636475,380.018341 342.013092,378.960938 
	C342.013092,378.960938 342.016998,379.014374 342.276306,378.982605 
	C342.695099,378.622711 342.854614,378.294525 343.014130,377.966370 
	C343.014130,377.966370 343.014618,378.014557 343.267731,377.966492 
	C343.685760,377.601196 343.850677,377.283905 344.015625,376.966614 
	C344.015594,376.966614 344.015320,377.015320 344.269104,376.967346 
	C344.687256,376.601898 344.851685,376.284424 345.016083,375.966919 
	C345.016083,375.966919 345.015991,376.016144 345.262909,375.952393 
	C345.681610,375.577667 345.853424,375.266693 346.025238,374.955750 
	C346.025238,374.955750 346.014648,375.017487 346.298645,375.019897 
	C347.067261,374.670258 347.551880,374.318207 348.036530,373.966156 
	C348.036530,373.966156 348.022736,374.004547 348.254822,373.922852 
	C348.656799,373.554199 348.826691,373.267273 348.996582,372.980347 
	C348.996582,372.980347 349.001221,373.001221 349.303558,373.007965 
	C350.071625,372.669464 350.537354,372.324188 351.003082,371.978912 
	C351.003082,371.978912 351.002808,372.002960 351.416138,372.029968 
	C356.223297,372.032623 360.617096,372.008240 365.010895,371.983856 
	C365.010895,371.983856 365.000000,372.000000 365.104614,372.303802 
	C366.143280,373.064484 367.077301,373.521362 368.011353,373.978210 
	C368.011353,373.978210 368.001068,373.996368 368.082825,374.236206 
	C368.446503,374.644409 368.728455,374.812744 369.010406,374.981049 
	C369.010406,374.981049 369.000000,375.000000 369.195068,375.294250 
	C370.073883,375.723358 370.757568,375.858215 371.441284,375.993103 
z"/>
<path fill="#949494" opacity="1.000000" stroke="none" 
	d="
M431.696228,362.174133 
	C431.320465,365.703827 430.637390,369.444183 429.942139,373.584045 
	C425.264038,386.310730 420.598145,398.637909 415.494812,411.015381 
	C414.931854,410.941895 414.806305,410.818115 414.680725,410.694366 
	C422.139465,395.244629 427.140350,378.944824 431.696228,362.174133 
z"/>
<path fill="#949494" opacity="1.000000" stroke="none" 
	d="
M393.533447,415.530121 
	C391.402679,412.026154 389.122528,408.602692 387.179962,404.997345 
	C384.896210,400.758728 382.905426,396.362274 380.856018,391.551147 
	C380.924408,391.068054 381.176758,390.811493 381.176758,390.811493 
	C384.531097,397.014862 387.872711,403.225189 391.248535,409.416840 
	C392.113312,411.002869 393.086334,412.529907 393.953033,414.597107 
	C393.775482,415.250122 393.654480,415.390137 393.533447,415.530121 
z"/>
<path fill="#949494" opacity="1.000000" stroke="none" 
	d="
M462.116608,373.323578 
	C461.938507,372.247833 461.926880,371.485748 461.953918,370.343750 
	C464.626923,375.501862 467.261169,381.039886 469.895447,386.577911 
	C469.409576,386.794891 468.923706,387.011841 468.437836,387.228821 
	C466.386230,382.698303 464.334656,378.167786 462.116608,373.323578 
z"/>
<path fill="#949494" opacity="1.000000" stroke="none" 
	d="
M396.451233,416.515961 
	C399.789825,417.172058 403.128418,417.828156 407.235382,418.635254 
	C403.002411,420.985504 399.579834,419.639862 396.123230,417.398346 
	C396.202301,416.786438 396.326752,416.651184 396.451233,416.515961 
z"/>
<path fill="#B6B5B7" opacity="1.000000" stroke="none" 
	d="
M364.791046,371.668884 
	C360.617096,372.008240 356.223297,372.032623 351.405121,372.025330 
	C355.369019,368.766144 359.937317,369.363525 364.791046,371.668884 
z"/>
<path fill="#949494" opacity="1.000000" stroke="none" 
	d="
M326.072754,396.192322 
	C324.279907,396.975372 322.140594,397.623810 320.001251,398.272278 
	C319.897278,397.624969 319.793304,396.977661 319.689331,396.330383 
	C321.701630,396.239502 323.713928,396.148621 326.072754,396.192322 
z"/>
<path fill="#949494" opacity="1.000000" stroke="none" 
	d="
M378.911072,386.148438 
	C379.350830,387.124969 379.620117,387.813477 379.889374,388.501984 
	C379.506439,388.568329 379.123505,388.634674 378.740570,388.701019 
	C378.740570,387.754150 378.740570,386.807251 378.911072,386.148438 
z"/>
<path fill="#949494" opacity="1.000000" stroke="none" 
	d="
M462.032410,369.668182 
	C461.207977,368.742432 460.385925,367.464386 459.793457,365.996582 
	C460.693604,366.976532 461.364227,368.146179 462.032410,369.668182 
z"/>
<path fill="#949494" opacity="1.000000" stroke="none" 
	d="
M341.726990,379.115448 
	C341.636475,380.018341 341.259857,381.075714 340.754120,382.448669 
	C340.344299,382.896759 340.068115,383.038055 339.446106,383.134735 
	C339.095825,383.081360 338.867767,382.891846 338.867767,382.891846 
	C339.725464,381.684540 340.583160,380.477264 341.726990,379.115448 
z"/>
<path fill="#B6B5B7" opacity="1.000000" stroke="none" 
	d="
M367.987122,373.630493 
	C367.077301,373.521362 366.143280,373.064484 365.109985,372.294678 
	C365.994812,372.415405 366.978851,372.849091 367.987122,373.630493 
z"/>
<path fill="#949494" opacity="1.000000" stroke="none" 
	d="
M337.111145,387.091492 
	C336.757843,387.735443 336.404541,388.379395 336.051239,389.023346 
	C335.812622,388.912933 335.573975,388.802521 335.335358,388.692108 
	C335.584381,388.119659 335.833435,387.547180 336.476868,386.935699 
	C336.871246,386.896698 337.111145,387.091492 337.111145,387.091492 
z"/>
<path fill="#949494" opacity="1.000000" stroke="none" 
	d="
M410.492859,415.566345 
	C411.008026,414.950226 411.523224,414.334106 412.485504,413.811798 
	C413.061127,414.038116 413.189636,414.170624 413.318115,414.303101 
	C412.826782,414.895599 412.335480,415.488098 411.377930,416.004028 
	C410.772064,415.807129 410.632477,415.686768 410.492859,415.566345 
z"/>
<path fill="#949494" opacity="1.000000" stroke="none" 
	d="
M376.528687,383.622986 
	C375.993713,383.434998 375.639343,383.023529 375.315155,382.589508 
	C375.292664,382.559387 375.494751,382.361481 375.592407,382.241577 
	C375.967102,382.625763 376.341797,383.009949 376.528687,383.622986 
z"/>
<path fill="#949494" opacity="1.000000" stroke="none" 
	d="
M432.027222,359.469727 
	C432.225342,360.002838 432.407288,360.899902 432.279724,361.908630 
	C431.983795,361.291443 431.997406,360.562561 432.027222,359.469727 
z"/>
<path fill="#949494" opacity="1.000000" stroke="none" 
	d="
M332.636353,391.629639 
	C333.058838,391.047363 333.481323,390.465057 333.903778,389.882782 
	C334.130066,390.017151 334.356354,390.151520 334.582642,390.285858 
	C334.284271,390.820221 333.985931,391.354553 333.297485,391.898071 
	C332.907379,391.907288 332.636353,391.629639 332.636353,391.629639 
z"/>
<path fill="#949494" opacity="1.000000" stroke="none" 
	d="
M328.874512,394.885986 
	C329.301758,394.532501 329.729004,394.179016 330.536743,393.872253 
	C330.917175,393.918976 331.107910,394.098511 331.107910,394.098511 
	C330.676910,394.453278 330.245941,394.808044 329.437195,395.114716 
	C329.059387,395.066620 328.874512,394.885986 328.874512,394.885986 
z"/>
<path fill="#B6B5B7" opacity="1.000000" stroke="none" 
	d="
M350.697815,371.982788 
	C350.537354,372.324188 350.071625,372.669464 349.293945,373.003052 
	C349.452179,372.656494 349.922363,372.321594 350.697815,371.982788 
z"/>
<path fill="#949494" opacity="1.000000" stroke="none" 
	d="
M347.728333,373.985382 
	C347.551880,374.318207 347.067261,374.670258 346.267334,375.018707 
	C346.441437,374.678284 346.930817,374.341461 347.728333,373.985382 
z"/>
<path fill="#B6B5B7" opacity="1.000000" stroke="none" 
	d="
M371.186035,375.756134 
	C370.757568,375.858215 370.073883,375.723358 369.203094,375.286987 
	C369.654266,375.163361 370.292542,375.341248 371.186035,375.756134 
z"/>
<path fill="#CFCFCF" opacity="1.000000" stroke="none" 
	d="
M434.756409,355.142822 
	C434.827484,355.530945 434.656952,356.100159 434.237915,356.843933 
	C434.164551,356.453644 434.339661,355.888794 434.756409,355.142822 
z"/>
<path fill="#949494" opacity="1.000000" stroke="none" 
	d="
M338.207794,385.179077 
	C338.008057,385.714722 337.808289,386.250366 337.359863,386.938751 
	C337.111145,387.091492 336.871246,386.896698 336.742676,386.800781 
	C336.854156,386.181976 337.094208,385.659058 337.682281,385.079620 
	C338.030304,385.023071 338.207794,385.179077 338.207794,385.179077 
z"/>
<path fill="#B6B5B7" opacity="1.000000" stroke="none" 
	d="
M373.042297,378.626953 
	C372.639374,378.406311 372.274200,377.843811 371.958801,376.914459 
	C372.365753,377.126770 372.722900,377.705963 373.042297,378.626953 
z"/>
<path fill="#949494" opacity="1.000000" stroke="none" 
	d="
M337.942413,384.944092 
	C338.035095,384.320801 338.215668,383.776520 338.632019,383.062012 
	C338.867767,382.891846 339.095825,383.081360 339.215820,383.176361 
	C339.116577,383.796173 338.897339,384.320984 338.442963,385.012451 
	C338.207794,385.179077 338.030304,385.023071 337.942413,384.944092 
z"/>
<path fill="#949494" opacity="1.000000" stroke="none" 
	d="
M412.762817,413.686859 
	C412.964722,413.319672 413.336365,413.171234 413.708008,413.022766 
	C413.725006,413.311371 413.742035,413.599915 413.538574,414.095795 
	C413.189636,414.170624 413.061127,414.038116 412.762817,413.686859 
z"/>
<path fill="#949494" opacity="1.000000" stroke="none" 
	d="
M344.749329,376.030731 
	C344.851685,376.284424 344.687256,376.601898 344.244751,376.967529 
	C344.138611,376.708618 344.310577,376.401581 344.749329,376.030731 
z"/>
<path fill="#B6B5B7" opacity="1.000000" stroke="none" 
	d="
M373.120361,380.252502 
	C372.983429,380.090973 372.971252,379.871307 372.995422,379.323578 
	C373.344482,378.858154 373.616425,378.915161 373.855713,379.533630 
	C373.863800,379.900726 373.479706,380.050323 373.479706,380.050323 
	C373.479706,380.050323 373.245117,380.194366 373.120361,380.252502 
z"/>
<path fill="#949494" opacity="1.000000" stroke="none" 
	d="
M408.700623,417.705231 
	C408.425751,417.696167 408.363281,417.505585 408.300812,417.315033 
	C408.504883,417.384613 408.708923,417.454193 408.700623,417.705231 
z"/>
<path fill="#B6B5B7" opacity="1.000000" stroke="none" 
	d="
M348.746918,373.053589 
	C348.826691,373.267273 348.656799,373.554199 348.236877,373.913147 
	C348.156982,373.699066 348.327118,373.412933 348.746918,373.053589 
z"/>
<path fill="#949494" opacity="1.000000" stroke="none" 
	d="
M411.108429,416.121704 
	C410.905151,416.464569 410.505096,416.613159 410.105042,416.761780 
	C410.083221,416.496277 410.061371,416.230774 410.266205,415.765808 
	C410.632477,415.686768 410.772064,415.807129 411.108429,416.121704 
z"/>
<path fill="#949494" opacity="1.000000" stroke="none" 
	d="
M395.883575,417.117249 
	C395.385345,417.162445 395.081360,417.012054 394.845154,416.469360 
	C395.051453,415.940582 395.190002,415.804108 395.328583,415.667633 
	C395.633148,415.776520 395.907806,415.936646 396.301910,416.331970 
	C396.326752,416.651184 396.202301,416.786438 395.883575,417.117249 
z"/>
<path fill="#949494" opacity="1.000000" stroke="none" 
	d="
M394.092010,414.913208 
	C394.587799,414.842041 394.846161,415.026459 395.195618,415.468567 
	C395.190002,415.804108 395.051453,415.940582 394.687500,416.268524 
	C394.192139,416.323151 393.962524,416.136658 393.653381,415.715332 
	C393.654480,415.390137 393.775482,415.250122 394.092010,414.913208 
z"/>
<path fill="#949494" opacity="1.000000" stroke="none" 
	d="
M373.969116,379.723541 
	C374.222290,379.890472 374.370178,380.234589 374.518066,380.578705 
	C374.287994,380.545532 374.057922,380.512329 373.653809,380.264740 
	C373.479706,380.050323 373.863800,379.900726 373.969116,379.723541 
z"/>
<path fill="#B6B5B7" opacity="1.000000" stroke="none" 
	d="
M368.965851,374.720123 
	C368.728455,374.812744 368.446503,374.644409 368.092255,374.233459 
	C368.320404,374.146973 368.620850,374.303101 368.965851,374.720123 
z"/>
<path fill="#949494" opacity="1.000000" stroke="none" 
	d="
M415.240295,411.256714 
	C415.058990,411.622894 414.694763,411.798035 414.330536,411.973175 
	C414.302094,411.683990 414.273651,411.394775 414.462952,410.899963 
	C414.806305,410.818115 414.931854,410.941895 415.240295,411.256714 
z"/>
<path fill="#949494" opacity="1.000000" stroke="none" 
	d="
M345.778717,375.055695 
	C345.853424,375.266693 345.681610,375.577667 345.238281,375.953064 
	C345.155243,375.730225 345.343719,375.442932 345.778717,375.055695 
z"/>
<path fill="#949494" opacity="1.000000" stroke="none" 
	d="
M329.149780,395.158997 
	C328.996490,395.421265 328.752838,395.591156 328.509155,395.761047 
	C328.487854,395.531311 328.466553,395.301575 328.659882,394.978912 
	C328.874512,394.885986 329.059387,395.066620 329.149780,395.158997 
z"/>
<path fill="#949494" opacity="1.000000" stroke="none" 
	d="
M342.745026,378.024261 
	C342.854614,378.294525 342.695099,378.622711 342.249573,378.984711 
	C342.134369,378.706421 342.305145,378.394287 342.745026,378.024261 
z"/>
<path fill="#949494" opacity="1.000000" stroke="none" 
	d="
M330.821411,393.829651 
	C330.831970,393.417938 331.022247,393.156677 331.621155,392.950439 
	C331.945831,392.944366 332.146881,393.138092 332.146881,393.138092 
	C332.053345,393.472107 331.858887,393.729980 331.335693,394.005127 
	C331.107910,394.098511 330.917175,393.918976 330.821411,393.829651 
z"/>
<path fill="#949494" opacity="1.000000" stroke="none" 
	d="
M331.845093,392.847717 
	C331.838470,392.430573 332.005829,392.154419 332.441406,391.776154 
	C332.636353,391.629639 332.907379,391.907288 333.042969,392.047668 
	C333.070679,392.508636 332.876801,392.763916 332.371887,393.045959 
	C332.146881,393.138092 331.945831,392.944366 331.845093,392.847717 
z"/>
<path fill="#949494" opacity="1.000000" stroke="none" 
	d="
M343.749023,377.030518 
	C343.850677,377.283905 343.685760,377.601196 343.243652,377.966675 
	C343.138428,377.708069 343.310425,377.401245 343.749023,377.030518 
z"/>
<path fill="#949494" opacity="1.000000" stroke="none" 
	d="
M380.796326,391.194458 
	C380.543518,390.964355 380.418793,390.607880 380.294067,390.251404 
	C380.509186,390.276642 380.724304,390.301880 381.058105,390.569305 
	C381.176758,390.811493 380.924408,391.068054 380.796326,391.194458 
z"/>
<path fill="#B9B8BA" opacity="1.000000" stroke="none" 
	d="
M176.982651,125.143509 
	C176.966995,148.138428 176.984558,171.133514 176.872253,194.127960 
	C176.863342,195.954254 176.265640,199.157227 175.408279,199.350128 
	C172.421875,200.022049 169.171265,199.874207 166.096649,199.467255 
	C165.553818,199.395386 165.074615,196.586426 165.070450,195.040085 
	C165.008408,172.045044 165.031372,149.049744 165.482666,125.547256 
	C169.614944,125.074493 173.298798,125.109001 176.982651,125.143509 
z"/>
<path fill="#FDFDFD" opacity="1.000000" stroke="none" 
	d="
M135.004379,165.103226 
	C135.004150,145.007263 135.133774,124.909851 134.907837,104.816422 
	C134.854645,100.086327 136.533844,98.883904 140.998062,98.879906 
	C145.479034,98.875885 147.129333,100.113335 147.075729,104.827942 
	C146.851120,124.589165 146.983414,144.354446 146.531281,164.580383 
	C142.386536,165.062759 138.695450,165.082993 135.004379,165.103226 
z"/>
<path fill="#CFCFCF" opacity="1.000000" stroke="none" 
	d="
M206.999252,136.059891 
	C206.993179,155.694626 206.878601,175.330368 207.063690,194.963303 
	C207.105576,199.406219 205.965881,201.158218 201.198196,201.147339 
	C196.437424,201.136459 194.847916,199.736801 194.908340,194.874161 
	C195.148193,175.575119 195.008087,156.271362 195.464935,136.490479 
	C199.613831,136.027695 203.306549,136.043793 206.999252,136.059891 
z"/>
<path fill="#B9B8BA" opacity="1.000000" stroke="none" 
	d="
M116.983757,148.136490 
	C116.967781,163.240768 116.792389,178.347565 117.029152,193.447876 
	C117.103996,198.221191 116.052902,200.183182 110.752769,200.201065 
	C105.600426,200.218445 104.853951,198.287262 104.929840,193.805328 
	C105.182709,178.870972 105.026093,163.929672 105.475403,148.488800 
	C109.610847,148.036545 113.297302,148.086517 116.983757,148.136490 
z"/>
<path fill="#FDFDFD" opacity="1.000000" stroke="none" 
	d="
M116.982079,147.654602 
	C113.297302,148.086517 109.610847,148.036545 105.465530,148.024078 
	C105.005653,133.626877 105.179825,119.188805 104.904900,104.759293 
	C104.813446,99.959579 106.658035,98.915306 111.044777,98.881027 
	C115.581223,98.845558 117.159424,100.208611 117.073914,104.865746 
	C116.815048,118.963890 116.980362,133.069824 116.982079,147.654602 
z"/>
<path fill="#FDFDFD" opacity="1.000000" stroke="none" 
	d="
M206.992310,135.585175 
	C203.306549,136.043793 199.613831,136.027695 195.460587,136.024139 
	C195.001465,125.378883 195.203049,114.715721 194.917313,104.065643 
	C194.780655,98.971512 197.629486,99.022003 201.277100,98.942352 
	C205.088150,98.859146 207.167267,99.656738 207.059250,104.138199 
	C206.810547,114.456894 206.983521,124.785744 206.992310,135.585175 
z"/>
<path fill="#CFCFCF" opacity="1.000000" stroke="none" 
	d="
M135.010132,165.561462 
	C138.695450,165.082993 142.386536,165.062759 146.537979,165.052979 
	C146.992386,175.010651 146.756683,184.965149 147.070969,194.902237 
	C147.245560,200.422867 143.931961,199.857559 140.307846,200.083908 
	C136.267075,200.336273 134.777390,199.130188 134.912415,194.863815 
	C135.216446,185.257629 135.012863,175.635406 135.010132,165.561462 
z"/>
<path fill="#FDFDFD" opacity="1.000000" stroke="none" 
	d="
M176.982117,124.660980 
	C173.298798,125.109001 169.614944,125.074493 165.473724,125.087067 
	C165.012466,118.014877 165.200867,110.888496 164.937576,103.778831 
	C164.760010,98.984138 167.575317,98.977371 171.011139,98.964241 
	C174.486252,98.950966 177.234940,99.057709 177.047546,103.816689 
	C176.780655,110.594299 176.980896,117.390312 176.982117,124.660980 
z"/>
<path fill="#E4E4E4" opacity="1.000000" stroke="none" 
	d="
M429.000000,43.000305 
	C453.150879,43.000313 476.801758,42.996155 500.452637,43.003044 
	C506.927246,43.004929 506.995087,43.061821 506.996033,49.301006 
	C507.003174,96.769318 506.946503,144.237778 507.084106,191.705688 
	C507.097595,196.364380 505.921753,198.114700 500.945740,198.097778 
	C452.978302,197.934631 405.009918,197.934204 357.042480,198.098206 
	C352.056519,198.115250 350.900604,196.347412 350.913971,191.699509 
	C351.050690,144.231598 350.994385,96.763130 351.001556,49.294823 
	C351.002502,43.059952 351.068695,43.004913 357.547516,43.003036 
	C381.198334,42.996174 404.849182,43.000309 429.000000,43.000305 
M432.350067,79.366669 
	C433.967316,79.586067 435.584045,79.991173 437.201935,79.996063 
	C453.013885,80.043839 468.827942,79.890182 484.636932,80.111526 
	C489.053497,80.173363 491.111542,78.949722 491.030945,74.295135 
	C490.917603,67.751144 489.828369,66.045097 484.662567,66.034752 
	C468.684082,66.002762 452.705261,65.981514 436.727386,66.084457 
	C435.054840,66.095238 433.387848,66.959770 430.893921,67.018166 
	C410.314331,66.966385 389.734772,66.912605 369.155151,66.884781 
	C368.888214,66.884422 368.620789,67.214195 368.343903,67.396263 
	C368.343903,71.623405 368.343903,75.834213 368.343903,80.331970 
	C388.616760,80.331970 408.543945,80.358612 428.470551,80.261200 
	C429.583862,80.255760 430.692169,79.226128 432.350067,79.366669 
M434.967957,97.983002 
	C414.153259,97.968864 393.338165,98.018394 372.524323,97.877335 
	C369.093140,97.854080 367.525055,98.838623 367.980072,102.388062 
	C368.127075,103.534828 368.150360,104.738914 367.976349,105.878006 
	C367.313538,110.217667 369.363831,111.093254 373.346771,111.058601 
	C394.160095,110.877464 414.975769,110.965569 436.766663,110.993950 
	C453.250519,110.999405 469.735413,110.907982 486.217438,111.084976 
	C489.895813,111.124481 491.551819,110.094704 491.020538,106.307121 
	C490.883087,105.327385 490.883362,104.295685 491.020355,103.315811 
	C491.585449,99.273994 490.115448,97.832649 485.840668,97.894829 
	C469.193756,98.137009 452.541412,98.009300 434.967957,97.983002 
M410.962280,142.002518 
	C435.569031,142.005188 460.178070,141.829285 484.780701,142.149033 
	C490.227722,142.219818 490.205414,139.592209 490.050659,135.771362 
	C489.904785,132.170380 490.940674,128.753159 484.823914,128.841263 
	C459.889801,129.200439 434.947540,128.996094 409.069336,128.994766 
	C396.947632,128.992004 384.823578,129.121902 372.705627,128.907669 
	C368.948090,128.841248 367.477234,130.051346 367.983490,133.742584 
	C368.117615,134.720505 368.121460,135.749084 367.983154,136.725800 
	C367.408600,140.783279 368.927887,142.204819 373.167389,142.111481 
	C385.449310,141.841080 397.740784,142.006531 410.962280,142.002518 
M458.687317,160.013412 
	C431.205475,159.997574 403.723541,159.933197 376.241852,159.993057 
	C367.021301,160.013138 368.182068,158.353195 367.954559,168.674362 
	C367.886536,171.761093 368.624512,173.142624 372.077911,173.125137 
	C401.224060,172.977676 430.371002,172.988373 460.543854,172.992874 
	C467.543243,173.003555 474.543457,173.087936 481.541779,173.006866 
	C490.973419,172.897598 489.822449,174.594467 490.088684,164.519958 
	C490.179810,161.070999 489.110199,159.826843 485.565613,159.920624 
	C476.905396,160.149673 468.235931,160.029053 458.687317,160.013412 
z"/>
<path fill="#E5E5E5" opacity="1.000000" stroke="none" 
	d="
M59.010265,485.997559 
	C43.998482,485.997559 43.998470,485.997559 43.998474,471.658325 
	C43.998482,425.999023 43.996483,380.339752 44.000732,334.680450 
	C44.001350,328.017700 44.015163,328.003082 50.668110,328.002502 
	C99.493553,327.998291 148.319138,328.050812 197.144196,327.915009 
	C201.559158,327.902740 203.128571,328.877899 203.110413,333.666595 
	C202.927185,381.991425 203.001556,430.317200 202.995636,478.642731 
	C202.994797,485.401825 202.384857,485.994446 195.485809,485.995148 
	C150.159805,485.999817 104.833809,485.997559 59.010265,485.997559 
M77.993378,397.953552 
	C74.769119,410.346222 74.451210,422.589569 80.946381,434.094452 
	C88.392319,447.283447 99.508080,455.416260 114.854980,456.967499 
	C125.454636,458.038879 135.236801,455.369019 144.817291,450.294312 
	C147.339493,455.498383 149.861694,460.702454 152.378159,465.894684 
	C176.386459,455.431458 195.272690,425.225464 188.007263,392.204102 
	C181.324799,361.832336 153.344986,340.280121 120.687302,341.051605 
	C91.754250,341.735077 64.083328,365.113251 59.617786,392.957886 
	C65.718666,394.351257 71.848434,395.751221 77.993378,397.953552 
z"/>
<path fill="#FDFDFD" opacity="1.000000" stroke="none" 
	d="
M439.900513,339.714111 
	C445.071014,336.862885 449.440063,337.664764 449.734375,341.575470 
	C449.912323,343.939789 448.742950,347.134583 447.026154,348.652130 
	C445.909729,349.639038 442.258545,348.961700 440.562378,347.816406 
	C437.799591,345.950989 437.379974,342.923126 439.900513,339.714111 
z"/>
<path fill="#B6B5B7" opacity="1.000000" stroke="none" 
	d="
M459.517700,172.951538 
	C430.371002,172.988373 401.224060,172.977676 372.077911,173.125137 
	C368.624512,173.142624 367.886536,171.761093 367.954559,168.674362 
	C368.182068,158.353195 367.021301,160.013138 376.241852,159.993057 
	C403.723541,159.933197 431.205475,159.997574 459.210876,160.486267 
	C459.662170,164.956604 459.589935,168.954086 459.517700,172.951538 
z"/>
<path fill="#F6F6F6" opacity="1.000000" stroke="none" 
	d="
M410.008301,128.999405 
	C434.947540,128.996094 459.889801,129.200439 484.823914,128.841263 
	C490.940674,128.753159 489.904785,132.170380 490.050659,135.771362 
	C490.205414,139.592209 490.227722,142.219818 484.780701,142.149033 
	C460.178070,141.829285 435.569031,142.005188 410.499847,141.538452 
	C410.027710,137.049393 410.018005,133.024399 410.008301,128.999405 
z"/>
<path fill="#B6B5B7" opacity="1.000000" stroke="none" 
	d="
M435.790619,110.960037 
	C414.975769,110.965569 394.160095,110.877464 373.346771,111.058601 
	C369.363831,111.093254 367.313538,110.217667 367.976349,105.878006 
	C368.150360,104.738914 368.127075,103.534828 367.980072,102.388062 
	C367.525055,98.838623 369.093140,97.854080 372.524323,97.877335 
	C393.338165,98.018394 414.153259,97.968864 435.465149,98.461304 
	C435.905090,102.946419 435.847870,106.953224 435.790619,110.960037 
z"/>
<path fill="#060606" opacity="1.000000" stroke="none" 
	d="
M431.802856,78.673203 
	C430.692169,79.226128 429.583862,80.255760 428.470551,80.261200 
	C408.543945,80.358612 388.616760,80.331970 368.343903,80.331970 
	C368.343903,75.834213 368.343903,71.623405 368.343903,67.396263 
	C368.620789,67.214195 368.888214,66.884422 369.155151,66.884781 
	C389.734772,66.912605 410.314331,66.966385 431.284851,67.650787 
	C431.718140,71.746666 431.760498,75.209930 431.802856,78.673203 
z"/>
<path fill="#FDFDFD" opacity="1.000000" stroke="none" 
	d="
M432.076477,79.019928 
	C431.760498,75.209930 431.718140,71.746666 431.697021,67.855797 
	C433.387848,66.959770 435.054840,66.095238 436.727386,66.084457 
	C452.705261,65.981514 468.684082,66.002762 484.662567,66.034752 
	C489.828369,66.045097 490.917603,67.751144 491.030945,74.295135 
	C491.111542,78.949722 489.053497,80.173363 484.636932,80.111526 
	C468.827942,79.890182 453.013885,80.043839 437.201935,79.996063 
	C435.584045,79.991173 433.967316,79.586067 432.076477,79.019928 
z"/>
<path fill="#F6F6F6" opacity="1.000000" stroke="none" 
	d="
M436.278625,110.976990 
	C435.847870,106.953224 435.905090,102.946419 435.926727,98.479401 
	C452.541412,98.009300 469.193756,98.137009 485.840668,97.894829 
	C490.115448,97.832649 491.585449,99.273994 491.020355,103.315811 
	C490.883362,104.295685 490.883087,105.327385 491.020538,106.307121 
	C491.551819,110.094704 489.895813,111.124481 486.217438,111.084976 
	C469.735413,110.907982 453.250519,110.999405 436.278625,110.976990 
z"/>
<path fill="#CCCCCC" opacity="1.000000" stroke="none" 
	d="
M409.538818,128.997086 
	C410.018005,133.024399 410.027710,137.049393 410.032959,141.537659 
	C397.740784,142.006531 385.449310,141.841080 373.167389,142.111481 
	C368.927887,142.204819 367.408600,140.783279 367.983154,136.725800 
	C368.121460,135.749084 368.117615,134.720505 367.983490,133.742584 
	C367.477234,130.051346 368.948090,128.841248 372.705627,128.907669 
	C384.823578,129.121902 396.947632,128.992004 409.538818,128.997086 
z"/>
<path fill="#FDFDFD" opacity="1.000000" stroke="none" 
	d="
M460.030762,172.972214 
	C459.589935,168.954086 459.662170,164.956604 459.652283,160.504166 
	C468.235931,160.029053 476.905396,160.149673 485.565613,159.920624 
	C489.110199,159.826843 490.179810,161.070999 490.088684,164.519958 
	C489.822449,174.594467 490.973419,172.897598 481.541779,173.006866 
	C474.543457,173.087936 467.543243,173.003555 460.030762,172.972214 
z"/>
<path fill="#060606" opacity="1.000000" stroke="none" 
	d="
M77.978195,397.151184 
	C71.848434,395.751221 65.718666,394.351257 59.617786,392.957886 
	C64.083328,365.113251 91.754250,341.735077 120.687302,341.051605 
	C153.344986,340.280121 181.324799,361.832336 188.007263,392.204102 
	C195.272690,425.225464 176.386459,455.431458 152.378159,465.894684 
	C149.861694,460.702454 147.339493,455.498383 144.492157,449.713593 
	C142.654373,445.880066 141.141724,442.627289 139.577972,439.264587 
	C149.097260,433.398193 156.306686,426.227142 158.356628,414.672150 
	C158.773727,410.852844 159.266632,407.371429 159.100052,403.921875 
	C158.036575,381.900269 135.055420,366.137543 113.554810,372.826111 
	C99.945366,376.831818 92.344910,386.227173 88.481926,399.061493 
	C84.797020,398.391327 81.387611,397.771240 77.978195,397.151184 
z"/>
<path fill="#CCCCCC" opacity="1.000000" stroke="none" 
	d="
M158.127502,415.024780 
	C156.306686,426.227142 149.097260,433.398193 139.577972,439.264587 
	C141.141724,442.627289 142.654373,445.880066 144.227112,449.491943 
	C135.236801,455.369019 125.454636,458.038879 114.854980,456.967499 
	C99.508080,455.416260 88.392319,447.283447 80.946381,434.094452 
	C74.451210,422.589569 74.769119,410.346222 77.985786,397.552368 
	C81.387611,397.771240 84.797020,398.391327 88.481926,399.061493 
	C92.344910,386.227173 99.945366,376.831818 113.617142,373.242249 
	C114.696960,377.857056 115.336784,382.045807 115.982094,386.270477 
	C114.086281,386.878540 112.700867,387.402130 111.274979,387.767944 
	C97.691315,391.252472 88.701271,408.596497 93.679764,421.933807 
	C98.392929,434.560333 108.858047,440.534943 119.816040,440.852173 
	C130.971588,441.175110 143.074371,432.208038 145.433746,421.355469 
	C146.690918,415.572723 149.154999,414.337250 154.131241,414.979584 
	C155.443420,415.148956 156.794357,415.017883 158.127502,415.024780 
z"/>
<path fill="#E4E4E4" opacity="1.000000" stroke="none" 
	d="
M158.356628,414.672119 
	C156.794357,415.017883 155.443420,415.148956 154.131241,414.979584 
	C149.154999,414.337250 146.690918,415.572723 145.433746,421.355469 
	C143.074371,432.208038 130.971588,441.175110 119.816040,440.852173 
	C108.858047,440.534943 98.392929,434.560333 93.679764,421.933807 
	C88.701271,408.596497 97.691315,391.252472 111.274979,387.767944 
	C112.700867,387.402130 114.086281,386.878540 115.982094,386.270477 
	C115.336784,382.045807 114.696960,377.857056 113.994812,373.252106 
	C135.055420,366.137543 158.036575,381.900269 159.100052,403.921875 
	C159.266632,407.371429 158.773727,410.852844 158.356628,414.672119 
z"/>
</svg>