<svg version="1.1" id="Layer_1" xmlns="http://www.w3.org/2000/svg" xmlns:xlink="http://www.w3.org/1999/xlink" x="0px" y="0px"
	 width="100%" viewBox="0 0 559 518" enable-background="new 0 0 559 518" xml:space="preserve">
<path fill="#000000" opacity="1.000000" stroke="none" 
	d="
M325.000000,519.000000 
	C217.077744,519.000000 109.155472,519.000000 1.000000,519.000000 
	C1.000000,424.645905 1.000000,330.291595 1.282767,235.160309 
	C4.959412,238.365982 9.287267,239.107269 14.387249,239.097198 
	C86.519135,238.954681 158.651398,239.000275 230.783569,239.000244 
	C238.938354,239.000244 241.999619,235.943176 241.999725,227.786636 
	C242.000671,157.320343 241.999069,86.854034 242.002548,16.387735 
	C242.002808,11.021486 243.122757,5.320379 237.473938,1.700520 
	C237.649292,1.467017 237.824646,1.233511 238.000000,1.000003 
	C345.255157,1.000000 452.510345,1.000000 560.000000,1.000000 
	C560.000000,93.687431 560.000000,186.375061 559.717285,279.839691 
	C556.040161,276.635132 551.712830,275.892517 546.612610,275.902710 
	C475.146973,276.045776 403.681000,275.999786 332.215088,275.999725 
	C324.099854,275.999695 321.000488,279.084106 321.000366,287.175690 
	C320.999329,359.307922 321.003479,431.440186 320.992340,503.572418 
	C320.991516,508.962646 319.923981,514.648010 325.524689,518.299744 
	C325.349792,518.533142 325.174896,518.766602 325.000000,519.000000 
M163.500000,485.002136 
	C184.999878,485.002106 206.499756,485.004272 227.999634,485.000854 
	C235.271530,484.999695 236.999969,483.286987 237.000244,476.073517 
	C237.002533,417.407043 237.001663,358.740601 237.001358,300.074127 
	C237.001312,293.619232 234.365387,291.014282 227.771408,291.013733 
	C169.938278,291.008881 112.105156,291.009125 54.272026,291.013336 
	C47.656445,291.013824 44.998856,293.620361 44.998695,300.071381 
	C44.997242,358.737823 44.996769,417.404297 44.999283,476.070740 
	C44.999592,483.288330 46.725876,485.000153 54.000381,485.000732 
	C90.166924,485.003723 126.333458,485.002106 163.500000,485.002136 
M341.500000,17.997929 
	C333.000092,17.997950 324.500153,17.994398 316.000244,17.999077 
	C308.672180,18.003113 306.999878,19.650320 306.999573,26.894669 
	C306.996918,89.227936 306.997314,151.561203 306.998932,213.894470 
	C306.999115,221.405487 308.634583,223.001160 316.324493,223.001312 
	C375.824432,223.002548 435.324371,223.002609 494.824310,223.001266 
	C502.355499,223.001099 504.000610,221.341370 504.000732,213.748260 
	C504.001831,151.414993 504.001282,89.081726 504.001373,26.748465 
	C504.001373,19.467470 502.498932,17.999420 494.999847,17.999092 
	C444.166565,17.996866 393.333282,17.997931 341.500000,17.997929 
z"/>
<path fill="#E5E5E5" opacity="1.000000" stroke="none" 
	d="
M325.468658,519.000000 
	C325.174896,518.766602 325.349792,518.533142 325.524689,518.299744 
	C319.923981,514.648010 320.991516,508.962646 320.992340,503.572418 
	C321.003479,431.440186 320.999329,359.307922 321.000366,287.175690 
	C321.000488,279.084106 324.099854,275.999695 332.215088,275.999725 
	C403.681000,275.999786 475.146973,276.045776 546.612610,275.902710 
	C551.712830,275.892517 556.040161,276.635132 559.717285,280.308350 
	C560.000000,359.593079 560.000000,439.186157 560.000000,519.000000 
	C481.979248,519.000000 403.958282,519.000000 325.468658,519.000000 
M407.662781,438.633850 
	C406.149261,439.267853 404.635742,439.901886 403.122192,440.535858 
	C404.153931,441.577332 405.185638,442.618805 406.217346,443.660309 
	C406.859924,442.172424 407.502502,440.684570 407.662781,438.633850 
M477.979950,440.521912 
	C476.497498,439.929596 475.015015,439.337311 473.532562,438.744995 
	C473.500031,440.170471 473.467529,441.595978 473.435028,443.021484 
	C474.946289,442.434418 476.457520,441.847321 477.979950,440.521912 
M388.244476,420.591980 
	C389.770966,419.996155 391.297485,419.400299 392.823975,418.804474 
	C391.825134,417.791779 390.826294,416.779053 389.827484,415.766327 
	C389.139740,417.183990 388.451996,418.601624 388.244476,420.591980 
M442.230774,454.336578 
	C441.629791,452.866455 441.028809,451.396362 440.427856,449.926270 
	C439.361298,450.881165 438.294739,451.836090 437.228180,452.790985 
	C438.727966,453.474854 440.227753,454.158722 442.230774,454.336578 
M403.396637,353.277130 
	C404.369263,354.546906 405.341888,355.816650 406.314514,357.086395 
	C407.088623,355.900909 407.862732,354.715393 408.636871,353.529907 
	C407.041046,353.263245 405.445251,352.996613 403.396637,353.277130 
M442.877838,343.117859 
	C442.663818,340.261261 441.062469,339.192841 438.629517,340.533417 
	C437.893463,340.938934 438.041687,342.949280 437.784882,344.224548 
	C439.403717,344.086426 441.022522,343.948303 442.877838,343.117859 
z"/>
<path fill="#E5E5E5" opacity="1.000000" stroke="none" 
	d="
M237.531342,1.000003 
	C237.824646,1.233511 237.649292,1.467017 237.473938,1.700520 
	C243.122757,5.320379 242.002808,11.021486 242.002548,16.387735 
	C241.999069,86.854034 242.000671,157.320343 241.999725,227.786636 
	C241.999619,235.943176 238.938354,239.000244 230.783569,239.000244 
	C158.651398,239.000275 86.519135,238.954681 14.387249,239.097198 
	C9.287267,239.107269 4.959412,238.365982 1.282767,234.691650 
	C1.000000,157.072495 1.000000,79.144981 1.000000,1.000000 
	C79.687424,1.000000 158.375061,1.000000 237.531342,1.000003 
M18.456865,217.217667 
	C18.642450,218.890976 18.828033,220.564270 19.013618,222.237579 
	C20.499245,221.743454 21.984871,221.249313 24.466581,220.888092 
	C52.773911,220.925201 81.081245,220.996002 109.388565,220.991058 
	C146.021835,220.984665 182.655121,220.917862 219.764114,221.328613 
	C221.450119,221.367142 223.136124,221.405670 224.822128,221.444199 
	C224.205460,219.663742 223.588791,217.883286 222.993301,215.561050 
	C222.994400,215.380325 222.995483,215.199600 223.551422,214.393082 
	C223.700714,213.085098 223.980148,211.777161 223.980621,210.469131 
	C224.002121,149.877167 224.006866,89.285210 223.957367,28.693295 
	C223.956070,27.122303 223.330811,25.551823 222.999496,23.416725 
	C223.001343,23.041164 223.003204,22.665606 223.575806,21.919378 
	C223.894440,20.257164 224.213058,18.594950 224.531677,16.932735 
	C222.728577,17.295912 220.925476,17.659088 218.169800,18.010626 
	C153.363968,18.023855 88.558144,18.037086 23.293554,17.540915 
	C21.653664,17.352568 20.013773,17.164223 18.373882,16.975876 
	C18.581964,18.667274 18.790047,20.358675 18.999662,22.695570 
	C18.998777,23.125589 18.997894,23.555607 19.000320,24.925951 
	C18.991524,88.880264 18.982725,152.834564 18.456865,217.217667 
z"/>
<path fill="#E5E5E5" opacity="1.000000" stroke="none" 
	d="
M163.000000,485.002136 
	C126.333458,485.002106 90.166924,485.003723 54.000381,485.000732 
	C46.725876,485.000153 44.999592,483.288330 44.999283,476.070740 
	C44.996769,417.404297 44.997242,358.737823 44.998695,300.071381 
	C44.998856,293.620361 47.656445,291.013824 54.272026,291.013336 
	C112.105156,291.009125 169.938278,291.008881 227.771408,291.013733 
	C234.365387,291.014282 237.001312,293.619232 237.001358,300.074127 
	C237.001663,358.740601 237.002533,417.407043 237.000244,476.073517 
	C236.999969,483.286987 235.271530,484.999695 227.999634,485.000854 
	C206.499756,485.004272 184.999878,485.002106 163.000000,485.002136 
M104.922798,419.106750 
	C104.922798,429.017273 104.922798,438.927795 104.922798,448.838318 
	C105.298416,448.838043 105.674034,448.837769 106.049652,448.837494 
	C106.049652,438.606720 106.049652,428.375946 106.703033,417.808533 
	C110.364639,414.208710 110.269180,413.038757 106.036507,408.915924 
	C106.036507,382.340973 106.036507,355.766052 106.036507,329.191101 
	C105.671326,329.190704 105.306145,329.190277 104.940964,329.189880 
	C104.940964,356.056824 104.940964,382.923737 104.298820,410.047821 
	C100.241989,413.386841 100.381523,415.165497 104.922798,419.106750 
M160.907501,363.389832 
	C160.907501,351.857056 160.907501,340.324249 160.907501,328.791473 
	C160.278824,328.801270 159.650146,328.811096 159.021469,328.820923 
	C159.021469,340.570679 159.021469,352.320465 158.422516,364.413971 
	C155.197327,367.492065 154.865265,370.274963 159.114258,373.557434 
	C159.114258,398.457703 159.114258,423.358002 159.114258,448.258270 
	C159.571732,448.270813 160.029221,448.283325 160.486694,448.295837 
	C160.647552,447.699524 160.950256,447.102844 160.948837,446.506897 
	C160.890167,421.848145 160.804230,397.189453 161.330475,372.202240 
	C165.199615,368.706818 165.108780,367.386749 160.907501,363.389832 
M140.964966,402.049500 
	C140.964966,417.453064 140.964966,432.856628 140.964966,448.260162 
	C141.675980,448.257843 142.387009,448.255524 143.098022,448.253174 
	C143.098022,432.971954 143.098022,417.690704 143.704956,402.239929 
	C147.115738,399.446869 146.304565,397.032196 142.988953,393.921600 
	C142.988953,372.524780 142.988953,351.127930 142.988953,329.731110 
	C142.309128,329.735046 141.629288,329.738983 140.949463,329.742920 
	C140.949463,351.420624 140.949463,373.098328 140.265762,395.071869 
	C136.772141,398.843719 136.912445,400.061066 140.964966,402.049500 
M85.314804,380.068390 
	C81.820656,383.031586 82.802345,385.519958 86.083046,388.725616 
	C86.083046,408.579102 86.083046,428.432556 86.083046,448.286041 
	C86.718651,448.277252 87.354263,448.268494 87.989868,448.259705 
	C87.989868,428.162842 87.989868,408.065948 88.545853,387.505676 
	C92.506371,383.788818 92.093910,381.603790 87.586685,378.962524 
	C87.586685,362.249817 87.586685,345.537109 87.586685,328.824371 
	C87.040756,328.825165 86.494827,328.825928 85.948898,328.826691 
	C85.948898,345.808258 85.948898,362.789825 85.314804,380.068390 
M176.854416,426.382935 
	C176.854416,433.681244 176.854416,440.979523 176.854416,448.277832 
	C177.517303,448.264313 178.180191,448.250824 178.843079,448.237335 
	C178.843079,408.439819 178.843079,368.642303 178.843079,328.844788 
	C178.244019,328.839294 177.644958,328.833832 177.045898,328.828339 
	C177.045898,330.536560 177.045898,332.244781 177.045898,333.953003 
	C177.045883,360.073822 177.061096,386.194641 177.011993,412.315369 
	C177.008682,414.076324 177.142838,416.424805 176.139999,417.485901 
	C173.198105,420.598877 175.949966,422.987091 176.854416,426.382935 
M197.024185,441.371277 
	C197.024170,415.920197 197.018951,390.469116 197.034256,365.018036 
	C197.035461,363.025696 196.315811,360.715240 199.581314,360.190399 
	C200.250153,360.082916 200.624359,358.142151 201.281509,356.730347 
	C199.434326,356.362762 198.259979,356.129059 196.854843,355.849426 
	C196.854843,346.751465 196.854843,337.983032 196.854843,329.214569 
	C196.607468,329.211731 196.360107,329.208893 196.112732,329.206055 
	C196.112732,338.072388 196.112732,346.938751 196.112732,355.698883 
	C194.525360,356.078613 193.367249,356.355652 191.215698,356.870361 
	C197.301453,362.767670 195.908630,369.701630 195.916275,376.351349 
	C195.942108,398.808136 195.926132,421.265015 195.926132,443.721832 
	C195.926132,445.390381 195.926132,447.058929 195.926132,448.727478 
	C196.292175,448.720978 196.658203,448.714478 197.024246,448.707977 
	C197.024246,446.578033 197.024246,444.448059 197.024185,441.371277 
M122.975822,431.498871 
	C122.975822,437.273346 122.975822,443.047821 122.975822,448.822296 
	C123.227417,448.819244 123.479012,448.816162 123.730606,448.813110 
	C123.730606,419.284576 123.730606,389.756042 123.730606,360.227509 
	C123.478989,360.227020 123.227371,360.226501 122.975754,360.225983 
	C122.975754,383.650452 122.975754,407.074890 122.975822,431.498871 
M121.796432,356.891663 
	C126.354050,357.120056 128.827576,355.086609 127.191612,352.177032 
	C126.437874,350.836487 123.654533,349.396362 122.397697,349.816193 
	C118.874008,350.993286 119.042389,353.716949 121.796432,356.891663 
z"/>
<path fill="#E5E5E5" opacity="1.000000" stroke="none" 
	d="
M342.000000,17.997929 
	C393.333282,17.997931 444.166565,17.996866 494.999847,17.999092 
	C502.498932,17.999420 504.001373,19.467470 504.001373,26.748465 
	C504.001282,89.081726 504.001831,151.414993 504.000732,213.748260 
	C504.000610,221.341370 502.355499,223.001099 494.824310,223.001266 
	C435.324371,223.002609 375.824432,223.002548 316.324493,223.001312 
	C308.634583,223.001160 306.999115,221.405487 306.998932,213.894470 
	C306.997314,151.561203 306.996918,89.227936 306.999573,26.894669 
	C306.999878,19.650320 308.672180,18.003113 316.000244,17.999077 
	C324.500153,17.994398 333.000092,17.997950 342.000000,17.997929 
M449.666260,163.028183 
	C452.163788,163.016266 454.661346,162.999100 457.158875,162.993439 
	C464.583984,162.976639 465.017487,162.545837 465.018555,154.988220 
	C465.022430,126.848030 465.021729,98.707832 465.019073,70.567642 
	C465.018341,62.967106 465.012421,62.961002 457.170258,62.960175 
	C429.696106,62.957279 402.221954,62.958881 374.747803,62.958958 
	C363.117767,62.958988 363.117767,62.959190 362.083496,74.854279 
	C357.153717,74.854279 352.223938,74.854279 347.286072,74.854279 
	C347.286072,109.619972 347.286072,143.743286 347.286072,177.786194 
	C381.229126,177.786194 414.740784,177.786194 448.701019,177.786194 
	C448.701019,172.652390 448.701019,167.865112 449.666260,163.028183 
z"/>
<path fill="#404040" opacity="1.000000" stroke="none" 
	d="
M407.903931,438.915283 
	C407.502502,440.684570 406.859924,442.172424 406.217346,443.660309 
	C405.185638,442.618805 404.153931,441.577332 403.122192,440.535889 
	C404.635742,439.901886 406.149261,439.267853 407.903931,438.915283 
z"/>
<path fill="#404040" opacity="1.000000" stroke="none" 
	d="
M477.974365,440.891083 
	C476.457520,441.847321 474.946289,442.434418 473.435028,443.021484 
	C473.467529,441.595978 473.500031,440.170471 473.532562,438.744995 
	C475.015015,439.337311 476.497498,439.929596 477.974365,440.891083 
z"/>
<path fill="#404040" opacity="1.000000" stroke="none" 
	d="
M388.004364,420.305634 
	C388.451996,418.601624 389.139740,417.183990 389.827484,415.766327 
	C390.826294,416.779053 391.825134,417.791779 392.823975,418.804474 
	C391.297485,419.400299 389.770966,419.996155 388.004364,420.305634 
z"/>
<path fill="#404040" opacity="1.000000" stroke="none" 
	d="
M441.979156,454.589600 
	C440.227753,454.158722 438.727966,453.474854 437.228210,452.791016 
	C438.294739,451.836090 439.361298,450.881165 440.427856,449.926270 
	C441.028809,451.396362 441.629791,452.866455 441.979156,454.589600 
z"/>
<path fill="#404040" opacity="1.000000" stroke="none" 
	d="
M403.623047,353.003540 
	C405.445251,352.996613 407.041046,353.263245 408.636841,353.529907 
	C407.862732,354.715393 407.088623,355.900909 406.314514,357.086426 
	C405.341888,355.816650 404.369263,354.546906 403.623047,353.003540 
z"/>
<path fill="#404040" opacity="1.000000" stroke="none" 
	d="
M442.759583,343.464020 
	C441.022522,343.948303 439.403717,344.086426 437.784882,344.224548 
	C438.041687,342.949280 437.893463,340.938934 438.629517,340.533417 
	C441.062469,339.192841 442.663818,340.261261 442.759583,343.464020 
z"/>
<path fill="#E5E5E5" opacity="1.000000" stroke="none" 
	d="
M18.997009,23.985626 
	C18.997894,23.555607 18.998777,23.125589 19.373833,22.378613 
	C21.167957,21.041424 22.587910,20.021193 24.476025,18.999416 
	C89.602715,19.001715 154.261246,19.005556 219.017288,19.353558 
	C220.411560,20.561829 221.708313,21.425938 223.005066,22.290047 
	C223.003204,22.665606 223.001343,23.041164 222.999481,24.169762 
	C222.998489,88.288162 222.997513,151.653519 222.996552,215.018890 
	C222.995483,215.199600 222.994400,215.380325 222.648682,215.898468 
	C221.180649,217.488281 220.057266,218.740662 218.471252,219.995453 
	C153.324677,220.000183 88.640724,220.002502 23.909607,219.672913 
	C22.588940,218.287949 21.315430,217.234894 20.029797,215.701935 
	C20.011353,153.543976 20.014744,91.865936 19.956579,30.187950 
	C19.954630,28.120209 19.330906,26.053055 18.997009,23.985626 
M103.081184,99.540489 
	C122.783333,109.764969 141.471848,102.473083 150.590469,86.390724 
	C161.776184,66.662704 152.305328,43.561295 130.665222,36.498383 
	C113.429024,30.872812 97.362068,39.076397 89.767494,53.805759 
	C81.160034,70.499557 86.903893,88.935562 103.081184,99.540489 
M143.055313,196.612839 
	C149.848129,196.170609 152.915268,193.749313 153.112991,188.673035 
	C153.293106,184.048828 150.097855,180.200104 145.246643,180.151459 
	C128.757477,179.986069 112.264618,180.003052 95.775375,180.169296 
	C91.963760,180.207718 89.149857,182.466782 88.202492,186.309357 
	C87.263924,190.116302 88.560318,193.450745 91.946091,195.289352 
	C93.861946,196.329727 96.405251,196.542526 98.670105,196.559082 
	C113.161591,196.665009 127.654236,196.613022 143.055313,196.612839 
M130.474609,139.791748 
	C133.461792,139.791580 136.503983,140.132309 139.415390,139.662552 
	C141.143616,139.383698 142.665771,137.827637 144.280594,136.845840 
	C142.686188,135.887833 141.106384,134.128265 139.495071,134.098938 
	C126.886711,133.869400 114.270508,133.870773 101.661987,134.095810 
	C100.027542,134.124985 98.423157,135.837997 96.804840,136.771042 
	C98.403854,137.777649 99.978088,139.605927 101.605988,139.655060 
	C110.890991,139.935211 120.188789,139.791428 130.474609,139.791748 
M183.597275,135.066559 
	C181.604095,135.067184 179.567719,134.821228 177.633835,135.160156 
	C176.458862,135.366089 175.442230,136.475449 174.354462,137.178955 
	C175.407990,137.909821 176.450470,139.255981 177.516769,139.275131 
	C186.815247,139.442123 196.118942,139.434494 205.418228,139.291779 
	C206.580353,139.273941 207.725784,138.168610 208.878952,137.567169 
	C207.752853,136.734238 206.648865,135.217697 205.497009,135.180405 
	C198.528198,134.954788 191.548447,135.067184 183.597275,135.066559 
M123.489609,147.841080 
	C117.356461,147.842255 111.220024,147.742722 105.093338,147.942139 
	C104.052925,147.975998 103.054283,149.293243 102.036339,150.017548 
	C102.968353,150.670456 103.892517,151.877502 104.833611,151.890854 
	C114.611526,152.029541 124.393929,152.060486 134.169495,151.855011 
	C135.231308,151.832703 136.257904,150.136337 137.300842,149.216461 
	C136.981064,148.757996 136.661285,148.299530 136.341507,147.841064 
	C132.389328,147.841064 128.437164,147.841064 123.489609,147.841080 
M208.605728,143.652695 
	C208.341812,143.457214 208.079559,143.093185 207.813766,143.090576 
	C197.550262,142.990356 187.285980,142.868591 177.023361,142.948059 
	C176.135910,142.954910 175.258972,144.320343 174.377151,145.054688 
	C175.342773,145.695328 176.300323,146.877991 177.275269,146.892517 
	C186.716446,147.033127 196.162170,147.058411 205.601654,146.869598 
	C206.703262,146.847565 207.775024,145.333435 208.605728,143.652695 
M42.590263,138.395554 
	C50.655224,138.395554 58.720184,138.395554 66.785141,138.395554 
	C63.889469,134.112671 35.111645,134.150131 31.021280,138.395264 
	C35.393257,138.395264 38.509228,138.395264 42.590263,138.395554 
M64.919830,145.960953 
	C65.511505,145.353622 66.103180,144.746292 66.694862,144.138992 
	C65.565956,143.707123 64.440987,142.912872 63.307522,142.900558 
	C53.991310,142.799301 44.673283,142.813293 35.356503,142.883652 
	C34.262642,142.891891 33.172951,143.453094 32.081326,143.757965 
	C32.128475,144.497818 32.175625,145.237686 32.222775,145.977539 
	C42.820728,145.977539 53.418678,145.977539 64.919830,145.960953 
M188.044083,124.789993 
	C191.030060,124.755203 194.068878,125.029182 196.975647,124.531654 
	C198.117538,124.336220 198.964035,122.414841 199.945068,121.279449 
	C198.877426,120.475372 197.874725,119.109329 196.729446,118.976929 
	C193.779297,118.635902 190.735748,118.584961 187.790421,118.933189 
	C186.263321,119.113731 184.865402,120.387039 183.409119,121.166679 
	C184.671204,122.370872 185.933289,123.575066 188.044083,124.789993 
M41.308277,122.199158 
	C43.728188,124.766106 53.855450,126.069946 56.430008,123.971016 
	C57.181488,123.358376 57.864861,121.955772 57.684235,121.105415 
	C57.504528,120.259369 56.228893,119.081306 55.383057,119.037895 
	C51.412430,118.834114 47.416283,118.843933 43.449299,119.094673 
	C42.666065,119.144165 41.971043,120.589348 41.308277,122.199158 
z"/>
<path fill="#D7D7D7" opacity="1.000000" stroke="none" 
	d="
M23.956764,220.004822 
	C88.640724,220.002502 153.324677,220.000183 218.612823,220.195236 
	C219.216995,220.392609 219.288391,220.877060 219.288391,220.877060 
	C182.655121,220.917862 146.021835,220.984665 109.388565,220.991058 
	C81.081245,220.996002 52.773911,220.925201 24.036711,220.599457 
	C23.606840,220.310822 23.956764,220.004822 23.956764,220.004822 
z"/>
<path fill="#D7D7D7" opacity="1.000000" stroke="none" 
	d="
M218.919769,19.009398 
	C154.261246,19.005556 89.602715,19.001715 24.358528,18.776165 
	C23.766016,18.386410 23.759163,18.218363 23.752312,18.050318 
	C88.558144,18.037086 153.363968,18.023855 218.645798,18.273560 
	C219.054459,18.694128 218.987106,18.851763 218.919769,19.009398 
z"/>
<path fill="#D7D7D7" opacity="1.000000" stroke="none" 
	d="
M18.998665,24.455788 
	C19.330906,26.053055 19.954630,28.120209 19.956579,30.187950 
	C20.014744,91.865936 20.011353,153.543976 19.917564,215.895721 
	C19.571081,216.776352 19.289907,216.849503 18.973927,216.788879 
	C18.982725,152.834564 18.991524,88.880264 18.998665,24.455788 
z"/>
<path fill="#D7D7D7" opacity="1.000000" stroke="none" 
	d="
M223.273987,214.705994 
	C222.997513,151.653519 222.998489,88.288162 222.998001,24.451950 
	C223.330811,25.551823 223.956070,27.122303 223.957367,28.693295 
	C224.006866,89.285210 224.002121,149.877167 223.980621,210.469131 
	C223.980148,211.777161 223.700714,213.085098 223.273987,214.705994 
z"/>
<path fill="#545454" opacity="1.000000" stroke="none" 
	d="
M18.715397,217.003265 
	C19.289907,216.849503 19.571081,216.776352 19.929684,216.375641 
	C21.315430,217.234894 22.588940,218.287949 23.909607,219.672913 
	C23.956764,220.004822 23.606840,220.310822 23.538670,220.533005 
	C21.984871,221.249313 20.499245,221.743454 19.013618,222.237579 
	C18.828033,220.564270 18.642450,218.890976 18.715397,217.003265 
z"/>
<path fill="#545454" opacity="1.000000" stroke="none" 
	d="
M219.526245,221.102844 
	C219.288391,220.877060 219.216995,220.392609 219.075439,220.192841 
	C220.057266,218.740662 221.180649,217.488281 222.638092,216.169357 
	C223.588791,217.883286 224.205460,219.663742 224.822128,221.444199 
	C223.136124,221.405670 221.450119,221.367142 219.526245,221.102844 
z"/>
<path fill="#545454" opacity="1.000000" stroke="none" 
	d="
M23.522934,17.795616 
	C23.759163,18.218363 23.766016,18.386410 23.890366,18.777710 
	C22.587910,20.021193 21.167957,21.041424 19.373066,22.055862 
	C18.790047,20.358675 18.581964,18.667274 18.373882,16.975876 
	C20.013773,17.164223 21.653664,17.352568 23.522934,17.795616 
z"/>
<path fill="#545454" opacity="1.000000" stroke="none" 
	d="
M219.017288,19.353558 
	C218.987106,18.851763 219.054459,18.694128 219.122086,18.279381 
	C220.925476,17.659088 222.728577,17.295912 224.531677,16.932735 
	C224.213058,18.594950 223.894440,20.257164 223.290436,22.104713 
	C221.708313,21.425938 220.411560,20.561829 219.017288,19.353558 
z"/>
<path fill="#BFBFBF" opacity="1.000000" stroke="none" 
	d="
M176.693344,426.020020 
	C175.949966,422.987091 173.198105,420.598877 176.139999,417.485901 
	C177.142838,416.424805 177.008682,414.076324 177.011993,412.315369 
	C177.061096,386.194641 177.045883,360.073822 177.045898,333.953003 
	C177.045898,332.244781 177.045898,330.536560 177.045898,328.828339 
	C177.644958,328.833832 178.244019,328.839294 178.843079,328.844788 
	C178.843079,368.642303 178.843079,408.439819 178.843079,448.237335 
	C178.180191,448.250824 177.517303,448.264313 176.854416,448.277832 
	C176.854416,440.979523 176.854416,433.681244 176.693344,426.020020 
z"/>
<path fill="#B6B6B6" opacity="1.000000" stroke="none" 
	d="
M197.024216,441.844696 
	C197.024246,444.448059 197.024246,446.578033 197.024246,448.707977 
	C196.658203,448.714478 196.292175,448.720978 195.926132,448.727478 
	C195.926132,447.058929 195.926132,445.390381 195.926132,443.721832 
	C195.926132,421.265015 195.942108,398.808136 195.916275,376.351349 
	C195.908630,369.701630 197.301453,362.767670 191.215698,356.870361 
	C193.367249,356.355652 194.525360,356.078613 196.112732,355.698883 
	C196.112732,346.938751 196.112732,338.072388 196.112732,329.206055 
	C196.360107,329.208893 196.607468,329.211731 196.854843,329.214569 
	C196.854843,337.983032 196.854843,346.751465 196.854843,355.849426 
	C198.259979,356.129059 199.434326,356.362762 201.281509,356.730347 
	C200.624359,358.142151 200.250153,360.082916 199.581314,360.190399 
	C196.315811,360.715240 197.035461,363.025696 197.034256,365.018036 
	C197.018951,390.469116 197.024170,415.920197 197.024216,441.844696 
z"/>
<path fill="#C1C1C1" opacity="1.000000" stroke="none" 
	d="
M160.721710,372.530762 
	C160.804230,397.189453 160.890167,421.848145 160.948837,446.506897 
	C160.950256,447.102844 160.647552,447.699524 160.486694,448.295837 
	C160.029221,448.283325 159.571732,448.270813 159.114258,448.258270 
	C159.114258,423.358002 159.114258,398.457703 159.426254,373.003418 
	C159.738251,372.449432 160.236267,372.414032 160.236267,372.414032 
	C160.236267,372.414032 160.721710,372.530762 160.721710,372.530762 
z"/>
<path fill="#C1C1C1" opacity="1.000000" stroke="none" 
	d="
M140.949463,394.776031 
	C140.949463,373.098328 140.949463,351.420624 140.949463,329.742920 
	C141.629288,329.738983 142.309128,329.735046 142.988953,329.731110 
	C142.988953,351.127930 142.988953,372.524780 142.666595,394.413696 
	C141.879318,394.862549 141.414398,394.819305 140.949463,394.776031 
z"/>
<path fill="#C1C1C1" opacity="1.000000" stroke="none" 
	d="
M87.989868,387.969055 
	C87.989868,408.065948 87.989868,428.162842 87.989868,448.259705 
	C87.354263,448.268494 86.718651,448.277252 86.083046,448.286041 
	C86.083046,428.432556 86.083046,408.579102 86.420631,388.223083 
	C87.168770,387.803406 87.579323,387.886230 87.989868,387.969055 
z"/>
<path fill="#C1C1C1" opacity="1.000000" stroke="none" 
	d="
M85.948898,379.771393 
	C85.948898,362.789825 85.948898,345.808258 85.948898,328.826691 
	C86.494827,328.825928 87.040756,328.825165 87.586685,328.824371 
	C87.586685,345.537109 87.586685,362.249817 87.054489,379.370728 
	C86.331154,379.776398 86.140022,379.773895 85.948898,379.771393 
z"/>
<path fill="#C1C1C1" opacity="1.000000" stroke="none" 
	d="
M143.098022,402.409485 
	C143.098022,417.690704 143.098022,432.971954 143.098022,448.253174 
	C142.387009,448.255524 141.675980,448.257843 140.964966,448.260162 
	C140.964966,432.856628 140.964966,417.453064 141.228806,401.548553 
	C142.027771,401.501556 142.562897,401.955536 143.098022,402.409485 
z"/>
<path fill="#B6B6B6" opacity="1.000000" stroke="none" 
	d="
M122.975784,430.999084 
	C122.975754,407.074890 122.975754,383.650452 122.975754,360.225983 
	C123.227371,360.226501 123.478989,360.227020 123.730606,360.227509 
	C123.730606,389.756042 123.730606,419.284576 123.730606,448.813110 
	C123.479012,448.816162 123.227417,448.819244 122.975822,448.822296 
	C122.975822,443.047821 122.975822,437.273346 122.975784,430.999084 
z"/>
<path fill="#B6B6B6" opacity="1.000000" stroke="none" 
	d="
M104.940964,409.790680 
	C104.940964,382.923737 104.940964,356.056824 104.940964,329.189880 
	C105.306145,329.190277 105.671326,329.190704 106.036507,329.191101 
	C106.036507,355.766052 106.036507,382.340973 105.764854,409.409058 
	C105.309120,409.865021 105.125038,409.827850 104.940964,409.790680 
z"/>
<path fill="#C1C1C1" opacity="1.000000" stroke="none" 
	d="
M159.021469,364.070221 
	C159.021469,352.320465 159.021469,340.570679 159.021469,328.820923 
	C159.650146,328.811096 160.278824,328.801270 160.907501,328.791473 
	C160.907501,340.324249 160.907501,351.857056 160.543884,363.913635 
	C159.793991,364.315063 159.407730,364.192657 159.021469,364.070221 
z"/>
<path fill="#282828" opacity="1.000000" stroke="none" 
	d="
M158.721985,364.242096 
	C159.407730,364.192657 159.793991,364.315063 160.485779,364.402191 
	C165.108780,367.386749 165.199615,368.706818 161.026093,372.366516 
	C160.721710,372.530762 160.236267,372.414032 160.236267,372.414032 
	C160.236267,372.414032 159.738251,372.449432 159.496811,372.512726 
	C154.865265,370.274963 155.197327,367.492065 158.721985,364.242096 
z"/>
<path fill="#282828" opacity="1.000000" stroke="none" 
	d="
M121.456322,356.660828 
	C119.042389,353.716949 118.874008,350.993286 122.397697,349.816193 
	C123.654533,349.396362 126.437874,350.836487 127.191612,352.177032 
	C128.827576,355.086609 126.354050,357.120056 121.456322,356.660828 
z"/>
<path fill="#333333" opacity="1.000000" stroke="none" 
	d="
M85.631851,379.919891 
	C86.140022,379.773895 86.331154,379.776398 86.781769,379.656952 
	C92.093910,381.603790 92.506371,383.788818 88.267868,387.737366 
	C87.579323,387.886230 87.168770,387.803406 86.444481,387.739929 
	C82.802345,385.519958 81.820656,383.031586 85.631851,379.919891 
z"/>
<path fill="#282828" opacity="1.000000" stroke="none" 
	d="
M104.619888,409.919250 
	C105.125038,409.827850 105.309120,409.865021 105.772705,409.867096 
	C110.269180,413.038757 110.364639,414.208710 106.096153,417.938232 
	C105.305496,418.110107 105.121719,418.152344 104.937950,418.194550 
	C100.381523,415.165497 100.241989,413.386841 104.619888,409.919250 
z"/>
<path fill="#333333" opacity="1.000000" stroke="none" 
	d="
M143.401489,402.324707 
	C142.562897,401.955536 142.027771,401.501556 141.228241,401.087952 
	C136.912445,400.061066 136.772141,398.843719 140.607605,394.923950 
	C141.414398,394.819305 141.879318,394.862549 142.692886,394.871521 
	C146.304565,397.032196 147.115738,399.446869 143.401489,402.324707 
z"/>
<path fill="#B6B6B6" opacity="1.000000" stroke="none" 
	d="
M104.930374,418.650635 
	C105.121719,418.152344 105.305496,418.110107 105.769463,418.106537 
	C106.049652,428.375946 106.049652,438.606720 106.049652,448.837494 
	C105.674034,448.837769 105.298416,448.838043 104.922798,448.838318 
	C104.922798,438.927795 104.922798,429.017273 104.930374,418.650635 
z"/>
<path fill="#BFBFBF" opacity="1.000000" stroke="none" 
	d="
M363.021240,74.830063 
	C363.117767,62.959190 363.117767,62.958988 374.747803,62.958958 
	C402.221954,62.958881 429.696106,62.957279 457.170258,62.960175 
	C465.012421,62.961002 465.018341,62.967106 465.019073,70.567642 
	C465.021729,98.707832 465.022430,126.848030 465.018555,154.988220 
	C465.017487,162.545837 464.583984,162.976639 457.158875,162.993439 
	C454.661346,162.999100 452.163788,163.016266 448.735535,163.026123 
	C422.869690,162.995270 397.934570,162.963684 372.999420,162.939117 
	C363.533081,162.929779 363.416565,162.820007 363.415924,153.078201 
	C363.414307,128.973312 363.424622,104.868416 363.398346,80.763550 
	C363.396179,78.785591 363.152618,76.807884 363.021240,74.830063 
M398.030151,118.052147 
	C398.038300,106.261658 398.048187,94.471161 398.053101,82.680672 
	C398.054047,80.349236 398.433289,78.029823 394.749115,77.925743 
	C390.925964,77.817749 390.948395,80.016098 390.961456,82.712486 
	C391.020294,94.834862 391.004822,106.957603 390.972351,120.006310 
	C390.972351,128.562439 390.972351,137.118576 390.972351,145.886810 
	C393.563965,145.886810 395.620239,145.886810 398.002045,145.886810 
	C398.002045,136.742401 398.002045,127.865005 398.030151,118.052147 
M410.891388,103.171967 
	C410.891388,117.388374 410.891388,131.604782 410.891388,145.860352 
	C413.485931,145.860352 415.555511,145.860352 417.929504,145.860352 
	C417.929504,131.149933 417.929504,116.737358 417.982574,101.346504 
	C417.993530,94.884613 417.944000,88.421783 418.045410,81.961311 
	C418.085480,79.408241 417.529449,77.928413 414.512299,77.935181 
	C411.562347,77.941788 410.861603,79.291260 410.912964,81.906601 
	C411.046356,88.696930 411.023956,95.490318 410.891388,103.171967 
M437.969116,88.132637 
	C437.979095,86.319847 437.936432,84.504875 438.011414,82.694778 
	C438.122589,80.011116 438.022705,77.938507 434.266724,77.888351 
	C430.522339,77.838341 429.755310,79.520409 429.991730,82.691582 
	C430.150574,84.821960 430.021973,86.973778 430.112579,90.035103 
	C430.112579,108.608086 430.112579,127.181068 430.112579,145.782440 
	C433.132782,145.782440 435.351227,145.782440 437.988037,145.782440 
	C437.988037,126.612892 437.988037,107.837936 437.969116,88.132637 
z"/>
<path fill="#333333" opacity="1.000000" stroke="none" 
	d="
M362.552368,74.842171 
	C363.152618,76.807884 363.396179,78.785591 363.398346,80.763550 
	C363.424622,104.868416 363.414307,128.973312 363.415924,153.078201 
	C363.416565,162.820007 363.533081,162.929779 372.999420,162.939117 
	C397.934570,162.963684 422.869690,162.995270 448.252930,163.050949 
	C448.701019,167.865112 448.701019,172.652390 448.701019,177.786194 
	C414.740784,177.786194 381.229126,177.786194 347.286072,177.786194 
	C347.286072,143.743286 347.286072,109.619972 347.286072,74.854279 
	C352.223938,74.854279 357.153717,74.854279 362.552368,74.842171 
z"/>
<path fill="#D5D5D5" opacity="1.000000" stroke="none" 
	d="
M102.752930,99.367142 
	C86.903893,88.935562 81.160034,70.499557 89.767494,53.805759 
	C97.362068,39.076397 113.429024,30.872812 130.665222,36.498383 
	C152.305328,43.561295 161.776184,66.662704 150.590469,86.390724 
	C141.471848,102.473083 122.783333,109.764969 102.752930,99.367142 
M120.454636,78.800568 
	C120.734230,78.615173 120.928429,78.363808 121.730896,78.034721 
	C122.494354,77.363907 123.257805,76.693092 124.688766,76.043327 
	C125.462463,75.700493 126.236160,75.357658 127.642639,74.941750 
	C128.443573,74.310371 129.244492,73.679001 130.624451,72.977913 
	C131.089401,72.660660 131.554367,72.343399 132.567719,71.734650 
	C132.399292,70.465919 132.230850,69.197197 131.819504,67.511986 
	C131.603622,67.260612 131.338074,67.083771 130.679977,66.382965 
	C128.797089,65.575485 126.914207,64.768005 124.820686,63.524288 
	C124.610779,63.266224 124.349136,63.081371 123.708878,62.386662 
	C122.142693,61.586067 120.576515,60.785473 118.665863,59.525398 
	C118.142776,59.314022 117.619690,59.102646 116.615654,58.416229 
	C115.407669,58.606606 114.199692,58.796982 112.418419,59.598133 
	C112.283676,65.995949 112.054688,72.394608 112.112099,78.790695 
	C112.121078,79.792122 113.248688,81.211098 114.207603,81.620369 
	C114.808617,81.876877 116.061066,80.607094 117.691231,80.041481 
	C118.468468,79.700447 119.245712,79.359413 120.454636,78.800568 
z"/>
<path fill="#333333" opacity="1.000000" stroke="none" 
	d="
M142.600906,196.612900 
	C127.654236,196.613022 113.161591,196.665009 98.670105,196.559082 
	C96.405251,196.542526 93.861946,196.329727 91.946091,195.289352 
	C88.560318,193.450745 87.263924,190.116302 88.202492,186.309357 
	C89.149857,182.466782 91.963760,180.207718 95.775375,180.169296 
	C112.264618,180.003052 128.757477,179.986069 145.246643,180.151459 
	C150.097855,180.200104 153.293106,184.048828 153.112991,188.673035 
	C152.915268,193.749313 149.848129,196.170609 142.600906,196.612900 
z"/>
<path fill="#383838" opacity="1.000000" stroke="none" 
	d="
M129.978424,139.791718 
	C120.188789,139.791428 110.890991,139.935211 101.605988,139.655060 
	C99.978088,139.605927 98.403854,137.777649 96.804840,136.771042 
	C98.423157,135.837997 100.027542,134.124985 101.661987,134.095810 
	C114.270508,133.870773 126.886711,133.869400 139.495071,134.098938 
	C141.106384,134.128265 142.686188,135.887833 144.280594,136.845840 
	C142.665771,137.827637 141.143616,139.383698 139.415390,139.662552 
	C136.503983,140.132309 133.461792,139.791580 129.978424,139.791718 
z"/>
<path fill="#333333" opacity="1.000000" stroke="none" 
	d="
M184.084808,135.066574 
	C191.548447,135.067184 198.528198,134.954788 205.497009,135.180405 
	C206.648865,135.217697 207.752853,136.734238 208.878952,137.567169 
	C207.725784,138.168610 206.580353,139.273941 205.418228,139.291779 
	C196.118942,139.434494 186.815247,139.442123 177.516769,139.275131 
	C176.450470,139.255981 175.407990,137.909821 174.354462,137.178955 
	C175.442230,136.475449 176.458862,135.366089 177.633835,135.160156 
	C179.567719,134.821228 181.604095,135.067184 184.084808,135.066574 
z"/>
<path fill="#333333" opacity="1.000000" stroke="none" 
	d="
M123.987297,147.841064 
	C128.437164,147.841064 132.389328,147.841064 136.341507,147.841064 
	C136.661285,148.299530 136.981064,148.757996 137.300842,149.216461 
	C136.257904,150.136337 135.231308,151.832703 134.169495,151.855011 
	C124.393929,152.060486 114.611526,152.029541 104.833611,151.890854 
	C103.892517,151.877502 102.968353,150.670456 102.036346,150.017548 
	C103.054283,149.293243 104.052925,147.975998 105.093338,147.942139 
	C111.220024,147.742722 117.356461,147.842255 123.987297,147.841064 
z"/>
<path fill="#333333" opacity="1.000000" stroke="none" 
	d="
M208.733185,144.081879 
	C207.775024,145.333435 206.703262,146.847565 205.601654,146.869598 
	C196.162170,147.058411 186.716446,147.033127 177.275269,146.892517 
	C176.300323,146.877991 175.342773,145.695328 174.377151,145.054688 
	C175.258972,144.320343 176.135910,142.954910 177.023361,142.948059 
	C187.285980,142.868591 197.550262,142.990356 207.813766,143.090576 
	C208.079559,143.093185 208.341812,143.457214 208.733185,144.081879 
z"/>
<path fill="#383838" opacity="1.000000" stroke="none" 
	d="
M42.107731,138.395416 
	C38.509228,138.395264 35.393257,138.395264 31.021280,138.395264 
	C35.111645,134.150131 63.889469,134.112671 66.785141,138.395554 
	C58.720184,138.395554 50.655224,138.395554 42.107731,138.395416 
z"/>
<path fill="#333333" opacity="1.000000" stroke="none" 
	d="
M64.468231,145.969238 
	C53.418678,145.977539 42.820728,145.977539 32.222775,145.977539 
	C32.175625,145.237686 32.128475,144.497818 32.081326,143.757965 
	C33.172951,143.453094 34.262642,142.891891 35.356503,142.883652 
	C44.673283,142.813293 53.991310,142.799301 63.307522,142.900558 
	C64.440987,142.912872 65.565956,143.707123 66.694862,144.138977 
	C66.103180,144.746292 65.511505,145.353622 64.468231,145.969238 
z"/>
<path fill="#383838" opacity="1.000000" stroke="none" 
	d="
M187.619736,124.784622 
	C185.933289,123.575066 184.671204,122.370872 183.409119,121.166679 
	C184.865402,120.387039 186.263321,119.113731 187.790421,118.933189 
	C190.735748,118.584961 193.779297,118.635902 196.729446,118.976929 
	C197.874725,119.109329 198.877426,120.475372 199.945068,121.279449 
	C198.964035,122.414841 198.117538,124.336220 196.975647,124.531654 
	C194.068878,125.029182 191.030060,124.755203 187.619736,124.784622 
z"/>
<path fill="#383838" opacity="1.000000" stroke="none" 
	d="
M41.271809,121.795013 
	C41.971043,120.589348 42.666065,119.144165 43.449299,119.094673 
	C47.416283,118.843933 51.412430,118.834114 55.383057,119.037895 
	C56.228893,119.081306 57.504528,120.259369 57.684235,121.105415 
	C57.864861,121.955772 57.181488,123.358376 56.430008,123.971016 
	C53.855450,126.069946 43.728188,124.766106 41.271809,121.795013 
z"/>
<path fill="#383838" opacity="1.000000" stroke="none" 
	d="
M437.988037,89.062973 
	C437.988037,107.837936 437.988037,126.612892 437.988037,145.782440 
	C435.351227,145.782440 433.132782,145.782440 430.112579,145.782440 
	C430.112579,127.181068 430.112579,108.608086 430.499023,89.460648 
	C433.253021,88.945122 435.620514,89.004044 437.988037,89.062973 
z"/>
<path fill="#1D1C17" opacity="1.000000" stroke="none" 
	d="
M417.929504,102.324783 
	C417.929504,116.737358 417.929504,131.149933 417.929504,145.860352 
	C415.555511,145.860352 413.485931,145.860352 410.891388,145.860352 
	C410.891388,131.604782 410.891388,117.388374 411.405762,102.688751 
	C413.923248,102.245293 415.926361,102.285034 417.929504,102.324783 
z"/>
<path fill="#E7E7E7" opacity="1.000000" stroke="none" 
	d="
M391.016113,119.080208 
	C391.004822,106.957603 391.020294,94.834862 390.961456,82.712486 
	C390.948395,80.016098 390.925964,77.817749 394.749115,77.925743 
	C398.433289,78.029823 398.054047,80.349236 398.053101,82.680672 
	C398.048187,94.471161 398.038300,106.261658 397.579254,118.501221 
	C395.090942,118.993599 393.053528,119.036903 391.016113,119.080208 
z"/>
<path fill="#333333" opacity="1.000000" stroke="none" 
	d="
M390.994232,119.543259 
	C393.053528,119.036903 395.090942,118.993599 397.565186,118.968948 
	C398.002045,127.865005 398.002045,136.742401 398.002045,145.886810 
	C395.620239,145.886810 393.563965,145.886810 390.972351,145.886810 
	C390.972351,137.118576 390.972351,128.562439 390.994232,119.543259 
z"/>
<path fill="#E7E7E7" opacity="1.000000" stroke="none" 
	d="
M417.956055,101.835640 
	C415.926361,102.285034 413.923248,102.245293 411.491913,102.244019 
	C411.023956,95.490318 411.046356,88.696930 410.912964,81.906601 
	C410.861603,79.291260 411.562347,77.941788 414.512299,77.935181 
	C417.529449,77.928413 418.085480,79.408241 418.045410,81.961311 
	C417.944000,88.421783 417.993530,94.884613 417.956055,101.835640 
z"/>
<path fill="#E5E5E5" opacity="1.000000" stroke="none" 
	d="
M437.978577,88.597809 
	C435.620514,89.004044 433.253021,88.945122 430.453735,89.001099 
	C430.021973,86.973778 430.150574,84.821960 429.991730,82.691582 
	C429.755310,79.520409 430.522339,77.838341 434.266724,77.888351 
	C438.022705,77.938507 438.122589,80.011116 438.011414,82.694778 
	C437.936432,84.504875 437.979095,86.319847 437.978577,88.597809 
z"/>
<path fill="#F5F5F5" opacity="1.000000" stroke="none" 
	d="
M117.021225,80.022133 
	C116.061066,80.607094 114.808617,81.876877 114.207603,81.620369 
	C113.248688,81.211098 112.121078,79.792122 112.112099,78.790695 
	C112.054688,72.394608 112.283676,65.995949 112.710037,59.299782 
	C113.001648,59.001434 113.011963,59.011913 113.029480,59.478634 
	C113.048553,65.214279 113.103958,70.483963 113.029816,75.751831 
	C112.990578,78.539856 113.894409,80.237831 116.999054,79.997314 
	C117.004524,80.004951 117.021225,80.022133 117.021225,80.022133 
z"/>
<path fill="#F5F5F5" opacity="1.000000" stroke="none" 
	d="
M125.031326,63.960518 
	C126.914207,64.768005 128.797089,65.575485 130.840637,66.691658 
	C131.001282,67.000351 130.983810,67.021004 130.624878,67.020805 
	C128.505035,66.019615 126.744125,65.018616 124.995453,64.003922 
	C125.007698,63.990231 125.031326,63.960518 125.031326,63.960518 
z"/>
<path fill="#F5F5F5" opacity="1.000000" stroke="none" 
	d="
M119.010330,59.984879 
	C120.576515,60.785473 122.142693,61.586067 123.855927,62.693871 
	C124.002975,63.001083 123.973282,63.035069 123.611053,63.029716 
	C121.828232,62.020798 120.407631,61.017235 118.992867,60.007339 
	C118.998703,60.001007 119.010330,59.984879 119.010330,59.984879 
z"/>
<path fill="#F5F5F5" opacity="1.000000" stroke="none" 
	d="
M132.062408,67.928467 
	C132.230850,69.197197 132.399292,70.465919 132.282303,71.866577 
	C131.996887,71.998512 131.972794,71.973335 131.969208,71.580078 
	C131.959991,70.137558 131.954361,69.088287 131.978027,68.012283 
	C132.007324,67.985550 132.062408,67.928467 132.062408,67.928467 
z"/>
<path fill="#F5F5F5" opacity="1.000000" stroke="none" 
	d="
M124.021255,76.022278 
	C123.257805,76.693092 122.494354,77.363907 121.369415,78.022583 
	C121.007942,78.010437 120.977272,77.975929 121.125877,77.694527 
	C122.180824,76.938774 123.087166,76.464424 123.999084,75.997574 
	C124.004654,76.005066 124.021255,76.022278 124.021255,76.022278 
z"/>
<path fill="#F5F5F5" opacity="1.000000" stroke="none" 
	d="
M130.045410,73.047623 
	C129.244492,73.679001 128.443573,74.310371 127.320473,74.970123 
	C126.998306,74.998497 126.986633,74.985382 127.043732,74.648438 
	C128.058853,73.861847 129.016876,73.412193 129.991928,72.984314 
	C130.008942,73.006088 130.045410,73.047623 130.045410,73.047623 
z"/>
<path fill="#F5F5F5" opacity="1.000000" stroke="none" 
	d="
M112.996674,58.994396 
	C114.199692,58.796982 115.407669,58.606606 116.816055,58.702587 
	C117.016464,58.988945 116.939400,59.089077 116.548492,59.074703 
	C115.109039,59.044189 114.060501,59.028053 113.011963,59.011917 
	C113.011963,59.011913 113.001648,59.001434 112.996674,58.994396 
z"/>
<path fill="#F5F5F5" opacity="1.000000" stroke="none" 
	d="
M120.022949,79.018379 
	C119.245712,79.359413 118.468468,79.700447 117.356232,80.031807 
	C117.021225,80.022133 117.004524,80.004951 117.219460,79.750496 
	C118.284111,79.323326 119.133835,79.150612 119.992310,78.988541 
	C120.001076,78.999176 120.022949,79.018379 120.022949,79.018379 
z"/>
<path fill="#F5F5F5" opacity="1.000000" stroke="none" 
	d="
M127.004082,75.006668 
	C126.236160,75.357658 125.462463,75.700493 124.355011,76.032806 
	C124.021255,76.022278 124.004654,76.005066 124.217491,75.748016 
	C125.282433,75.322441 126.134529,75.153908 126.986633,74.985382 
	C126.986633,74.985382 126.998306,74.998497 127.004082,75.006668 
z"/>
<path fill="#F5F5F5" opacity="1.000000" stroke="none" 
	d="
M117.056534,58.940109 
	C117.619690,59.102646 118.142776,59.314022 118.838097,59.755138 
	C119.010330,59.984879 118.998703,60.001007 118.697685,59.990665 
	C117.910912,59.683243 117.425156,59.386158 116.939400,59.089077 
	C116.939400,59.089077 117.016464,58.988945 117.056534,58.940109 
z"/>
<path fill="#F5F5F5" opacity="1.000000" stroke="none" 
	d="
M132.008118,72.012329 
	C131.554367,72.343399 131.089401,72.660660 130.334930,73.012772 
	C130.045410,73.047623 130.008942,73.006088 130.165161,72.746063 
	C130.871841,72.315132 131.422318,72.144234 131.972794,71.973335 
	C131.972794,71.973335 131.996887,71.998512 132.008118,72.012329 
z"/>
<path fill="#F5F5F5" opacity="1.000000" stroke="none" 
	d="
M121.022591,78.028458 
	C120.928429,78.363808 120.734230,78.615173 120.238792,78.909470 
	C120.022949,79.018379 120.001076,78.999176 120.094940,78.767105 
	C120.395798,78.269958 120.658623,78.083588 120.977272,77.975929 
	C120.977272,77.975929 121.007942,78.010437 121.022591,78.028458 
z"/>
<path fill="#F5F5F5" opacity="1.000000" stroke="none" 
	d="
M131.012085,66.990913 
	C131.338074,67.083771 131.603622,67.260612 131.940948,67.720230 
	C132.062408,67.928467 132.007324,67.985550 131.765472,67.896431 
	C131.247101,67.611542 131.067154,67.349434 130.983810,67.021004 
	C130.983810,67.021004 131.001282,67.000351 131.012085,66.990913 
z"/>
<path fill="#F5F5F5" opacity="1.000000" stroke="none" 
	d="
M124.019371,62.985405 
	C124.349136,63.081371 124.610779,63.266224 124.926010,63.742401 
	C125.031326,63.960518 125.007698,63.990231 124.776871,63.896206 
	C124.260239,63.617325 124.069321,63.361618 123.973282,63.035069 
	C123.973282,63.035069 124.002975,63.001083 124.019371,62.985405 
z"/>
<path fill="#D7D7D7" opacity="1.000000" stroke="none" 
	d="
M123.611053,63.029716 
	C124.069321,63.361618 124.260239,63.617325 124.764626,63.909897 
	C126.744125,65.018616 128.505035,66.019615 130.624878,67.020805 
	C131.067154,67.349434 131.247101,67.611542 131.736176,67.923172 
	C131.954361,69.088287 131.959991,70.137558 131.969208,71.580078 
	C131.422318,72.144234 130.871841,72.315132 130.148132,72.724289 
	C129.016876,73.412193 128.058853,73.861847 127.043732,74.648438 
	C126.134529,75.153908 125.282433,75.322441 124.211914,75.740524 
	C123.087166,76.464424 122.180824,76.938774 121.125877,77.694527 
	C120.658623,78.083588 120.395798,78.269958 120.086174,78.756470 
	C119.133835,79.150612 118.284111,79.323326 117.213989,79.742859 
	C113.894409,80.237831 112.990578,78.539856 113.029816,75.751831 
	C113.103958,70.483963 113.048553,65.214279 113.029480,59.478638 
	C114.060501,59.028053 115.109039,59.044189 116.548492,59.074703 
	C117.425156,59.386158 117.910912,59.683243 118.691849,59.997002 
	C120.407631,61.017235 121.828232,62.020798 123.611053,63.029716 
z"/>
</svg>