<svg version="1.1" id="Layer_1" xmlns="http://www.w3.org/2000/svg" xmlns:xlink="http://www.w3.org/1999/xlink" x="0px" y="0px"
	 width="100%" viewBox="0 0 532 433" enable-background="new 0 0 532 433" xml:space="preserve">
<path fill="#000000" opacity="1.000000" stroke="none" 
	d="
M533.000000,190.000000 
	C533.000000,271.275909 533.000000,352.551819 533.000000,434.000000 
	C407.979156,434.000000 282.958252,434.000000 157.128922,433.665344 
	C156.880981,430.990631 157.924103,428.651764 157.929993,426.310272 
	C158.030273,386.516357 158.003342,346.722137 158.000473,306.927979 
	C157.999985,299.964569 157.040329,299.000214 150.105591,298.999664 
	C110.311424,298.996613 70.516792,299.094360 30.723585,298.899292 
	C24.424627,298.868439 22.979641,299.802399 22.984856,306.933899 
	C23.012978,345.396027 22.969522,383.858246 23.041946,422.320221 
	C23.049278,426.214050 23.666050,430.106781 24.000000,434.000000 
	C16.345413,434.000000 8.690827,434.000000 1.000000,434.000000 
	C1.000000,349.312439 1.000000,264.624878 1.335199,179.130035 
	C3.680393,178.881836 5.689359,179.924545 7.700537,179.928818 
	C51.515610,180.022171 95.330925,180.008682 139.146194,179.989716 
	C145.073120,179.987152 145.998505,179.003342 145.998749,173.124817 
	C146.001053,119.646866 146.020844,66.168884 145.956924,12.691004 
	C145.952271,8.793627 145.333344,4.896984 145.000000,1.000000 
	C274.333344,1.000000 403.666687,1.000000 533.000000,1.000000 
	C533.000000,8.745588 533.000000,16.404102 532.671875,24.835329 
	C529.636108,24.738556 526.930725,23.118702 524.220581,23.110703 
	C473.101013,22.959806 421.980865,22.998236 370.860870,23.001122 
	C363.612152,23.001530 362.000946,24.637754 362.000671,31.977976 
	C361.998871,82.265411 361.999115,132.552856 362.000244,182.840286 
	C362.000427,190.358673 363.658752,191.999573 371.257416,191.999756 
	C419.047150,192.000946 466.837097,192.071838 514.626282,191.911819 
	C520.752930,191.891296 526.875549,190.666763 533.000000,190.000000 
M327.991364,243.011566 
	C338.979462,242.864304 349.967560,242.717056 361.902130,242.557098 
	C360.105591,232.414352 358.820892,223.590652 356.948456,214.893494 
	C351.959534,191.720978 341.086975,171.457306 324.162140,155.022034 
	C315.628113,146.734863 305.637817,139.718430 295.556244,133.306213 
	C279.458099,123.067291 261.693085,118.169090 242.852859,120.268555 
	C242.852859,132.592163 242.852859,144.759018 241.948578,156.978836 
	C195.684509,156.836548 160.868347,194.906601 158.988266,236.417740 
	C156.671204,287.577271 196.036469,321.808319 235.258926,325.021667 
	C289.755890,329.486328 327.569763,285.931122 327.991364,243.011566 
z"/>
<path fill="#E5E5E5" opacity="1.000000" stroke="none" 
	d="
M533.000000,189.531342 
	C526.875549,190.666763 520.752930,191.891296 514.626282,191.911819 
	C466.837097,192.071838 419.047150,192.000946 371.257416,191.999756 
	C363.658752,191.999573 362.000427,190.358673 362.000244,182.840286 
	C361.999115,132.552856 361.998871,82.265411 362.000671,31.977976 
	C362.000946,24.637754 363.612152,23.001530 370.860870,23.001122 
	C421.980865,22.998236 473.101013,22.959806 524.220581,23.110703 
	C526.930725,23.118702 529.636108,24.738556 532.671875,25.304020 
	C533.000000,79.687561 533.000000,134.375122 533.000000,189.531342 
M502.762695,53.579277 
	C502.561279,53.315922 502.306396,53.123287 501.378571,52.445374 
	C500.236481,52.296768 499.094513,52.019115 497.952332,52.018322 
	C464.645844,51.995117 431.339325,51.997612 398.032837,52.009315 
	C397.089905,52.009647 396.147064,52.155315 395.204163,52.233215 
	C395.211548,52.488182 395.218933,52.743145 395.226318,52.998112 
	C430.817963,52.998112 466.409637,52.998112 502.235107,53.422462 
	C502.436249,53.686981 502.691803,53.879040 502.998962,54.936123 
	C502.998962,90.128166 502.998962,125.320213 502.998962,160.512268 
	C503.862946,160.037643 503.986328,159.559402 503.986481,159.081146 
	C503.997528,125.458160 504.010834,91.835167 503.958313,58.212265 
	C503.956116,56.808289 503.332764,55.405277 502.762695,53.579277 
M451.755646,92.035835 
	C437.152893,92.009026 422.549042,92.070282 407.948120,91.893173 
	C404.322723,91.849190 403.976593,93.655014 403.964081,96.526482 
	C403.951447,99.434418 404.372711,101.164070 407.973846,101.108757 
	C422.902771,100.879486 437.835327,100.890572 453.421539,101.410431 
	C465.164276,101.592575 476.906677,101.868996 488.649872,101.905693 
	C492.756592,101.918526 491.782593,98.517052 492.012329,95.995949 
	C492.288208,92.968941 490.990479,91.919235 487.981720,91.953941 
	C476.205170,92.089783 464.426514,92.044823 451.755646,92.035835 
M449.616486,79.942871 
	C462.052673,79.960487 474.490875,79.857895 486.923889,80.065445 
	C490.903198,80.131866 491.093872,78.025017 491.046143,75.057007 
	C491.000610,72.224106 491.154846,69.854713 487.045044,69.937210 
	C474.449371,70.190041 461.847870,70.152885 448.449005,69.942528 
	C433.711151,69.942528 418.973297,69.942528 404.206055,69.942528 
	C404.206055,73.372681 404.206055,76.162773 404.206055,79.882370 
	C419.132782,79.882370 433.883240,79.882370 449.616486,79.942871 
M464.301575,136.000916 
	C445.696808,136.001190 427.090912,136.109528 408.488159,135.916901 
	C404.428131,135.874847 403.926514,137.635025 403.907715,141.010010 
	C403.888550,144.453461 404.542786,146.098816 408.538513,146.059052 
	C427.307526,145.872284 446.079468,145.963608 464.850281,145.989563 
	C467.199921,145.992813 469.428162,145.882599 469.004486,142.681458 
	C468.651367,140.013412 470.892365,135.733917 464.301575,136.000916 
M434.096100,122.765358 
	C434.096100,119.974083 434.096100,117.182800 434.096100,114.397781 
	C423.924164,114.397781 414.061981,114.397781 404.426453,114.397781 
	C404.426453,117.716690 404.426453,120.618065 404.426453,123.534264 
	C414.445221,123.534264 424.059967,123.534264 434.096100,122.765358 
M390.998779,64.589432 
	C390.998779,96.642990 390.998779,128.696548 390.998779,160.750107 
	C391.241730,160.749069 391.484711,160.748047 391.727661,160.747009 
	C391.727661,125.920197 391.727661,91.093391 391.727661,56.266582 
	C391.484711,56.264301 391.241730,56.262020 390.998779,56.259739 
	C390.998779,58.716091 390.998779,61.172447 390.998779,64.589432 
M499.291534,163.148193 
	C499.184082,163.264114 498.991913,163.380707 498.992767,163.495789 
	C498.993713,163.614319 499.177124,163.826431 499.290466,163.833176 
	C499.870453,163.867706 500.453613,163.849136 501.035645,163.849136 
	C501.046570,163.689957 501.057495,163.530792 501.068420,163.371613 
	C500.634674,163.265060 500.200958,163.158493 499.291534,163.148193 
M395.737701,163.173187 
	C395.147858,163.173187 394.558014,163.173187 393.968140,163.173187 
	C393.987946,163.407089 394.007721,163.640991 394.027496,163.874893 
	C394.693085,163.766617 395.358643,163.658325 395.737701,163.173187 
z"/>
<path fill="#E4E4E4" opacity="1.000000" stroke="none" 
	d="
M24.468658,434.000000 
	C23.666050,430.106781 23.049278,426.214050 23.041946,422.320221 
	C22.969522,383.858246 23.012978,345.396027 22.984856,306.933899 
	C22.979641,299.802399 24.424627,298.868439 30.723585,298.899292 
	C70.516792,299.094360 110.311424,298.996613 150.105591,298.999664 
	C157.040329,299.000214 157.999985,299.964569 158.000473,306.927979 
	C158.003342,346.722137 158.030273,386.516357 157.929993,426.310272 
	C157.924103,428.651764 156.880981,430.990631 156.660263,433.665344 
	C112.979103,434.000000 68.958206,434.000000 24.468658,434.000000 
M106.954025,343.242126 
	C106.954025,333.226227 106.954025,323.210358 106.954025,313.194458 
	C106.641953,313.196747 106.329887,313.199005 106.017815,313.201263 
	C106.017815,323.481812 106.017815,333.762360 105.435493,344.463531 
	C101.631767,347.707489 101.710861,348.849609 105.935150,353.026337 
	C105.935150,375.565918 105.935150,398.105530 105.935150,420.645111 
	C106.287827,420.643250 106.640503,420.641388 106.993179,420.639526 
	C106.993179,397.754425 106.993179,374.869324 107.521469,351.523651 
	C111.648544,348.705078 110.444565,346.352325 106.954025,343.242126 
M41.007278,357.010132 
	C41.007278,342.412506 41.007278,327.814880 41.007278,313.217255 
	C40.655209,313.218933 40.303135,313.220581 39.951065,313.222260 
	C39.951065,328.103088 39.951065,342.983948 39.385643,358.199036 
	C35.542484,361.618164 35.653847,362.938538 39.963558,366.854736 
	C39.963558,384.770142 39.963558,402.685547 39.963558,420.600952 
	C40.239803,420.597870 40.516045,420.594818 40.792290,420.591736 
	C40.792290,402.295074 40.792290,383.998383 41.336681,365.267273 
	C45.912231,362.625092 44.278725,360.247681 41.007278,357.010132 
M91.611298,378.854095 
	C94.547623,376.274628 93.763336,374.010651 90.989540,370.986664 
	C90.989540,351.576477 90.989540,332.166260 90.989540,312.756073 
	C90.313774,312.759735 89.638008,312.763428 88.962242,312.767120 
	C88.962242,332.455902 88.962242,352.144714 88.367523,372.201599 
	C85.016747,374.838470 85.466911,377.157562 88.968254,380.131989 
	C88.968254,393.821381 88.968254,407.510803 88.968254,421.200195 
	C89.657784,421.192657 90.347313,421.185120 91.036842,421.177582 
	C91.036842,407.172241 91.036842,393.166931 91.611298,378.854095 
M57.972801,317.761810 
	C57.878326,316.073792 57.783852,314.385773 57.689373,312.697754 
	C57.218670,312.694031 56.747967,312.690308 56.277264,312.686584 
	C56.177891,314.359894 55.993454,316.033142 55.992008,317.706512 
	C55.972721,339.998474 56.032852,362.290802 55.899319,384.581940 
	C55.885315,386.919434 54.765705,389.250275 54.292480,391.070831 
	C54.893291,393.559418 55.832649,395.795349 55.904209,398.058685 
	C56.114399,404.706390 55.952023,411.365204 56.007843,418.019043 
	C56.017071,419.119171 56.390335,420.216248 56.595367,421.314728 
	C57.054531,421.268860 57.513691,421.222992 57.972855,421.177124 
	C57.972855,416.926483 57.493286,412.607666 58.085537,408.441223 
	C58.968380,402.230499 54.949738,395.269318 60.793755,389.732117 
	C61.079906,389.460999 60.250023,387.986481 59.908733,387.084076 
	C59.275581,385.410095 58.066818,383.748169 58.056713,382.075409 
	C57.929058,360.948730 57.972775,339.821014 57.972801,317.761810 
M121.902481,392.937012 
	C121.283585,393.397064 120.664688,393.857086 120.176743,394.219788 
	C124.157166,402.931000 120.435844,412.385254 123.266869,421.217194 
	C123.972862,416.903473 123.668533,412.556244 124.063858,408.273621 
	C124.414856,404.471313 121.888161,399.882385 126.640961,396.972168 
	C126.914154,396.804871 126.404289,395.208740 126.125305,394.319458 
	C125.449867,392.166443 124.080940,390.042145 124.067184,387.899353 
	C123.916687,364.451782 123.980492,341.002899 123.956329,317.554382 
	C123.954643,315.917694 123.717339,314.281281 123.589607,312.644714 
	C123.033104,312.685638 122.476608,312.726562 121.920105,312.767456 
	C121.920105,339.258667 121.920105,365.749878 121.902481,392.937012 
M72.928589,395.500000 
	C72.928589,403.948944 72.928589,412.397919 72.928589,420.846863 
	C73.284889,420.845581 73.641190,420.844269 73.997490,420.842987 
	C73.997490,419.068756 73.997498,417.294495 73.997498,415.520264 
	C73.997536,391.025970 73.954453,366.531433 74.072708,342.037720 
	C74.083099,339.886047 75.150177,337.739502 75.805405,335.296143 
	C74.310036,334.702576 72.164711,333.851044 70.871613,333.337769 
	C71.575882,338.874756 72.740791,344.183929 72.835556,349.512115 
	C73.102196,364.503906 72.928467,379.503479 72.928589,395.500000 
M139.997498,346.877930 
	C140.576401,344.503754 141.155289,342.129578 141.871262,339.193237 
	C138.316711,338.539398 138.949326,341.635101 138.946625,343.944336 
	C138.917999,368.408661 138.925186,392.873047 138.940735,417.337402 
	C138.941437,418.438873 139.116562,419.540192 139.210449,420.641602 
	C139.472794,420.626801 139.735138,420.612030 139.997482,420.597260 
	C139.997482,396.327393 139.997482,372.057495 139.997498,346.877930 
M136.988037,336.728485 
	C136.845184,336.651154 136.709076,336.538849 136.556976,336.509491 
	C136.464203,336.491577 136.257416,336.595581 136.253632,336.654541 
	C136.174026,337.893402 136.116089,339.133698 136.053909,340.373688 
	C136.413788,340.365601 136.773666,340.357483 137.133545,340.349396 
	C137.233810,339.315216 137.334076,338.281036 136.988037,336.728485 
z"/>
<path fill="#D7D7D7" opacity="1.000000" stroke="none" 
	d="
M144.531342,1.000000 
	C145.333344,4.896984 145.952271,8.793627 145.956924,12.691004 
	C146.020844,66.168884 146.001053,119.646866 145.998749,173.124817 
	C145.998505,179.003342 145.073120,179.987152 139.146194,179.989716 
	C95.330925,180.008682 51.515610,180.022171 7.700537,179.928818 
	C5.689359,179.924545 3.680393,178.881836 1.335199,178.661377 
	C1.000000,119.747360 1.000000,60.494728 1.000000,1.000000 
	C48.687286,1.000000 96.374985,1.000000 144.531342,1.000000 
M145.000000,41.500000 
	C145.000000,30.841101 145.007172,20.182192 144.997147,9.523303 
	C144.991623,3.633545 143.334641,2.002992 137.354614,2.002129 
	C105.710876,1.997561 74.067139,1.999980 42.423397,1.999984 
	C31.431362,1.999985 20.439142,1.962403 9.447374,2.016419 
	C4.219512,2.042110 2.008713,4.109525 2.007660,8.851527 
	C1.995648,62.978970 1.991986,117.106415 2.011522,171.233856 
	C2.013647,177.123199 2.980222,177.998474 8.960165,177.998795 
	C51.595936,178.001038 94.232048,177.915619 136.867111,178.088608 
	C143.460510,178.115356 145.022751,177.480698 145.016602,169.907669 
	C144.982132,127.438469 145.000000,84.969231 145.000000,41.500000 
z"/>
<path fill="#555555" opacity="1.000000" stroke="none" 
	d="
M327.070831,243.140060 
	C327.569763,285.931122 289.755890,329.486328 235.258926,325.021667 
	C196.036469,321.808319 156.671204,287.577271 158.988266,236.417740 
	C160.868347,194.906601 195.684509,156.836548 242.462097,157.415039 
	C242.975616,161.422241 242.975616,164.993240 242.975616,168.636200 
	C264.100769,168.442841 280.327332,177.200211 293.969696,191.400314 
	C307.722656,205.715530 314.424469,223.248398 316.430328,243.140060 
	C320.165283,243.140060 323.618042,243.140060 327.070831,243.140060 
M239.624084,183.999527 
	C234.769867,184.824509 229.676865,184.972336 225.100693,186.585892 
	C198.178131,196.078796 181.150116,222.585571 187.006683,252.028473 
	C192.923309,281.773285 220.105667,303.122345 252.938950,297.593231 
	C282.487946,292.617218 303.069855,266.693848 300.090881,235.505814 
	C298.792389,221.911102 293.445740,210.207962 284.047607,200.781143 
	C272.232635,188.930130 257.683319,182.831970 239.624084,183.999527 
z"/>
<path fill="#F1F1F1" opacity="1.000000" stroke="none" 
	d="
M327.531097,243.075806 
	C323.618042,243.140060 320.165283,243.140060 316.430328,243.140060 
	C314.424469,223.248398 307.722656,205.715530 293.969696,191.400314 
	C280.327332,177.200211 264.100769,168.442841 242.975616,168.636200 
	C242.975616,164.993240 242.975616,161.422241 242.914246,157.388565 
	C242.852859,144.759018 242.852859,132.592163 242.852859,120.268555 
	C261.693085,118.169090 279.458099,123.067291 295.556244,133.306213 
	C305.637817,139.718430 315.628113,146.734863 324.162140,155.022034 
	C341.086975,171.457306 351.959534,191.720978 356.948456,214.893494 
	C358.820892,223.590652 360.105591,232.414352 361.902130,242.557098 
	C349.967560,242.717056 338.979462,242.864304 327.531097,243.075806 
M299.689423,180.893250 
	C298.591156,181.046722 296.563843,181.119934 296.542542,181.366470 
	C296.381836,183.226608 296.615356,185.120804 296.725739,187.004364 
	C299.125397,186.630096 302.189819,187.036896 303.766083,185.695251 
	C306.029114,183.769043 305.056763,181.233139 301.700439,179.700699 
	C301.246887,180.094711 300.793304,180.488724 299.689423,180.893250 
z"/>
<path fill="#B2B2B2" opacity="1.000000" stroke="none" 
	d="
M464.772400,136.002136 
	C470.892365,135.733917 468.651367,140.013412 469.004486,142.681458 
	C469.428162,145.882599 467.199921,145.992813 464.850281,145.989563 
	C446.079468,145.963608 427.307526,145.872284 408.538513,146.059052 
	C404.542786,146.098816 403.888550,144.453461 403.907715,141.010010 
	C403.926514,137.635025 404.428131,135.874847 408.488159,135.916901 
	C427.090912,136.109528 445.696808,136.001190 464.772400,136.002136 
z"/>
<path fill="#0C0C0C" opacity="1.000000" stroke="none" 
	d="
M448.633667,79.882370 
	C433.883240,79.882370 419.132782,79.882370 404.206055,79.882370 
	C404.206055,76.162773 404.206055,73.372681 404.206055,69.942528 
	C418.973297,69.942528 433.711151,69.942528 448.858093,70.504959 
	C449.055969,74.005714 448.844818,76.944038 448.633667,79.882370 
z"/>
<path fill="#B2B2B2" opacity="1.000000" stroke="none" 
	d="
M452.766541,100.813408 
	C437.835327,100.890572 422.902771,100.879486 407.973846,101.108757 
	C404.372711,101.164070 403.951447,99.434418 403.964081,96.526482 
	C403.976593,93.655014 404.322723,91.849190 407.948120,91.893173 
	C422.549042,92.070282 437.152893,92.009026 452.271118,92.487808 
	C452.779907,95.564316 452.773224,98.188866 452.766541,100.813408 
z"/>
<path fill="#F0F0F0" opacity="1.000000" stroke="none" 
	d="
M449.125061,79.912621 
	C448.844818,76.944038 449.055969,74.005714 449.257904,70.647934 
	C461.847870,70.152885 474.449371,70.190041 487.045044,69.937210 
	C491.154846,69.854713 491.000610,72.224106 491.046143,75.057007 
	C491.093872,78.025017 490.903198,80.131866 486.923889,80.065445 
	C474.490875,79.857895 462.052673,79.960487 449.125061,79.912621 
z"/>
<path fill="#F5F5F5" opacity="1.000000" stroke="none" 
	d="
M453.094055,101.111923 
	C452.773224,98.188866 452.779907,95.564316 452.717590,92.503410 
	C464.426514,92.044823 476.205170,92.089783 487.981720,91.953941 
	C490.990479,91.919235 492.288208,92.968941 492.012329,95.995949 
	C491.782593,98.517052 492.756592,101.918526 488.649872,101.905693 
	C476.906677,101.868996 465.164276,101.592575 453.094055,101.111923 
z"/>
<path fill="#0A0A0A" opacity="1.000000" stroke="none" 
	d="
M433.885406,123.149811 
	C424.059967,123.534264 414.445221,123.534264 404.426453,123.534264 
	C404.426453,120.618065 404.426453,117.716690 404.426453,114.397781 
	C414.061981,114.397781 423.924164,114.397781 434.096100,114.397781 
	C434.096100,117.182800 434.096100,119.974083 433.885406,123.149811 
z"/>
<path fill="#D8D8D8" opacity="1.000000" stroke="none" 
	d="
M502.001282,52.998112 
	C466.409637,52.998112 430.817963,52.998112 395.226318,52.998112 
	C395.218933,52.743145 395.211548,52.488182 395.204163,52.233215 
	C396.147064,52.155315 397.089905,52.009647 398.032837,52.009315 
	C431.339325,51.997612 464.645844,51.995117 497.952332,52.018322 
	C499.094513,52.019115 500.236481,52.296768 501.689270,52.722687 
	C502.000000,53.000000 502.001282,52.998112 502.001282,52.998112 
z"/>
<path fill="#D8D8D8" opacity="1.000000" stroke="none" 
	d="
M502.998779,54.001816 
	C503.332764,55.405277 503.956116,56.808289 503.958313,58.212265 
	C504.010834,91.835167 503.997528,125.458160 503.986481,159.081146 
	C503.986328,159.559402 503.862946,160.037643 502.998962,160.512268 
	C502.998962,125.320213 502.998962,90.128166 502.999481,54.468063 
	C503.000000,54.000000 502.998779,54.001812 502.998779,54.001816 
z"/>
<path fill="#D8D8D8" opacity="1.000000" stroke="none" 
	d="
M390.998779,64.109116 
	C390.998779,61.172447 390.998779,58.716091 390.998779,56.259739 
	C391.241730,56.262020 391.484711,56.264301 391.727661,56.266582 
	C391.727661,91.093391 391.727661,125.920197 391.727661,160.747009 
	C391.484711,160.748047 391.241730,160.749069 390.998779,160.750107 
	C390.998779,128.696548 390.998779,96.642990 390.998779,64.109116 
z"/>
<path fill="#D8D8D8" opacity="1.000000" stroke="none" 
	d="
M499.529388,163.100067 
	C500.200958,163.158493 500.634674,163.265060 501.068420,163.371613 
	C501.057495,163.530792 501.046570,163.689957 501.035645,163.849136 
	C500.453613,163.849136 499.870453,163.867706 499.290466,163.833176 
	C499.177124,163.826431 498.993713,163.614319 498.992767,163.495789 
	C498.991913,163.380707 499.184082,163.264114 499.529388,163.100067 
z"/>
<path fill="#D8D8D8" opacity="1.000000" stroke="none" 
	d="
M395.880981,163.361618 
	C395.358643,163.658325 394.693085,163.766617 394.027496,163.874893 
	C394.007721,163.640991 393.987946,163.407089 393.968140,163.173187 
	C394.558014,163.173187 395.147858,163.173187 395.880981,163.361618 
z"/>
<path fill="#D8D8D8" opacity="1.000000" stroke="none" 
	d="
M501.999023,53.000687 
	C502.306396,53.123287 502.561279,53.315922 502.880737,53.790543 
	C502.998779,54.001812 503.000000,54.000000 503.000916,53.999321 
	C502.691803,53.879040 502.436249,53.686981 502.118195,53.210289 
	C502.001282,52.998112 502.000000,53.000000 501.999023,53.000687 
z"/>
<path fill="#C3C3C3" opacity="1.000000" stroke="none" 
	d="
M57.972771,318.227661 
	C57.972775,339.821014 57.929058,360.948730 58.056713,382.075409 
	C58.066818,383.748169 59.275581,385.410095 59.908733,387.084076 
	C60.250023,387.986481 61.079906,389.460999 60.793755,389.732117 
	C54.949738,395.269318 58.968380,402.230499 58.085537,408.441223 
	C57.493286,412.607666 57.972855,416.926483 57.972855,421.177124 
	C57.513691,421.222992 57.054531,421.268860 56.595367,421.314728 
	C56.390335,420.216248 56.017071,419.119171 56.007843,418.019043 
	C55.952023,411.365204 56.114399,404.706390 55.904209,398.058685 
	C55.832649,395.795349 54.893291,393.559418 54.292480,391.070831 
	C54.765705,389.250275 55.885315,386.919434 55.899319,384.581940 
	C56.032852,362.290802 55.972721,339.998474 55.992008,317.706512 
	C55.993454,316.033142 56.177891,314.359894 56.277264,312.686584 
	C56.747967,312.690308 57.218670,312.694031 57.689373,312.697754 
	C57.783852,314.385773 57.878326,316.073792 57.972771,318.227661 
z"/>
<path fill="#C3C3C3" opacity="1.000000" stroke="none" 
	d="
M121.911293,392.589050 
	C121.920105,365.749878 121.920105,339.258667 121.920105,312.767456 
	C122.476608,312.726562 123.033104,312.685638 123.589607,312.644714 
	C123.717339,314.281281 123.954643,315.917694 123.956329,317.554382 
	C123.980492,341.002899 123.916687,364.451782 124.067184,387.899353 
	C124.080940,390.042145 125.449867,392.166443 126.125305,394.319458 
	C126.404289,395.208740 126.914154,396.804871 126.640961,396.972168 
	C121.888161,399.882385 124.414856,404.471313 124.063858,408.273621 
	C123.668533,412.556244 123.972862,416.903473 123.266869,421.217194 
	C120.435844,412.385254 124.157166,402.931000 120.176743,394.219788 
	C120.664688,393.857086 121.283585,393.397064 121.911293,392.589050 
z"/>
<path fill="#C3C3C3" opacity="1.000000" stroke="none" 
	d="
M88.962242,371.833496 
	C88.962242,352.144714 88.962242,332.455902 88.962242,312.767120 
	C89.638008,312.763428 90.313774,312.759735 90.989540,312.756073 
	C90.989540,332.166260 90.989540,351.576477 90.662193,371.468384 
	C89.877312,371.911224 89.419777,371.872375 88.962242,371.833496 
z"/>
<path fill="#B6B6B6" opacity="1.000000" stroke="none" 
	d="
M72.928482,395.000000 
	C72.928467,379.503479 73.102196,364.503906 72.835556,349.512115 
	C72.740791,344.183929 71.575882,338.874756 70.871613,333.337769 
	C72.164711,333.851044 74.310036,334.702576 75.805405,335.296143 
	C75.150177,337.739502 74.083099,339.886047 74.072708,342.037720 
	C73.954453,366.531433 73.997536,391.025970 73.997498,415.520264 
	C73.997498,417.294495 73.997490,419.068756 73.997490,420.842987 
	C73.641190,420.844269 73.284889,420.845581 72.928589,420.846863 
	C72.928589,412.397919 72.928589,403.948944 72.928482,395.000000 
z"/>
<path fill="#B6B6B6" opacity="1.000000" stroke="none" 
	d="
M139.997498,347.332764 
	C139.997482,372.057495 139.997482,396.327393 139.997482,420.597260 
	C139.735138,420.612030 139.472794,420.626801 139.210449,420.641602 
	C139.116562,419.540192 138.941437,418.438873 138.940735,417.337402 
	C138.925186,392.873047 138.917999,368.408661 138.946625,343.944336 
	C138.949326,341.635101 138.316711,338.539398 141.871262,339.193237 
	C141.155289,342.129578 140.576401,344.503754 139.997498,347.332764 
z"/>
<path fill="#C3C3C3" opacity="1.000000" stroke="none" 
	d="
M91.036842,379.161591 
	C91.036842,393.166931 91.036842,407.172241 91.036842,421.177582 
	C90.347313,421.185120 89.657784,421.192657 88.968254,421.200195 
	C88.968254,407.510803 88.968254,393.821381 89.307503,379.638123 
	C90.110115,379.150024 90.573479,379.155823 91.036842,379.161591 
z"/>
<path fill="#B6B6B6" opacity="1.000000" stroke="none" 
	d="
M106.993179,351.984222 
	C106.993179,374.869324 106.993179,397.754425 106.993179,420.639526 
	C106.640503,420.641388 106.287827,420.643250 105.935150,420.645111 
	C105.935150,398.105530 105.935150,375.565918 106.202148,352.492493 
	C106.643822,351.967163 106.818504,351.975708 106.993179,351.984222 
z"/>
<path fill="#B6B6B6" opacity="1.000000" stroke="none" 
	d="
M40.792290,365.701721 
	C40.792290,383.998383 40.792290,402.295074 40.792290,420.591736 
	C40.516045,420.594818 40.239803,420.597870 39.963558,420.600952 
	C39.963558,402.685547 39.963558,384.770142 40.168564,366.255646 
	C40.373569,365.656555 40.792290,365.701721 40.792290,365.701721 
z"/>
<path fill="#313131" opacity="1.000000" stroke="none" 
	d="
M41.064484,365.484497 
	C40.792290,365.701721 40.373569,365.656555 40.204700,365.782349 
	C35.653847,362.938538 35.542484,361.618164 39.933617,358.093964 
	C40.662460,357.972382 40.843323,357.955902 41.024189,357.939392 
	C44.278725,360.247681 45.912231,362.625092 41.064484,365.484497 
z"/>
<path fill="#313131" opacity="1.000000" stroke="none" 
	d="
M107.257324,351.753937 
	C106.818504,351.975708 106.643822,351.967163 106.216812,352.030396 
	C101.710861,348.849609 101.631767,347.707489 105.931602,344.352844 
	C106.427711,344.242126 106.882004,344.205688 106.882004,344.205688 
	C110.444565,346.352325 111.648544,348.705078 107.257324,351.753937 
z"/>
<path fill="#B6B6B6" opacity="1.000000" stroke="none" 
	d="
M41.015732,357.474762 
	C40.843323,357.955902 40.662460,357.972382 40.216331,357.926819 
	C39.951065,342.983948 39.951065,328.103088 39.951065,313.222260 
	C40.303135,313.220581 40.655209,313.218933 41.007278,313.217255 
	C41.007278,327.814880 41.007278,342.412506 41.015732,357.474762 
z"/>
<path fill="#313131" opacity="1.000000" stroke="none" 
	d="
M91.324066,379.007843 
	C90.573479,379.155823 90.110115,379.150024 89.300636,379.183472 
	C85.466911,377.157562 85.016747,374.838470 88.664886,372.017578 
	C89.419777,371.872375 89.877312,371.911224 90.678772,371.931335 
	C93.763336,374.010651 94.547623,376.274628 91.324066,379.007843 
z"/>
<path fill="#B6B6B6" opacity="1.000000" stroke="none" 
	d="
M106.918015,343.723907 
	C106.882004,344.205688 106.427711,344.242126 106.222763,344.142517 
	C106.017815,333.762360 106.017815,323.481812 106.017815,313.201263 
	C106.329887,313.199005 106.641953,313.196747 106.954025,313.194458 
	C106.954025,323.210358 106.954025,333.226227 106.918015,343.723907 
z"/>
<path fill="#313131" opacity="1.000000" stroke="none" 
	d="
M137.211182,336.987671 
	C137.334076,338.281036 137.233810,339.315216 137.133545,340.349396 
	C136.773666,340.357483 136.413788,340.365601 136.053909,340.373688 
	C136.116089,339.133698 136.174026,337.893402 136.253632,336.654541 
	C136.257416,336.595581 136.464203,336.491577 136.556976,336.509491 
	C136.709076,336.538849 136.845184,336.651154 137.211182,336.987671 
z"/>
<path fill="#000000" opacity="1.000000" stroke="none" 
	d="
M145.000000,42.000000 
	C145.000000,84.969231 144.982132,127.438469 145.016602,169.907669 
	C145.022751,177.480698 143.460510,178.115356 136.867111,178.088608 
	C94.232048,177.915619 51.595936,178.001038 8.960165,177.998795 
	C2.980222,177.998474 2.013647,177.123199 2.011522,171.233856 
	C1.991986,117.106415 1.995648,62.978970 2.007660,8.851527 
	C2.008713,4.109525 4.219512,2.042110 9.447374,2.016419 
	C20.439142,1.962403 31.431362,1.999985 42.423397,1.999984 
	C74.067139,1.999980 105.710876,1.997561 137.354614,2.002129 
	C143.334641,2.002992 144.991623,3.633545 144.997147,9.523303 
	C145.007172,20.182192 145.000000,30.841101 145.000000,42.000000 
M124.208344,14.998864 
	C90.210228,14.998905 56.212112,14.993450 22.214001,15.003963 
	C15.969208,15.005895 12.017802,18.537743 12.013093,24.345083 
	C11.977283,68.509308 11.973555,112.673592 12.016345,156.837799 
	C12.021851,162.519775 15.742918,165.996124 21.456511,165.997192 
	C55.954624,166.003647 90.455383,165.782898 124.948387,166.202942 
	C131.090195,166.277740 134.964325,160.941238 134.984680,156.116165 
	C135.001556,152.116455 134.987976,148.116623 134.987976,144.116837 
	C134.987976,104.785652 134.993027,65.454468 134.983521,26.123285 
	C134.981735,18.771471 131.898193,15.322569 124.208344,14.998864 
z"/>
<path fill="#000000" opacity="1.000000" stroke="none" 
	d="
M240.105240,183.999817 
	C257.683319,182.831970 272.232635,188.930130 284.047607,200.781143 
	C293.445740,210.207962 298.792389,221.911102 300.090881,235.505814 
	C303.069855,266.693848 282.487946,292.617218 252.938950,297.593231 
	C220.105667,303.122345 192.923309,281.773285 187.006683,252.028473 
	C181.150116,222.585571 198.178131,196.078796 225.100693,186.585892 
	C229.676865,184.972336 234.769867,184.824509 240.105240,183.999817 
z"/>
<path fill="#F0F0F0" opacity="1.000000" stroke="none" 
	d="
M302.105713,179.995880 
	C305.056763,181.233139 306.029114,183.769043 303.766083,185.695251 
	C302.189819,187.036896 299.125397,186.630096 296.725739,187.004364 
	C296.615356,185.120804 296.381836,183.226608 296.542542,181.366470 
	C296.563843,181.119934 298.591156,181.046722 300.256897,180.949188 
	C301.251465,180.668701 301.678589,180.332291 302.105713,179.995880 
z"/>
<path fill="#555555" opacity="1.000000" stroke="none" 
	d="
M301.903076,179.848297 
	C301.678589,180.332291 301.251465,180.668701 300.582031,180.943939 
	C300.793304,180.488724 301.246887,180.094711 301.903076,179.848297 
z"/>
<path fill="#E5E5E5" opacity="1.000000" stroke="none" 
	d="
M124.668640,14.998906 
	C131.898193,15.322569 134.981735,18.771471 134.983521,26.123285 
	C134.993027,65.454468 134.987976,104.785652 134.987976,144.116837 
	C134.987976,148.116623 135.001556,152.116455 134.984680,156.116165 
	C134.964325,160.941238 131.090195,166.277740 124.948387,166.202942 
	C90.455383,165.782898 55.954624,166.003647 21.456511,165.997192 
	C15.742918,165.996124 12.021851,162.519775 12.016345,156.837799 
	C11.973555,112.673592 11.977283,68.509308 12.013093,24.345083 
	C12.017802,18.537743 15.969208,15.005895 22.214001,15.003963 
	C56.212112,14.993450 90.210228,14.998905 124.668640,14.998906 
M25.477110,149.268768 
	C25.014999,150.052826 24.552889,150.836899 24.090776,151.620956 
	C24.492279,151.793381 24.893782,151.965805 25.295284,152.138229 
	C25.514782,151.071274 25.734278,150.004303 26.670822,149.180130 
	C27.657156,148.368713 28.643488,147.557281 29.629820,146.745865 
	C29.146454,146.338135 28.663090,145.930389 28.179724,145.522659 
	C27.466116,146.693466 26.752508,147.864273 25.477110,149.268768 
M95.436859,65.475212 
	C95.035210,66.188766 94.633568,66.902328 94.069000,68.451370 
	C94.012413,69.300705 93.955818,70.150047 93.369713,71.464607 
	C91.955482,74.534729 90.541260,77.604851 89.166618,80.589035 
	C98.281967,80.589035 106.723824,80.589035 116.256348,80.589035 
	C114.195633,77.227310 112.611916,74.643730 110.958839,71.338715 
	C109.975304,70.845253 108.991776,70.351799 108.028374,69.459969 
	C108.028374,69.459969 108.033295,69.061134 108.049568,68.269951 
	C106.506058,66.780632 104.962555,65.291313 103.417984,63.086945 
	C103.554924,60.255676 102.626137,57.644489 99.497253,58.276176 
	C98.090324,58.560219 97.087433,61.391304 96.149292,63.195663 
	C95.747704,63.968052 95.978996,65.069489 96.007751,66.008354 
	C96.007751,66.008354 95.996834,65.923027 95.436859,65.475212 
M27.746040,131.000000 
	C60.101238,131.000000 92.456436,131.000000 124.811638,131.000000 
	C124.810181,130.777130 124.808723,130.554260 124.807266,130.331390 
	C90.676834,130.331390 56.546410,130.331390 22.415985,130.331390 
	C22.415731,130.554260 22.415476,130.777130 22.415222,131.000000 
	C23.888702,131.000000 25.362183,131.000000 27.746040,131.000000 
M107.498787,40.999775 
	C79.122269,40.999775 50.745747,40.999775 22.369228,40.999775 
	C22.371380,41.253788 22.373533,41.507805 22.375685,41.761818 
	C56.525513,41.761818 90.675339,41.761818 124.825165,41.761818 
	C124.827690,41.507801 124.830215,41.253788 124.832733,40.999771 
	C119.387749,40.999771 113.942772,40.999771 107.498787,40.999775 
M70.500000,113.992599 
	C54.473289,113.992599 38.446579,113.992599 22.419868,113.992599 
	C22.423553,114.227730 22.427237,114.462860 22.430922,114.697990 
	C56.544907,114.697990 90.658890,114.697990 124.772873,114.697990 
	C124.773369,114.462852 124.773872,114.227715 124.774368,113.992577 
	C107.016251,113.992577 89.258125,113.992577 70.500000,113.992599 
M112.119514,120.786774 
	C112.488182,123.081078 110.365501,126.574745 114.820808,126.933037 
	C117.630585,127.158997 120.543442,127.325874 123.267960,126.792870 
	C124.371384,126.577011 125.766922,124.449959 125.808617,123.153328 
	C125.851715,121.813194 124.460327,119.290222 123.613304,119.254463 
	C119.898300,119.097633 116.153168,119.654480 112.119514,120.786774 
M101.788597,119.261246 
	C100.966698,120.665932 99.795708,122.000366 99.492058,123.509338 
	C99.367912,124.126251 101.086441,125.736702 102.028137,125.789017 
	C103.227295,125.855644 104.488777,124.800392 105.723389,124.228767 
	C104.657768,122.536667 103.592155,120.844566 101.788597,119.261246 
M25.693766,29.992456 
	C24.187710,30.306532 22.681656,30.620605 19.998379,31.180180 
	C25.849552,33.791508 31.281391,33.485802 34.235214,30.436134 
	C31.292118,30.265060 28.944696,30.128613 25.693766,29.992456 
M121.027939,35.861362 
	C121.808060,34.626247 122.588188,33.391136 123.368317,32.156025 
	C122.163551,31.456642 120.980370,30.278696 119.746582,30.223072 
	C118.898415,30.184832 117.102661,32.206345 117.238602,32.443821 
	C117.994026,33.763371 119.210815,34.818802 121.027939,35.861362 
M117.631508,83.008011 
	C117.113800,82.682259 116.596100,82.356506 116.078392,82.030754 
	C115.958961,82.256935 115.839531,82.483109 115.720100,82.709282 
	C116.251747,82.927284 116.783386,83.145279 117.631508,83.008011 
z"/>
<path fill="#DADADA" opacity="1.000000" stroke="none" 
	d="
M108.033295,69.061134 
	C108.033295,69.061134 108.028374,69.459969 108.168884,69.942345 
	C109.215660,70.969864 110.121925,71.515007 111.028198,72.060150 
	C112.611916,74.643730 114.195633,77.227310 116.256348,80.589035 
	C106.723824,80.589035 98.281967,80.589035 89.166618,80.589035 
	C90.541260,77.604851 91.955482,74.534729 94.031403,71.089325 
	C99.139824,70.163078 103.586555,69.612106 108.033295,69.061134 
z"/>
<path fill="#C1C1C1" opacity="1.000000" stroke="none" 
	d="
M27.290852,131.000000 
	C25.362183,131.000000 23.888702,131.000000 22.415222,131.000000 
	C22.415476,130.777130 22.415731,130.554260 22.415985,130.331390 
	C56.546410,130.331390 90.676834,130.331390 124.807266,130.331390 
	C124.808723,130.554260 124.810181,130.777130 124.811638,131.000000 
	C92.456436,131.000000 60.101238,131.000000 27.290852,131.000000 
z"/>
<path fill="#C1C1C1" opacity="1.000000" stroke="none" 
	d="
M107.998291,40.999771 
	C113.942772,40.999771 119.387749,40.999771 124.832733,40.999771 
	C124.830215,41.253788 124.827690,41.507801 124.825165,41.761818 
	C90.675339,41.761818 56.525513,41.761818 22.375685,41.761818 
	C22.373533,41.507805 22.371380,41.253788 22.369228,40.999775 
	C50.745747,40.999775 79.122269,40.999775 107.998291,40.999771 
z"/>
<path fill="#B6B6B6" opacity="1.000000" stroke="none" 
	d="
M71.000000,113.992584 
	C89.258125,113.992577 107.016251,113.992577 124.774368,113.992577 
	C124.773872,114.227715 124.773369,114.462852 124.772873,114.697990 
	C90.658890,114.697990 56.544907,114.697990 22.430922,114.697990 
	C22.427237,114.462860 22.423553,114.227730 22.419868,113.992599 
	C38.446579,113.992599 54.473289,113.992599 71.000000,113.992584 
z"/>
<path fill="#CCCCCC" opacity="1.000000" stroke="none" 
	d="
M108.041428,68.665543 
	C103.586555,69.612106 99.139824,70.163078 94.296158,70.856712 
	C93.955818,70.150047 94.012413,69.300705 94.437218,67.983582 
	C95.202568,66.984871 95.599701,66.453949 95.996834,65.923027 
	C95.996834,65.923027 96.007751,66.008354 96.361443,65.957352 
	C98.949776,65.204895 101.184410,64.503448 103.419044,63.801994 
	C104.962555,65.291313 106.506058,66.780632 108.041428,68.665543 
z"/>
<path fill="#313131" opacity="1.000000" stroke="none" 
	d="
M103.418518,63.444473 
	C101.184410,64.503448 98.949776,65.204895 96.318924,65.963882 
	C95.978996,65.069489 95.747704,63.968052 96.149292,63.195663 
	C97.087433,61.391304 98.090324,58.560219 99.497253,58.276176 
	C102.626137,57.644489 103.554924,60.255676 103.418518,63.444473 
z"/>
<path fill="#F5F5F5" opacity="1.000000" stroke="none" 
	d="
M112.269241,120.369637 
	C116.153168,119.654480 119.898300,119.097633 123.613304,119.254463 
	C124.460327,119.290222 125.851715,121.813194 125.808617,123.153328 
	C125.766922,124.449959 124.371384,126.577011 123.267960,126.792870 
	C120.543442,127.325874 117.630585,127.158997 114.820808,126.933037 
	C110.365501,126.574745 112.488182,123.081078 112.269241,120.369637 
M123.057526,120.083244 
	C120.561989,120.068321 118.022079,119.779419 115.592697,120.172913 
	C114.617012,120.330956 113.232063,121.982132 113.223549,122.964027 
	C113.214989,123.951500 114.511292,125.475075 115.550240,125.821960 
	C117.051903,126.323334 118.837776,126.017944 120.500839,125.983040 
	C125.286545,125.882607 125.739357,125.113029 123.057526,120.083244 
z"/>
<path fill="#F5F5F5" opacity="1.000000" stroke="none" 
	d="
M102.157570,119.206856 
	C103.592155,120.844566 104.657768,122.536667 105.723389,124.228775 
	C104.488777,124.800392 103.227295,125.855644 102.028137,125.789017 
	C101.086441,125.736702 99.367912,124.126251 99.492058,123.509338 
	C99.795708,122.000366 100.966698,120.665932 102.157570,119.206856 
z"/>
<path fill="#D7D7D7" opacity="1.000000" stroke="none" 
	d="
M26.145519,29.992310 
	C28.944696,30.128613 31.292118,30.265060 34.235214,30.436134 
	C31.281391,33.485802 25.849552,33.791508 19.998379,31.180180 
	C22.681656,30.620605 24.187710,30.306532 26.145519,29.992310 
z"/>
<path fill="#C3C3C3" opacity="1.000000" stroke="none" 
	d="
M120.648827,35.912991 
	C119.210815,34.818802 117.994026,33.763371 117.238602,32.443821 
	C117.102661,32.206345 118.898415,30.184832 119.746582,30.223072 
	C120.980370,30.278696 122.163551,31.456642 123.368317,32.156025 
	C122.588188,33.391136 121.808060,34.626247 120.648827,35.912991 
z"/>
<path fill="#555555" opacity="1.000000" stroke="none" 
	d="
M25.953773,148.937347 
	C25.734278,150.004303 25.514782,151.071274 25.295284,152.138229 
	C24.893782,151.965805 24.492279,151.793381 24.090776,151.620956 
	C24.552889,150.836899 25.014999,150.052826 25.735741,149.128342 
	C25.994370,148.987915 25.953772,148.937347 25.953773,148.937347 
z"/>
<path fill="#555555" opacity="1.000000" stroke="none" 
	d="
M26.016636,149.011505 
	C26.752508,147.864273 27.466116,146.693466 28.179724,145.522659 
	C28.663090,145.930389 29.146454,146.338135 29.629820,146.745865 
	C28.643488,147.557281 27.657156,148.368713 26.312298,149.058746 
	C25.953772,148.937347 25.994370,148.987915 26.016636,149.011505 
z"/>
<path fill="#313131" opacity="1.000000" stroke="none" 
	d="
M95.716843,65.699120 
	C95.599701,66.453949 95.202568,66.984871 94.518677,67.565842 
	C94.633568,66.902328 95.035210,66.188766 95.716843,65.699120 
z"/>
<path fill="#CCCCCC" opacity="1.000000" stroke="none" 
	d="
M110.993515,71.699432 
	C110.121925,71.515007 109.215660,70.969864 108.158813,70.141525 
	C108.991776,70.351799 109.975304,70.845253 110.993515,71.699432 
z"/>
<path fill="#DADADA" opacity="1.000000" stroke="none" 
	d="
M117.473267,83.185646 
	C116.783386,83.145279 116.251747,82.927284 115.720100,82.709282 
	C115.839531,82.483109 115.958961,82.256935 116.078392,82.030754 
	C116.596100,82.356506 117.113800,82.682259 117.473267,83.185646 
z"/>
<path fill="#E5E5E5" opacity="1.000000" stroke="none" 
	d="
M123.480247,120.202713 
	C125.739357,125.113029 125.286545,125.882607 120.500839,125.983040 
	C118.837776,126.017944 117.051903,126.323334 115.550240,125.821960 
	C114.511292,125.475075 113.214989,123.951500 113.223549,122.964027 
	C113.232063,121.982132 114.617012,120.330956 115.592697,120.172913 
	C118.022079,119.779419 120.561989,120.068321 123.480247,120.202713 
z"/>
</svg>